<svg width="198" height="124" viewBox="0 0 198 124" fill="none" xmlns="http://www.w3.org/2000/svg">
<g clip-path="url(#clip0_1255_5246)">
<path d="M135.181 123.794C169.366 123.794 197.078 96.0818 197.078 61.897C197.078 27.7122 169.366 0 135.181 0C100.996 0 73.2841 27.7122 73.2841 61.897C73.2841 96.0818 100.996 123.794 135.181 123.794Z" fill="url(#paint0_linear_1255_5246)"/>
<path d="M138.937 26.4092H131.425C124.371 26.4092 118.652 32.1277 118.652 39.1818V52.7906H125.383V40.8586C125.383 36.626 128.814 33.195 133.047 33.195H137.315C141.548 33.195 144.979 36.626 144.979 40.8586V52.7906H151.71V39.1818C151.71 32.1277 145.991 26.4092 138.937 26.4092Z" fill="url(#paint1_linear_1255_5246)"/>
<path d="M153.07 93.847H117.292C112.354 93.847 108.351 89.8441 108.351 84.9062V59.9653C108.351 55.0274 112.354 51.0244 117.292 51.0244H153.07C158.008 51.0244 162.011 55.0274 162.011 59.9653V84.9062C162.011 89.8441 158.008 93.847 153.07 93.847Z" fill="url(#paint2_linear_1255_5246)"/>
<path d="M135.181 69.788C138.53 69.788 141.245 67.0731 141.245 63.7241C141.245 60.3751 138.53 57.6602 135.181 57.6602C131.832 57.6602 129.117 60.3751 129.117 63.7241C129.117 67.0731 131.832 69.788 135.181 69.788Z" fill="#313259"/>
<path d="M138.537 84.4181H131.826C131.066 84.4181 130.474 83.7585 130.556 83.0029L132.294 66.987C132.365 66.3386 132.912 65.8477 133.564 65.8477H136.798C137.45 65.8477 137.997 66.3389 138.068 66.987L139.806 83.0029C139.888 83.7585 139.297 84.4181 138.537 84.4181Z" fill="#313259"/>
<path d="M113.343 97.3851C119.584 97.3851 124.643 92.3257 124.643 86.0847C124.643 79.8436 119.584 74.7842 113.343 74.7842C107.102 74.7842 102.042 79.8436 102.042 86.0847C102.042 92.3257 107.102 97.3851 113.343 97.3851Z" fill="url(#paint3_linear_1255_5246)"/>
<path d="M112.476 91.2269C112.094 91.2269 111.731 91.0553 111.489 90.7595L106.884 85.1423C106.437 84.5966 106.516 83.792 107.062 83.3447C107.607 82.8976 108.412 82.9771 108.859 83.5227L112.476 87.9349L117.826 81.4089C118.273 80.8635 119.078 80.7838 119.624 81.2308C120.169 81.6778 120.249 82.4828 119.802 83.0284L113.464 90.7595C113.222 91.0553 112.859 91.2269 112.476 91.2269Z" fill="white"/>
</g>
<g clip-path="url(#clip1_1255_5246)">
<path d="M92.8842 14.9189H2.59962C1.18491 14.9189 0.0380859 16.0627 0.0380859 17.4736V60.8045C0.0380859 62.2155 1.18491 63.3592 2.59962 63.3592H22.5462C24.0738 63.3592 25.0178 65.0207 24.2329 66.3277L18.9087 75.1918C18.1013 76.5361 19.5673 78.0935 20.9634 77.3745L48.177 63.3592H92.8844C94.2991 63.3592 95.4459 62.2155 95.4459 60.8045V17.4736C95.4457 16.0627 94.2989 14.9189 92.8842 14.9189Z" fill="url(#paint4_linear_1255_5246)"/>
<path d="M51.8762 25.2652H8.88519C8.36985 25.2652 7.95227 24.8485 7.95227 24.3347C7.95227 23.8208 8.37002 23.4043 8.88519 23.4043H51.8764C52.3917 23.4043 52.8093 23.8209 52.8093 24.3347C52.8093 24.8485 52.3915 25.2652 51.8762 25.2652Z" fill="#E6EFE8"/>
<path d="M86.5987 25.2652H62.2639C61.7485 25.2652 61.3309 24.8485 61.3309 24.3347C61.3309 23.8208 61.7487 23.4043 62.2639 23.4043H86.5988C87.1142 23.4043 87.5317 23.8209 87.5317 24.3347C87.5317 24.8485 87.114 25.2652 86.5987 25.2652Z" fill="#E6EFE8"/>
<path d="M86.5987 33.9722H8.8847C8.36937 33.9722 7.95178 33.5556 7.95178 33.0418C7.95178 32.5278 8.36954 32.1113 8.8847 32.1113H86.5987C87.114 32.1113 87.5316 32.528 87.5316 33.0418C87.5316 33.5556 87.114 33.9722 86.5987 33.9722Z" fill="#E6EFE8"/>
<path d="M48.0108 42.6782H8.88483C8.36949 42.6782 7.9519 42.2616 7.9519 41.7478C7.9519 41.2339 8.36966 40.8174 8.88483 40.8174H48.0108C48.5261 40.8174 48.9437 41.234 48.9437 41.7478C48.9437 42.2616 48.526 42.6782 48.0108 42.6782Z" fill="#E6EFE8"/>
<path d="M86.5987 42.6782H55.7632C55.2479 42.6782 54.8303 42.2616 54.8303 41.7478C54.8303 41.2339 55.2481 40.8174 55.7632 40.8174H86.5987C87.114 40.8174 87.5316 41.234 87.5316 41.7478C87.5316 42.2616 87.114 42.6782 86.5987 42.6782Z" fill="#E6EFE8"/>
<path d="M29.4847 51.3853H8.88483C8.36949 51.3853 7.9519 50.9686 7.9519 50.4548C7.9519 49.9409 8.36966 49.5244 8.88483 49.5244H29.4847C30.0001 49.5244 30.4176 49.9411 30.4176 50.4548C30.4176 50.9686 30.0001 51.3853 29.4847 51.3853Z" fill="#E6EFE8"/>
</g>
<defs>
<linearGradient id="paint0_linear_1255_5246" x1="151.439" y1="101.269" x2="83.6013" y2="-63.0116" gradientUnits="userSpaceOnUse">
<stop stop-color="#C7E2CD"/>
<stop offset="0.908" stop-color="white"/>
</linearGradient>
<linearGradient id="paint1_linear_1255_5246" x1="138.658" y1="34.4685" x2="120.455" y2="89.3375" gradientUnits="userSpaceOnUse">
<stop stop-color="#1C7E8E"/>
<stop offset="0.717" stop-color="#313259"/>
</linearGradient>
<linearGradient id="paint2_linear_1255_5246" x1="138.799" y1="65.2657" x2="98.2065" y2="145.718" gradientUnits="userSpaceOnUse">
<stop stop-color="#1C7E8E"/>
<stop offset="0.585" stop-color="#313259"/>
</linearGradient>
<linearGradient id="paint3_linear_1255_5246" x1="104.48" y1="98.048" x2="121.833" y2="74.6253" gradientUnits="userSpaceOnUse">
<stop offset="0.015" stop-color="#71DBA3"/>
<stop offset="0.151" stop-color="#7EDCAA"/>
<stop offset="0.721" stop-color="#B3E0C3"/>
<stop offset="1" stop-color="#C7E2CD"/>
</linearGradient>
<linearGradient id="paint4_linear_1255_5246" x1="-7.6334" y1="3.38432" x2="111.819" y2="83.3512" gradientUnits="userSpaceOnUse">
<stop stop-color="#FFF9E9"/>
<stop offset="0.449" stop-color="#1C7E8E"/>
<stop offset="0.86" stop-color="#313259"/>
</linearGradient>
<clipPath id="clip0_1255_5246">
<rect width="123.794" height="123.794" fill="white" transform="translate(73.2841)"/>
</clipPath>
<clipPath id="clip1_1255_5246">
<rect width="95.4837" height="62.6373" fill="white" transform="translate(0 14.9189)"/>
</clipPath>
</defs>
</svg>
