<svg width="295" height="220" viewBox="0 0 295 220" fill="none" xmlns="http://www.w3.org/2000/svg">
<path d="M18.8216 202.64H277.438C283.441 202.64 285.879 192.873 280.964 188.516L262.462 172.118C261.429 171.202 260.198 170.711 258.936 170.711H33.8682C32.3959 170.711 30.9728 171.379 29.8577 172.595L14.8111 188.993C10.4985 193.693 13.1278 202.64 18.8216 202.64Z" fill="url(#paint0_linear_287_17555)"/>
<path d="M169.3 77.7164C176.405 73.9143 194.306 65.5314 207.227 69.7421C223.691 75.107 247.306 104.442 247.306 104.442C240.248 108.797 232.009 113.663 223.899 120.404C215.131 127.694 206.914 133.969 201.064 140.555C199.901 139.267 199.73 138.971 198.568 137.684L169.3 77.7164Z" fill="url(#paint1_linear_287_17555)"/>
<path d="M198.567 137.683L198.561 110.389L217.636 128.357L201.158 140.664L198.567 137.683Z" fill="url(#paint2_linear_287_17555)"/>
<path d="M169.299 77.7168C167.139 78.8728 164.76 79.5579 162.316 79.727L142.567 81.094C139.875 81.2803 137.221 80.3728 135.206 78.5766C135.206 78.5766 111.64 91.4421 111.64 127.806C111.64 164.169 111.64 170.711 111.64 170.711H198.557C198.557 170.711 198.567 167.742 198.567 127.806C198.567 87.87 169.299 77.7168 169.299 77.7168Z" fill="url(#paint3_linear_287_17555)"/>
<path d="M246.176 141.705L212.972 145.162L203.625 135.9C203.625 135.9 209.606 134.694 218.032 135.491C229.086 136.538 246.176 141.705 246.176 141.705Z" fill="url(#paint4_linear_287_17555)"/>
<path d="M228.041 127.429C240.799 117.442 249.402 107.125 247.257 104.384C245.112 101.644 233.031 107.519 220.273 117.506C207.515 127.494 198.912 137.811 201.057 140.551C203.202 143.292 215.283 137.417 228.041 127.429Z" fill="#313259"/>
<path d="M264.778 164.933C258.454 172.772 241.17 173.099 232.233 164.245L211.691 143.89L202.664 134.947C204.501 132.259 206.271 130.244 208.403 127.875C218.547 116.605 229.939 109.741 239.169 105.514C244.993 111.693 249.32 117.163 252.234 121.022C258.922 129.876 265.92 140.93 267.161 149.729C268 155.675 267.741 161.26 264.778 164.933Z" fill="#FFB8A9"/>
<path d="M245.141 140.678L211.937 144.134L202.59 134.873C202.59 134.873 208.571 133.666 216.997 134.464C228.051 135.51 245.141 140.678 245.141 140.678Z" fill="url(#paint5_linear_287_17555)"/>
<path d="M266.628 161.546C268.208 151.709 262.117 144.19 250.646 142.793C244.626 142.06 239.878 141.836 226.385 142.793C213.566 143.703 200.851 145.432 191.963 146.917C189.983 147.248 179.308 150.118 175.971 153.305C173.518 155.646 176.005 158.79 178.374 160.478C180.235 161.805 186.063 165.421 186.063 165.421C186.063 165.421 204.465 177.558 235.229 177.558C250.477 177.558 263.196 171.278 266.628 161.546Z" fill="#FFB8A9"/>
<path d="M191.966 165.513C191.966 165.513 184.33 163.704 186.347 168.433C187.962 172.219 187.78 174.54 185.244 175.275C182.744 176 179.814 172.08 178.964 167.974C177.837 162.537 179.89 158.616 184.913 158.18C187.036 157.997 191.966 157.582 191.966 157.582L191.966 165.513Z" fill="#EA929A"/>
<path d="M191.966 154.102C183.25 154.854 173.994 155.685 171.733 162.771C169.49 169.802 169.934 174.45 172.074 175.022C174.97 175.796 176.783 173.805 177.093 170.004C177.403 166.204 178.607 164.756 180.877 163.722C183.691 162.44 191.966 162.166 191.966 162.166V154.102H191.966Z" fill="#EA929A"/>
<path d="M180.073 153.36C180.073 153.36 171.358 154.653 166.798 159.213C162.238 163.773 157.274 168.984 159.72 171.723C161.557 173.779 165.536 171.495 167.584 169.447C169.633 167.398 172.32 163.818 174.181 162.235C178 158.988 182.165 158.318 191.966 158.514V152.365L180.073 153.36Z" fill="#EA929A"/>
<path d="M191.965 146.93C191.965 146.93 168.51 150.942 161.907 154.105C154.907 157.458 153.537 160.303 154.77 162.624C155.998 164.933 160.708 163.72 163.611 162.488C166.513 161.257 191.965 154.416 191.965 154.416V146.93Z" fill="#EA929A"/>
<path d="M178.622 166.151C178.343 162.409 179.89 158.615 184.913 158.18" stroke="#313259" stroke-width="1.17647" stroke-miterlimit="10" stroke-linecap="round" stroke-linejoin="round"/>
<path d="M180.522 155.807C180.522 155.807 174.835 156.478 171.934 162.167C171.216 163.574 170.713 166.576 170.713 166.576" stroke="#313259" stroke-width="1.17647" stroke-miterlimit="10" stroke-linecap="round" stroke-linejoin="round"/>
<path d="M186.516 165.651C186.516 165.651 187.679 164.957 189.407 165.223" stroke="#313259" stroke-width="1.17647" stroke-miterlimit="10" stroke-linecap="round" stroke-linejoin="round"/>
<path d="M178.174 153.773C178.174 153.773 171.515 154.816 166.798 159.213C164.737 161.133 162.712 163.504 162.712 163.504" stroke="#313259" stroke-width="1.17647" stroke-miterlimit="10" stroke-linecap="round" stroke-linejoin="round"/>
<path d="M111.64 131.814L109.467 135.557L61.8635 120.128C61.8635 120.128 81.1895 83.5646 98.7542 72.712C116.319 61.8594 135.206 78.5775 135.206 78.5775L111.64 131.814Z" fill="url(#paint6_linear_287_17555)"/>
<path d="M109.783 134.995C110.756 131.795 100.795 125.93 87.534 121.897C74.2729 117.863 62.7335 117.188 61.7599 120.388C60.7864 123.589 70.7474 129.454 84.0086 133.487C97.2697 137.521 108.809 138.196 109.783 134.995Z" fill="#313259"/>
<path d="M111.639 131.813V105.723L87.7044 130.76L109.466 135.555L111.639 131.813Z" fill="url(#paint7_linear_287_17555)"/>
<path d="M66.9875 118.381C66.9875 118.381 55.0007 135.719 51.783 153.198C51.0098 157.399 51.2689 161.851 52.7123 164.8C54.6476 168.755 58.543 169.336 64.4263 169.167C77.8501 168.783 90.1063 161.429 96.94 149.869L99.8155 145.004L108.192 131.763C100.456 124.307 76.938 116.858 66.9875 118.381Z" fill="#FFB8A9"/>
<path d="M68.7664 140.09L99.8148 145.005L102.777 139.994C102.777 139.994 100.474 138.792 93.3587 137.785C85.0525 136.61 68.7664 140.09 68.7664 140.09Z" fill="url(#paint8_linear_287_17555)"/>
<path d="M55.1628 153.484C61.4828 144.584 72.2712 139.99 83.0944 141.405C98.7502 143.452 123.567 146.701 129.056 147.59C135.206 148.585 136.473 149.549 136.727 152.692C137.054 156.748 126.433 164.152 121.798 167.006C118.463 169.06 114.858 170.568 107.042 172.272C100.407 173.719 88.6469 175.309 78.0064 175.309C70.2046 175.309 55.4813 173.039 52.3479 163.878C51.2391 160.635 52.6898 156.966 55.1628 153.484Z" fill="#FFB8A9"/>
<path d="M117.11 167.213C118.359 166.97 121.487 167.746 123.761 171.05C126.092 174.435 127.199 177.2 130.297 176.847C133.395 176.495 134.703 172.584 130.57 166.268C126.437 159.951 123.599 159.872 118.431 160.625L117.11 167.213Z" fill="#EA929A"/>
<path d="M118.431 154.592C118.431 154.592 130.971 156.162 139.061 163.686C144.868 169.086 146.953 173.585 143.158 175.638C139.45 177.645 136.114 171.485 133.972 169.306C128.675 163.915 118.431 160.915 118.431 160.915V154.592Z" fill="#EA929A"/>
<path d="M118.431 150.475C118.431 150.475 135.876 152.562 145.324 160.51C150.463 164.834 153.961 170.304 152.426 172.825C150.891 175.347 146.956 176.183 142.189 170.181C137.421 164.179 122.112 157.064 118.431 155.931L118.431 150.475Z" fill="#EA929A"/>
<path d="M118.42 149.127C118.42 149.127 134.94 148.585 143.399 158.231C149.818 165.549 148.37 170.222 144.476 170.568C140.331 170.936 137.328 161.584 131.749 159.073C127.396 157.114 118.432 155.93 118.432 155.93L118.42 149.127Z" fill="#EA929A"/>
<path d="M118.42 149.128C118.42 149.128 129.501 148.148 135.361 147.351C140.913 146.596 143.081 147.917 143.301 150.332C143.521 152.747 141.091 155.006 135.092 155.964C127.88 157.116 118.432 155.932 118.432 155.932L118.42 149.128Z" fill="#EA929A"/>
<path d="M130.642 166.507C126.509 160.19 122.762 160.253 121.686 160.398" stroke="#313259" stroke-width="1.17647" stroke-miterlimit="10" stroke-linecap="round" stroke-linejoin="round"/>
<path d="M127.586 157.113C127.586 157.113 132.715 158.045 139.061 163.682C143.128 167.295 145.19 170.756 145.02 173.066" stroke="#313259" stroke-width="1.17647" stroke-miterlimit="10" stroke-linecap="round" stroke-linejoin="round"/>
<path d="M131.082 153.332C131.082 153.332 140.202 156.165 145.323 160.51" stroke="#313259" stroke-width="1.17647" stroke-miterlimit="10" stroke-linecap="round" stroke-linejoin="round"/>
<path d="M139.477 154.434C139.477 154.434 134.562 151.725 128.057 150.122C124.679 149.29 119.016 149.078 119.016 149.078" stroke="#313259" stroke-width="1.17647" stroke-miterlimit="10" stroke-linecap="round" stroke-linejoin="round"/>
<path d="M119.752 167.764C119.752 167.764 118.427 166.906 117.11 167.213" stroke="#313259" stroke-width="1.17647" stroke-miterlimit="10" stroke-linecap="round" stroke-linejoin="round"/>
<path d="M173.118 78.8201C179.87 78.8201 185.343 74.1047 185.343 68.288C185.343 62.4712 179.87 57.7559 173.118 57.7559C166.366 57.7559 160.893 62.4712 160.893 68.288C160.893 74.1047 166.366 78.8201 173.118 78.8201Z" fill="#313259"/>
<path d="M167.791 87.8673C172.31 87.8673 175.974 83.865 175.974 78.9278C175.974 73.9906 172.31 69.9883 167.791 69.9883C163.271 69.9883 159.607 73.9906 159.607 78.9278C159.607 83.865 163.271 87.8673 167.791 87.8673Z" fill="#313259"/>
<path d="M172.807 61.5639C177.067 59.9446 179.441 55.7905 178.109 52.2855C176.776 48.7804 172.243 47.2516 167.983 48.8708C163.722 50.4901 161.349 54.6442 162.681 58.1493C164.013 61.6543 168.547 63.1831 172.807 61.5639Z" fill="#313259"/>
<path d="M140.873 45.6057C139.2 41.205 141.436 36.2726 145.866 34.589C150.296 32.9053 155.244 35.1079 156.916 39.5086C158.588 43.9093 156.353 48.8417 151.923 50.5253C147.493 52.2091 142.545 50.0064 140.873 45.6057Z" fill="#313259"/>
<path d="M140.331 64.3447C147.637 61.5678 151.684 54.3819 149.371 48.2944C147.057 42.207 139.259 39.5232 131.953 42.3001C124.647 45.077 120.599 52.263 122.913 58.3504C125.227 64.4378 133.025 67.1216 140.331 64.3447Z" fill="#313259"/>
<path d="M163.86 55.7458C168.834 53.8551 171.511 48.7547 169.838 44.3539C168.166 39.953 162.777 37.9182 157.803 39.8089C152.828 41.6997 150.151 46.8 151.824 51.2009C153.497 55.6017 158.885 57.6366 163.86 55.7458Z" fill="#313259"/>
<path d="M154.343 56.0193C159.318 54.1285 161.994 49.0282 160.322 44.6273C158.649 40.2265 153.26 38.1916 148.286 40.0824C143.311 41.9731 140.634 47.0735 142.307 51.4743C143.98 55.8752 149.369 57.91 154.343 56.0193Z" fill="#313259"/>
<path d="M139.316 78.4517C146.801 75.607 151.148 68.7738 149.025 63.1892C146.902 57.6046 139.114 55.3835 131.63 58.2281C124.145 61.0728 119.799 67.9061 121.921 73.4907C124.044 79.0753 131.832 81.2964 139.316 78.4517Z" fill="#313259"/>
<path d="M145.345 83.2237C149.88 79.1195 150.986 72.9508 147.814 69.4455C144.641 65.9402 138.393 66.4256 133.858 70.5297C129.323 74.6339 128.218 80.8026 131.39 84.3079C134.562 87.8133 140.81 87.3278 145.345 83.2237Z" fill="#313259"/>
<path d="M168.231 72.1323C167.354 72.1323 166.643 71.4212 166.643 70.544V54.8977C166.643 47.8013 160.869 42.028 153.773 42.028H151.068C143.972 42.028 138.199 47.8013 138.199 54.8977V70.544C138.199 71.4212 137.488 72.1323 136.61 72.1323C135.733 72.1323 135.022 71.4212 135.022 70.544V54.8977C135.022 46.0498 142.22 38.8516 151.068 38.8516H153.773C162.621 38.8516 169.819 46.0498 169.819 54.8977V70.544C169.819 71.4212 169.108 72.1323 168.231 72.1323Z" fill="#7F71E6"/>
<path d="M160.787 77.0684L161.081 81.1665C161.366 85.1421 158.304 88.5648 154.321 88.7229C150.317 88.882 146.984 85.6786 146.984 81.6712V77.5194L160.787 77.0684Z" fill="url(#paint9_linear_287_17555)"/>
<path d="M139.283 67.6682V60.7067C139.283 55.5087 143.497 51.2949 148.695 51.2949H156.614C161.812 51.2949 166.026 55.5087 166.026 60.7067V67.6682C166.026 74.897 160.165 80.757 152.937 80.757H152.372C145.143 80.757 139.283 74.8969 139.283 67.6682Z" fill="#FFB8A9"/>
<path d="M157.018 72.1133C157.018 72.1133 155.485 75.3589 152.566 75.2426" stroke="#313259" stroke-width="1.17647" stroke-miterlimit="10" stroke-linecap="round" stroke-linejoin="round"/>
<path d="M151.307 71.4968C150.217 71.4968 149.333 70.6131 149.333 69.5228C149.333 68.4326 150.217 67.5488 151.307 67.5488" stroke="#313259" stroke-width="1.17647" stroke-miterlimit="10" stroke-linecap="round" stroke-linejoin="round"/>
<path d="M137.084 73.7572C138.694 73.6625 139.923 72.28 139.828 70.6695L139.198 59.9488C139.103 58.3383 137.72 57.1096 136.11 57.2043C131.854 57.4547 128.607 61.1079 128.857 65.3639L128.924 66.5043C129.175 70.7605 132.828 74.0076 137.084 73.7572Z" fill="#7F71E6"/>
<path d="M159.761 52.4196C159.761 52.4196 156.443 63.433 147.85 60.1681C145.276 59.1903 144.33 55.8454 148.288 49.1641H160.796L159.761 52.4196Z" fill="#313259"/>
<path d="M157.805 49.166C157.805 49.166 160.492 59.9667 162.762 61.6065C166.118 64.0306 168.403 60.8132 168.403 60.8132L166.244 51.7139C164.544 50.0791 162.276 49.166 159.918 49.166H157.805Z" fill="#313259"/>
<path d="M145.873 49.166C145.873 49.166 141 56.8506 142.209 59.3766C142.209 59.3766 138.217 63.8233 136.318 61.597C134.207 59.1212 139.549 49.166 139.549 49.166H145.873Z" fill="#313259"/>
<path d="M150.823 49.166C150.823 49.166 143.857 58.3084 147.85 60.17C147.85 60.17 143.66 62.3311 141.987 59.6117C140.281 56.8408 145.187 49.166 145.187 49.166H150.823Z" fill="#313259"/>
<path d="M168.278 72.1107C166.664 72.1107 165.357 70.8029 165.357 69.1896V58.4504C165.357 56.8371 166.664 55.5293 168.278 55.5293C172.541 55.5293 175.997 58.9854 175.997 63.2488V64.3913C175.997 68.6545 172.541 72.1107 168.278 72.1107Z" fill="#7F71E6"/>
<path d="M218.329 28.2871H203.972L191.418 39.7642V58.2029C191.418 59.1383 192.176 59.8965 193.112 59.8965H218.329C219.264 59.8965 220.022 59.1382 220.022 58.2029V29.9809C220.023 29.0455 219.264 28.2871 218.329 28.2871Z" fill="url(#paint10_linear_287_17555)"/>
<path d="M205.72 50.9558C209.513 50.9558 212.587 47.8816 212.587 44.0892C212.587 40.2969 209.513 37.2227 205.72 37.2227C201.928 37.2227 198.854 40.2969 198.854 44.0892C198.854 47.8816 201.928 50.9558 205.72 50.9558Z" stroke="#DBE7DE" stroke-width="1.76471" stroke-miterlimit="10" stroke-linecap="round" stroke-linejoin="round"/>
<path d="M203.972 28.2871V37.9298C203.972 38.943 203.151 39.7643 202.137 39.7643H191.418L203.972 28.2871Z" fill="#FFF9E9"/>
<path d="M45.5726 109.157H37.3451C36.0384 109.157 34.9791 108.097 34.9791 106.791V98.5633C34.9791 97.2566 36.0384 96.1973 37.3451 96.1973H45.5726C46.8793 96.1973 47.9386 97.2566 47.9386 98.5633V106.791C47.9387 108.097 46.8794 109.157 45.5726 109.157Z" fill="#C7E2CD"/>
<path d="M29.7399 99.8945H10.0649" stroke="#C7E2CD" stroke-width="1.76471" stroke-miterlimit="10" stroke-linecap="round" stroke-linejoin="round"/>
<path d="M29.7394 105.465H15.7597" stroke="#C7E2CD" stroke-width="1.76471" stroke-miterlimit="10" stroke-linecap="round" stroke-linejoin="round"/>
<path d="M45.5726 126.776H37.3451C36.0384 126.776 34.9791 125.717 34.9791 124.41V116.182C34.9791 114.876 36.0384 113.816 37.3451 113.816H45.5726C46.8793 113.816 47.9386 114.876 47.9386 116.182V124.41C47.9387 125.717 46.8794 126.776 45.5726 126.776Z" fill="#E6EFE8"/>
<path d="M29.7394 117.514H11.9889" stroke="#C7E2CD" stroke-width="1.76471" stroke-miterlimit="10" stroke-linecap="round" stroke-linejoin="round"/>
<path d="M29.7394 123.084H11.9889" stroke="#C7E2CD" stroke-width="1.76471" stroke-miterlimit="10" stroke-linecap="round" stroke-linejoin="round"/>
<path d="M45.5726 144.397H37.3451C36.0384 144.397 34.9791 143.338 34.9791 142.031V133.803C34.9791 132.497 36.0384 131.438 37.3451 131.438H45.5726C46.8793 131.438 47.9386 132.497 47.9386 133.803V142.031C47.9387 143.338 46.8794 144.397 45.5726 144.397Z" fill="#C7E2CD"/>
<path d="M29.7393 135.135H14.3358" stroke="#C7E2CD" stroke-width="1.76471" stroke-miterlimit="10" stroke-linecap="round" stroke-linejoin="round"/>
<path d="M29.7398 140.703H11.2297" stroke="#C7E2CD" stroke-width="1.76471" stroke-miterlimit="10" stroke-linecap="round" stroke-linejoin="round"/>
<path d="M104.177 88.1771H27.0392C23.4733 88.1771 20.5826 85.2864 20.5826 81.7205V28.0191C20.5826 24.4532 23.4733 21.5625 27.0392 21.5625H104.177C107.743 21.5625 110.634 24.4532 110.634 28.0191V81.7205C110.633 85.2864 107.743 88.1771 104.177 88.1771Z" fill="#C7E2CD"/>
<path d="M99.9565 71.7977C91.8503 69.6031 63.9666 62.4551 63.9666 62.4551L55.0666 63.2694L20.5826 72.5159V81.7201C20.5826 85.286 23.4733 88.1767 27.0392 88.1767H104.177C106.948 88.1767 109.311 86.4303 110.227 83.978C107.822 78.366 104.422 73.0067 99.9565 71.7977Z" fill="url(#paint11_linear_287_17555)"/>
<path d="M42.1098 53.857L48.4197 54.9152L49.8011 51.4106L51.0567 55.3166L57.6829 56.1885L63.6654 25.0118C63.6654 25.0118 63.394 23.0131 61.1351 21.5625H49.155C39.9143 27.9476 42.1098 53.857 42.1098 53.857Z" fill="url(#paint12_linear_287_17555)"/>
<path d="M86.5102 48.6229L89.2349 88.178H104.178C105.846 88.178 107.367 87.5449 108.513 86.506L102.667 47.144C102.205 44.0362 99.4781 41.7742 96.3385 41.8953L92.4163 42.0464C88.945 42.1802 86.2715 45.1573 86.5102 48.6229Z" fill="#D3785F"/>
<path d="M92.0156 37.6156C92.0156 37.6156 94.1404 33.7563 96.9843 36.6002C99.4087 39.0246 98.6057 49.5222 95.0579 49.0083C92.3431 48.615 91.6756 45.7769 92.0156 44.9837C92.6822 43.4284 92.0156 37.6156 92.0156 37.6156Z" fill="#D3785F"/>
<path d="M96.6712 38.1216C96.6712 38.1216 98.8082 34.6058 101.668 37.1966C104.107 39.4053 103.299 48.9686 99.7311 48.5005C97.0006 48.1422 96.3293 45.5566 96.6712 44.834C97.3415 43.4172 96.6712 38.1216 96.6712 38.1216Z" fill="#D3785F"/>
<path d="M101.186 40.0917C101.186 40.0917 103.009 37.4402 105.45 39.3941C107.531 41.0598 106.841 48.2723 103.797 47.9191C101.467 47.6489 100.894 45.699 101.186 45.1539C101.758 44.0855 101.186 40.0917 101.186 40.0917Z" fill="#D3785F"/>
<path d="M88.996 58.3551C88.996 58.3551 80.8179 53.3621 81.1772 47.3635C81.5364 41.3649 87.3803 39.6628 90.9789 40.338C94.5776 41.0131 94.3286 44.7088 93.1949 45.8424C91.8883 47.149 88.2192 45.7513 88.2192 45.7513L90.4122 50.1963L88.996 58.3551Z" fill="#D3785F"/>
<path d="M87.7483 42.3783C87.7483 42.3783 88.2172 37.1577 87.1181 28.5726C86.9683 27.4026 87.4816 26.2621 88.6234 25.9661C89.9388 25.6252 91.3034 26.3095 91.8158 27.568C93.2007 30.9687 94.054 35.8781 92.8831 42.2605L87.7483 42.3783Z" fill="#D3785F"/>
<path d="M103.709 54.776L87.2435 56.5785C86.4777 56.6624 85.9223 57.3472 85.9984 58.1138L86.5133 63.2992C86.5908 64.0796 87.2921 64.6454 88.0713 64.5562L104.938 62.623C105.745 62.5305 106.305 61.7757 106.16 60.9769L105.245 55.9222C105.113 55.1963 104.443 54.6957 103.709 54.776Z" fill="#E6EFE8"/>
<path d="M60.961 73.67C67.6739 73.67 73.1157 69.9413 73.1157 65.3417C73.1157 65.119 73.1026 64.8983 73.0776 64.6799L63.967 62.4551L55.067 63.2694L48.8203 64.9444C48.8112 65.076 48.8062 65.2084 48.8062 65.3415C48.8063 69.9413 54.2482 73.67 60.961 73.67Z" fill="#D3785F"/>
<path d="M46.6288 39C46.6288 31.102 52.7502 24.1035 60.6688 24.1035C68.5874 24.1035 74.7088 30.5061 74.7088 38.4041C74.7088 46.3021 67.4456 50.3681 61.8846 49.8675C56.8918 49.4182 46.6288 46.898 46.6288 39Z" fill="#313259"/>
<path d="M66.6431 50.5397L66.4104 68.0634L53.5549 67.4341L55.1255 49.7168L66.6431 50.5397Z" fill="url(#paint13_linear_287_17555)"/>
<path d="M49.8759 40.5599C49.5245 29.9942 55.0947 26.4082 61.5324 26.4082C67.97 26.4082 73.1144 29.7709 73.1144 39.815C73.1144 47.6308 69.3642 54.7115 61.5324 54.7115C53.3887 55.0855 50.1356 48.3713 49.8759 40.5599Z" fill="#D3785F"/>
<path d="M65.1158 46.7754C63.6749 46.7743 61.2945 47.5674 60.2823 49.0774C59.3314 50.4957 63.3304 50.5452 64.9229 49.5569C66.2909 48.7079 67.383 46.7772 65.1158 46.7754Z" fill="#313259"/>
<path d="M57.4905 42.9916C57.4905 41.2078 59.0951 39.7617 61.0745 39.7617C63.054 39.7617 64.6585 41.2077 64.6585 42.9916" stroke="#F991B9" stroke-width="2.23529" stroke-miterlimit="10" stroke-linecap="round" stroke-linejoin="round"/>
<path d="M68.8835 46.1017C71.9772 46.1017 74.4852 43.5938 74.4852 40.5001C74.4852 37.4064 71.9772 34.8984 68.8835 34.8984C65.7898 34.8984 63.2819 37.4064 63.2819 40.5001C63.2819 43.5938 65.7898 46.1017 68.8835 46.1017Z" fill="url(#paint14_linear_287_17555)" stroke="#F991B9" stroke-width="1.17647" stroke-miterlimit="10" stroke-linecap="round" stroke-linejoin="round"/>
<path d="M53.3645 46.4084C56.4582 46.4084 58.9661 43.9004 58.9661 40.8067C58.9661 37.713 56.4582 35.2051 53.3645 35.2051C50.2708 35.2051 47.7628 37.713 47.7628 40.8067C47.7628 43.9004 50.2708 46.4084 53.3645 46.4084Z" fill="url(#paint15_linear_287_17555)" stroke="#F991B9" stroke-width="1.17647" stroke-miterlimit="10" stroke-linecap="round" stroke-linejoin="round"/>
<path d="M61.139 44.1675C62.1306 44.1675 62.9343 43.3973 62.9343 42.447C62.9343 41.4969 62.1306 40.7266 61.139 40.7266" stroke="#313259" stroke-width="1.17647" stroke-miterlimit="10" stroke-linecap="round" stroke-linejoin="round"/>
<path d="M97.6949 37.6758C98.7277 39.3726 99.3251 48.1952 95.3558 48.5627C93.5897 48.7263 92.5864 47.4625 92.1642 46.3399" stroke="#313259" stroke-width="1.17647" stroke-miterlimit="10" stroke-linecap="round" stroke-linejoin="round"/>
<path d="M102.639 38.8945C103.749 42.3905 103.072 48.473 99.7312 48.5018C97.808 48.5184 97.3474 47.4204 97.3474 47.4204" stroke="#313259" stroke-width="1.17647" stroke-miterlimit="10" stroke-linecap="round" stroke-linejoin="round"/>
<path d="M93.4359 36.041V41.864" stroke="#313259" stroke-width="1.17647" stroke-miterlimit="10" stroke-linecap="round" stroke-linejoin="round"/>
<path d="M92.8607 50.2002L88.2198 45.7551C88.2198 45.7551 91.889 47.1529 93.1956 45.8463C94.3292 44.7127 94.5783 41.0169 90.9796 40.3418C90.0401 40.1656 88.9475 40.1514 87.8394 40.3334" stroke="#313259" stroke-width="1.17647" stroke-miterlimit="10" stroke-linecap="round" stroke-linejoin="round"/>
<path d="M107.681 22.5954L50.333 82.8978H27.1271L85.4577 21.5625H104.178C105.47 21.5625 106.672 21.9413 107.681 22.5954Z" fill="url(#paint16_linear_287_17555)"/>
<path d="M20.5826 70.2193V47.6578L43.6509 21.5625H66.8563L20.5826 70.2193Z" fill="url(#paint17_linear_287_17555)"/>
<path d="M267.301 98.6008H205.957C203.121 98.6008 200.822 96.3019 200.822 93.4662V50.7596C200.822 47.9238 203.121 45.625 205.957 45.625H267.301C270.137 45.625 272.436 47.9238 272.436 50.7596V93.4662C272.436 96.3019 270.137 98.6008 267.301 98.6008Z" fill="#71DBA3"/>
<path d="M240.488 82.601C240.488 82.601 228.331 84.2231 221.927 86.4359C214.518 88.9963 212.73 95.8565 212.307 98.6012H267.301C270.137 98.6012 272.436 96.3024 272.436 93.4666V79.5322L259.658 78.6406C259.658 78.6406 254.006 82.8145 248.581 83.534C243.662 84.1863 240.488 82.601 240.488 82.601Z" fill="url(#paint18_linear_287_17555)"/>
<path d="M243.466 80.3859C243.466 80.3859 245.744 83.6404 251.391 81.7871C256.415 80.1381 254.524 77.1672 254.524 77.1672L248.673 70.3066L239.057 74.7372L243.466 80.3859Z" fill="url(#paint19_linear_287_17555)"/>
<path d="M239.857 51.6311C239.857 51.6311 235.8 51.8267 233.927 57.1178C233.138 59.347 232.015 63.7526 231.833 64.8792C231.447 67.2753 230.266 71.5989 232.291 73.6242C235.546 76.8794 243.136 76.0956 247.481 72.4387C251.161 69.3414 251.942 67.4047 251.995 65.5066C252.048 63.6273 251.906 58.8103 251.906 58.8103C251.859 54.8316 248.621 51.6309 244.642 51.6309H239.857V51.6311Z" fill="#FFB8A9"/>
<path d="M256.366 61.2561C256.366 61.2561 256.099 69.7082 251.41 73.5189L247.66 69.3416L247.695 60.6191L256.366 61.2561Z" fill="#313259"/>
<path d="M236.261 69.3418C236.261 69.3418 234.548 70.7457 232.244 70.1713" stroke="#313259" stroke-width="1.17647" stroke-miterlimit="10" stroke-linecap="round" stroke-linejoin="round"/>
<path d="M245.05 90.9899L259.659 78.6388L255.534 78.351L254.525 77.168L243.467 80.3867L244.707 81.9761C244.707 81.9761 243.008 82.2091 240.489 82.599L245.05 90.9899Z" fill="#F4D240"/>
<path d="M234.379 67.4526L231.005 66.7932C230.057 66.6081 229.44 65.6901 229.625 64.7428C229.81 63.7955 230.728 63.1778 231.675 63.3628L235.049 64.0222C235.996 64.2074 236.614 65.1253 236.429 66.0726C236.244 67.0199 235.326 67.6378 234.379 67.4526Z" fill="#FFB8A9"/>
<path d="M248.984 69.341C250.647 69.341 251.996 67.9927 251.996 66.3297C251.996 64.6666 250.647 63.3184 248.984 63.3184C247.321 63.3184 245.973 64.6666 245.973 66.3297C245.973 67.9927 247.321 69.341 248.984 69.341Z" fill="#FFB8A9"/>
<path d="M258.234 64.4389C258.234 64.4389 259.385 52.3602 245.303 49.8713C232.79 47.6597 231.513 59.7748 231.513 59.7748L236.977 61.1982L239.18 58.6239L240.267 62.0462L243.157 60.1382L243.987 63.0458L249.418 64.3687L251.099 62.0003L252.684 64.6813L258.234 64.4389Z" fill="#313259"/>
<path d="M249.819 65.0078L247.345 67.0911L249.457 68.2675L249.819 65.0078Z" fill="url(#paint20_linear_287_17555)"/>
<path d="M253.271 49.6152H270.213L223.273 98.5897H206.331L253.271 49.6152Z" fill="url(#paint21_linear_287_17555)"/>
<path d="M200.822 90.4211V72.6694L226.635 45.623H243.577L227.652 62.3095L200.822 90.4211Z" fill="url(#paint22_linear_287_17555)"/>
<path d="M194.178 176.972H98.8767C97.441 176.972 96.277 175.808 96.277 174.372V170.654C96.277 169.219 97.441 168.055 98.8767 168.055H194.178C195.613 168.055 196.777 169.219 196.777 170.654V174.372C196.777 175.808 195.613 176.972 194.178 176.972Z" fill="url(#paint23_linear_287_17555)"/>
<path d="M187.266 176.973H103.956C102.272 176.973 100.87 175.68 100.734 174.002L95.4707 109.224C95.1432 105.193 98.3266 101.74 102.371 101.74H188.193C192.21 101.74 195.384 105.148 195.099 109.155L190.491 173.969C190.371 175.661 188.963 176.973 187.266 176.973Z" fill="url(#paint24_linear_287_17555)"/>
<path d="M116.721 155.396C122.387 155.396 126.98 150.802 126.98 145.136C126.98 139.47 122.387 134.877 116.721 134.877C111.055 134.877 106.461 139.47 106.461 145.136C106.461 150.802 111.055 155.396 116.721 155.396Z" stroke="#FFF9E9" stroke-width="1.17647" stroke-miterlimit="10" stroke-linecap="round" stroke-linejoin="round"/>
<path d="M118.77 155.179C121.959 154.528 123.627 149.501 122.495 143.949C121.363 138.397 117.86 134.424 114.671 135.074C111.481 135.725 109.814 140.752 110.946 146.304C112.078 151.856 115.581 155.829 118.77 155.179Z" stroke="#FFF9E9" stroke-width="1.17647" stroke-miterlimit="10" stroke-linecap="round" stroke-linejoin="round"/>
<path d="M106.572 143.716L125.509 139.855" stroke="#FFF9E9" stroke-width="1.17647" stroke-miterlimit="10" stroke-linecap="round" stroke-linejoin="round"/>
<path d="M114.671 135.084L118.77 155.189" stroke="#FFF9E9" stroke-width="1.17647" stroke-miterlimit="10" stroke-linecap="round" stroke-linejoin="round"/>
<path d="M107.923 150.421L126.876 146.557" stroke="#FFF9E9" stroke-width="1.17647" stroke-miterlimit="10" stroke-linecap="round" stroke-linejoin="round"/>
<path d="M141.796 131.362L112.611 140.253C111.022 140.737 109.342 139.841 108.858 138.252L105.531 127.333C105.047 125.744 105.943 124.063 107.532 123.579L136.716 114.688C138.305 114.204 139.986 115.1 140.47 116.689L143.797 127.608C144.281 129.197 143.385 130.878 141.796 131.362Z" fill="#519BE5"/>
<path d="M115.07 126.487L117.226 133.562L115.007 134.237L114.167 131.48L112.059 132.122L112.899 134.88L110.681 135.555L108.526 128.481L110.744 127.805L111.52 130.353L113.629 129.711L112.852 127.163L115.07 126.487ZM118.827 127.276L119.091 128.145L121.29 127.475L121.798 129.144L119.6 129.814L119.904 130.813L122.402 130.052L122.941 131.82L118.225 133.257L116.07 126.183L120.786 124.746L121.325 126.515L118.827 127.276ZM125.487 129.21L127.625 128.559L128.137 130.238L123.78 131.565L121.625 124.491L123.843 123.815L125.487 129.21ZM130.543 127.67L132.681 127.019L133.192 128.697L128.836 130.025L126.681 122.95L128.899 122.275L130.543 127.67ZM135.384 127.593C134.732 127.449 134.159 127.151 133.664 126.697C133.169 126.244 132.816 125.671 132.605 124.978C132.394 124.285 132.368 123.613 132.526 122.961C132.684 122.308 132.993 121.742 133.455 121.263C133.917 120.784 134.481 120.443 135.147 120.24C135.813 120.037 136.47 120.006 137.117 120.148C137.765 120.289 138.334 120.587 138.826 121.041C139.317 121.496 139.668 122.069 139.879 122.762C140.09 123.455 140.119 124.127 139.964 124.778C139.809 125.43 139.502 125.997 139.041 126.479C138.58 126.962 138.02 127.303 137.36 127.504C136.694 127.707 136.035 127.737 135.384 127.593ZM137.62 124.701C137.774 124.345 137.777 123.927 137.631 123.447C137.483 122.961 137.246 122.613 136.92 122.403C136.594 122.193 136.211 122.154 135.771 122.288C135.325 122.424 135.025 122.67 134.872 123.026C134.718 123.383 134.715 123.804 134.863 124.29C135.01 124.77 135.246 125.115 135.572 125.325C135.898 125.535 136.284 125.572 136.73 125.436C137.17 125.302 137.466 125.057 137.62 124.701Z" fill="#DBE7DE"/>
<path d="M171.814 156.644L157.979 147.693C156.393 146.666 155.939 144.548 156.965 142.961L163.786 132.419C164.813 130.832 166.931 130.378 168.518 131.405L182.353 140.356C183.94 141.383 184.394 143.502 183.367 145.089L176.546 155.63C175.52 157.217 173.401 157.671 171.814 156.644Z" fill="#85A8CB"/>
<path d="M162.606 147.539L159.819 145.736C159.114 145.28 158.912 144.338 159.368 143.633L165.348 134.39C165.805 133.685 166.746 133.483 167.452 133.94L170.238 135.742C170.943 136.199 171.145 137.14 170.689 137.846L164.709 147.088C164.253 147.794 163.311 147.995 162.606 147.539Z" fill="#313259"/>
<path d="M172.801 154.135L167.29 150.569C166.658 150.16 166.477 149.316 166.886 148.684L169.603 144.484C170.012 143.852 170.856 143.671 171.488 144.08L176.999 147.646C177.632 148.055 177.812 148.899 177.403 149.531L174.686 153.731C174.277 154.363 173.433 154.544 172.801 154.135Z" fill="#FFF9E9"/>
<path d="M178.657 145.816L172.479 141.819C172.031 141.529 171.903 140.93 172.193 140.482L173.253 138.844C173.543 138.396 174.141 138.268 174.589 138.557L180.767 142.555C181.215 142.845 181.343 143.443 181.054 143.891L179.994 145.529C179.704 145.977 179.105 146.106 178.657 145.816Z" fill="#F991B9"/>
<path d="M179.831 117.756C183.164 122.555 179.387 130.943 171.397 136.492C163.406 142.041 154.227 142.649 150.894 137.85C147.562 133.051 151.338 124.663 159.329 119.114C167.32 113.565 176.499 112.957 179.831 117.756Z" fill="#79C9B4"/>
<path d="M143.864 148.618C142.583 148.726 141.601 150.224 141.286 152.276C138.992 151.948 136.395 152.376 133.966 153.65C131.744 154.814 130.025 156.497 128.956 158.363C127.232 157.63 125.628 157.655 124.866 158.579C123.761 159.918 124.848 162.639 127.293 164.656C127.584 164.897 127.882 165.115 128.181 165.313C128.271 165.542 128.373 165.768 128.489 165.989C130.639 170.09 136.578 171.215 141.753 168.501C146.786 165.862 149.243 160.565 147.396 156.504C147.52 155.756 147.556 154.931 147.483 154.07C147.214 150.912 145.594 148.471 143.864 148.618Z" fill="#5640FA"/>
<path d="M134.492 162.829C134.831 162.652 134.796 161.917 134.415 161.19C134.033 160.462 133.449 160.016 133.11 160.194C132.771 160.372 132.805 161.106 133.187 161.833C133.569 162.561 134.153 163.007 134.492 162.829Z" fill="#FFF9E9"/>
<path d="M141.896 158.948C142.235 158.771 142.2 158.037 141.818 157.309C141.437 156.581 140.853 156.135 140.514 156.313C140.175 156.491 140.209 157.225 140.591 157.953C140.973 158.68 141.557 159.126 141.896 158.948Z" fill="#FFF9E9"/>
<path d="M136.832 161.616L139.594 160.168" stroke="#FFF9E9" stroke-width="1.17647" stroke-miterlimit="10" stroke-linecap="round" stroke-linejoin="round"/>
<defs>
<linearGradient id="paint0_linear_287_17555" x1="148.455" y1="241.365" x2="146.156" y2="-87.1048" gradientUnits="userSpaceOnUse">
<stop offset="0.1154" stop-color="white" stop-opacity="0"/>
<stop offset="0.1538" stop-color="#ECF2EE" stop-opacity="0.3246"/>
<stop offset="0.1951" stop-color="#DFEAE2" stop-opacity="0.6731"/>
<stop offset="0.2338" stop-color="#DBE7DE"/>
</linearGradient>
<linearGradient id="paint1_linear_287_17555" x1="208.303" y1="33.9277" x2="208.303" y2="190.328" gradientUnits="userSpaceOnUse">
<stop offset="0.1365" stop-color="#94EDC8"/>
<stop offset="0.6682" stop-color="#44AE8E"/>
<stop offset="0.9662" stop-color="#1C8E79"/>
</linearGradient>
<linearGradient id="paint2_linear_287_17555" x1="208.624" y1="121.291" x2="159.765" y2="144.9" gradientUnits="userSpaceOnUse">
<stop offset="0.0314" stop-color="#6C9ED8" stop-opacity="0"/>
<stop offset="0.0873" stop-color="#6692CA" stop-opacity="0.1622"/>
<stop offset="0.1926" stop-color="#5573A6" stop-opacity="0.4679"/>
<stop offset="0.3352" stop-color="#39416B" stop-opacity="0.8816"/>
<stop offset="0.376" stop-color="#313259"/>
</linearGradient>
<linearGradient id="paint3_linear_287_17555" x1="155.104" y1="33.4461" x2="155.104" y2="192.017" gradientUnits="userSpaceOnUse">
<stop offset="0.1365" stop-color="#94EDCD"/>
<stop offset="0.6682" stop-color="#44AE9B"/>
<stop offset="0.9662" stop-color="#1C8E79"/>
</linearGradient>
<linearGradient id="paint4_linear_287_17555" x1="225.722" y1="133.423" x2="217.343" y2="187.77" gradientUnits="userSpaceOnUse">
<stop offset="0.0617" stop-color="#EA929A" stop-opacity="0"/>
<stop offset="0.0866" stop-color="#E58F98" stop-opacity="0.1217"/>
<stop offset="0.1172" stop-color="#D68793" stop-opacity="0.2712"/>
<stop offset="0.1508" stop-color="#BD7B8A" stop-opacity="0.4353"/>
<stop offset="0.1865" stop-color="#9A687E" stop-opacity="0.6098"/>
<stop offset="0.2239" stop-color="#6D516E" stop-opacity="0.7926"/>
<stop offset="0.2622" stop-color="#37355B" stop-opacity="0.9797"/>
<stop offset="0.2664" stop-color="#313259"/>
</linearGradient>
<linearGradient id="paint5_linear_287_17555" x1="224.687" y1="132.396" x2="216.308" y2="186.743" gradientUnits="userSpaceOnUse">
<stop offset="0.0617" stop-color="#FFB8A9" stop-opacity="0"/>
<stop offset="0.0866" stop-color="#E58F98" stop-opacity="0.1217"/>
<stop offset="0.1172" stop-color="#D68793" stop-opacity="0.2712"/>
<stop offset="0.1508" stop-color="#BD7B8A" stop-opacity="0.4353"/>
<stop offset="0.1865" stop-color="#9A687E" stop-opacity="0.6098"/>
<stop offset="0.2239" stop-color="#6D516E" stop-opacity="0.7926"/>
<stop offset="0.2622" stop-color="#37355B" stop-opacity="0.9797"/>
<stop offset="0.2664" stop-color="#313259"/>
</linearGradient>
<linearGradient id="paint6_linear_287_17555" x1="98.535" y1="35.4041" x2="98.535" y2="185.262" gradientUnits="userSpaceOnUse">
<stop offset="0.1365" stop-color="#94EDCD"/>
<stop offset="0.6682" stop-color="#44AE9B"/>
<stop offset="0.9662" stop-color="#1C8E79"/>
</linearGradient>
<linearGradient id="paint7_linear_287_17555" x1="99.5786" y1="118.196" x2="150.24" y2="142.675" gradientUnits="userSpaceOnUse">
<stop offset="0.0314" stop-color="#6C9ED8" stop-opacity="0"/>
<stop offset="0.0873" stop-color="#6692CA" stop-opacity="0.1622"/>
<stop offset="0.1926" stop-color="#5573A6" stop-opacity="0.4679"/>
<stop offset="0.3352" stop-color="#39416B" stop-opacity="0.8816"/>
<stop offset="0.376" stop-color="#313259"/>
</linearGradient>
<linearGradient id="paint8_linear_287_17555" x1="85.444" y1="135.208" x2="88.3924" y2="178.705" gradientUnits="userSpaceOnUse">
<stop stop-color="#FFB8A9" stop-opacity="0"/>
<stop offset="0.0481" stop-color="#E79099" stop-opacity="0.1956"/>
<stop offset="0.0849" stop-color="#DD8B96" stop-opacity="0.3451"/>
<stop offset="0.118" stop-color="#CD8390" stop-opacity="0.4794"/>
<stop offset="0.1488" stop-color="#B67788" stop-opacity="0.6046"/>
<stop offset="0.1781" stop-color="#98677D" stop-opacity="0.7236"/>
<stop offset="0.2063" stop-color="#735470" stop-opacity="0.838"/>
<stop offset="0.233" stop-color="#493E61" stop-opacity="0.9467"/>
<stop offset="0.2461" stop-color="#313259"/>
</linearGradient>
<linearGradient id="paint9_linear_287_17555" x1="153.846" y1="89.723" x2="154.187" y2="72.1602" gradientUnits="userSpaceOnUse">
<stop offset="0.0278" stop-color="#EA929A"/>
<stop offset="0.2146" stop-color="#E79099"/>
<stop offset="0.3598" stop-color="#DD8B95"/>
<stop offset="0.4909" stop-color="#CD8390"/>
<stop offset="0.6138" stop-color="#B57787"/>
<stop offset="0.731" stop-color="#97677D"/>
<stop offset="0.8438" stop-color="#725470"/>
<stop offset="0.9512" stop-color="#473E61"/>
<stop offset="1" stop-color="#313259"/>
</linearGradient>
<linearGradient id="paint10_linear_287_17555" x1="212.966" y1="73.9318" x2="198.846" y2="15.7795" gradientUnits="userSpaceOnUse">
<stop offset="0.0104" stop-color="#DBE7DE"/>
<stop offset="0.3583" stop-color="#D9E6DD"/>
<stop offset="0.4836" stop-color="#D2E2DA"/>
<stop offset="0.5729" stop-color="#C7DCD5"/>
<stop offset="0.6452" stop-color="#B6D2CE"/>
<stop offset="0.7071" stop-color="#A0C6C5"/>
<stop offset="0.7619" stop-color="#84B7BA"/>
<stop offset="0.8114" stop-color="#64A6AC"/>
<stop offset="0.8555" stop-color="#40929D"/>
<stop offset="0.8913" stop-color="#1C7E8E"/>
</linearGradient>
<linearGradient id="paint11_linear_287_17555" x1="105.874" y1="61.0756" x2="18.7811" y2="100.29" gradientUnits="userSpaceOnUse">
<stop offset="0.0226" stop-color="#F991B9"/>
<stop offset="0.3174" stop-color="#FBBBCC"/>
<stop offset="0.6051" stop-color="#FDDDDC"/>
<stop offset="0.8425" stop-color="#FFF2E6"/>
<stop offset="1" stop-color="#FFF9E9"/>
</linearGradient>
<linearGradient id="paint12_linear_287_17555" x1="44.462" y1="65.2178" x2="59.922" y2="11.3192" gradientUnits="userSpaceOnUse">
<stop offset="0.1074" stop-color="#DBE7DE"/>
<stop offset="0.1768" stop-color="#B4BEC0"/>
<stop offset="0.2524" stop-color="#9199A4"/>
<stop offset="0.3345" stop-color="#73798D"/>
<stop offset="0.423" stop-color="#5B5F7A"/>
<stop offset="0.5202" stop-color="#484B6B"/>
<stop offset="0.6309" stop-color="#3B3D61"/>
<stop offset="0.7664" stop-color="#33345B"/>
<stop offset="0.9987" stop-color="#313259"/>
</linearGradient>
<linearGradient id="paint13_linear_287_17555" x1="60.1637" y1="72.1615" x2="60.0455" y2="48.1194" gradientUnits="userSpaceOnUse">
<stop offset="0.0278" stop-color="#D3785F"/>
<stop offset="0.2922" stop-color="#D1775F"/>
<stop offset="0.4452" stop-color="#C8735F"/>
<stop offset="0.5697" stop-color="#BA6D5E"/>
<stop offset="0.6791" stop-color="#A6655D"/>
<stop offset="0.7783" stop-color="#8D5A5C"/>
<stop offset="0.8704" stop-color="#6D4C5B"/>
<stop offset="0.9552" stop-color="#483C5A"/>
<stop offset="1" stop-color="#313259"/>
</linearGradient>
<linearGradient id="paint14_linear_287_17555" x1="64.4098" y1="48.7808" x2="72.5385" y2="33.7348" gradientUnits="userSpaceOnUse">
<stop offset="0.1366" stop-color="#94BDED"/>
<stop offset="0.1514" stop-color="#9AC1ED"/>
<stop offset="0.236" stop-color="#B9D2EC"/>
<stop offset="0.3288" stop-color="#D3E0EB"/>
<stop offset="0.4313" stop-color="#E7EBEA"/>
<stop offset="0.5486" stop-color="#F4F3E9"/>
<stop offset="0.6937" stop-color="#FDF8E9"/>
<stop offset="0.9499" stop-color="#FFF9E9"/>
</linearGradient>
<linearGradient id="paint15_linear_287_17555" x1="46.2613" y1="50.2267" x2="58.6846" y2="33.7514" gradientUnits="userSpaceOnUse">
<stop offset="0.0391" stop-color="#94BDED"/>
<stop offset="0.5059" stop-color="#CDDDEB"/>
<stop offset="0.9499" stop-color="#FFF9E9"/>
</linearGradient>
<linearGradient id="paint16_linear_287_17555" x1="69.8513" y1="9.57285" x2="64.2884" y2="107.716" gradientUnits="userSpaceOnUse">
<stop stop-color="#FFF9E9"/>
<stop offset="0.1448" stop-color="#D1EFD2" stop-opacity="0.7009"/>
<stop offset="0.376" stop-color="#8CE1B0" stop-opacity="0.2235"/>
<stop offset="0.4842" stop-color="#71DBA3" stop-opacity="0"/>
</linearGradient>
<linearGradient id="paint17_linear_287_17555" x1="44.9731" y1="12.4925" x2="40.6321" y2="89.0793" gradientUnits="userSpaceOnUse">
<stop stop-color="#FFF9E9"/>
<stop offset="0.1448" stop-color="#D1EFD2" stop-opacity="0.7009"/>
<stop offset="0.376" stop-color="#8CE1B0" stop-opacity="0.2235"/>
<stop offset="0.4842" stop-color="#71DBA3" stop-opacity="0"/>
</linearGradient>
<linearGradient id="paint18_linear_287_17555" x1="209.045" y1="77.3795" x2="294.615" y2="107.388" gradientUnits="userSpaceOnUse">
<stop offset="0.2683" stop-color="#3B7EFF"/>
<stop offset="0.4003" stop-color="#3F5EFF"/>
<stop offset="0.5306" stop-color="#644BFE"/>
<stop offset="0.6603" stop-color="#6C5FFD"/>
<stop offset="0.7896" stop-color="#757AFC"/>
<stop offset="0.9174" stop-color="#8598FA"/>
<stop offset="1" stop-color="#9991F9"/>
</linearGradient>
<linearGradient id="paint19_linear_287_17555" x1="250.966" y1="81.3381" x2="240.263" y2="67.5335" gradientUnits="userSpaceOnUse">
<stop offset="0.0278" stop-color="#FFB8A9"/>
<stop offset="0.2594" stop-color="#FDB7A8"/>
<stop offset="0.3712" stop-color="#F5B2A5"/>
<stop offset="0.4573" stop-color="#E8A9A0"/>
<stop offset="0.5303" stop-color="#D69D99"/>
<stop offset="0.5949" stop-color="#BE8D90"/>
<stop offset="0.6537" stop-color="#A07A84"/>
<stop offset="0.708" stop-color="#7D6376"/>
<stop offset="0.7574" stop-color="#554967"/>
<stop offset="0.7954" stop-color="#313259"/>
</linearGradient>
<linearGradient id="paint20_linear_287_17555" x1="252.225" y1="68.5147" x2="244.519" y2="63.3002" gradientUnits="userSpaceOnUse">
<stop offset="0.3555" stop-color="#FFB8A9"/>
<stop offset="0.4134" stop-color="#FDB7A8"/>
<stop offset="0.4413" stop-color="#F5B2A5"/>
<stop offset="0.4629" stop-color="#E8A9A0"/>
<stop offset="0.4811" stop-color="#D69D99"/>
<stop offset="0.4973" stop-color="#BE8D90"/>
<stop offset="0.512" stop-color="#A07A84"/>
<stop offset="0.5256" stop-color="#7D6376"/>
<stop offset="0.5379" stop-color="#554967"/>
<stop offset="0.5474" stop-color="#313259"/>
</linearGradient>
<linearGradient id="paint21_linear_287_17555" x1="236.332" y1="108.321" x2="240.785" y2="29.7688" gradientUnits="userSpaceOnUse">
<stop stop-color="#FFF9E9"/>
<stop offset="0.1448" stop-color="#D1EFD2" stop-opacity="0.7009"/>
<stop offset="0.376" stop-color="#8CE1B0" stop-opacity="0.2235"/>
<stop offset="0.4842" stop-color="#71DBA3" stop-opacity="0"/>
</linearGradient>
<linearGradient id="paint22_linear_287_17555" x1="223.44" y1="37.2717" x2="219.442" y2="107.797" gradientUnits="userSpaceOnUse">
<stop stop-color="#FFF9E9"/>
<stop offset="0.1448" stop-color="#D1EFD2" stop-opacity="0.7009"/>
<stop offset="0.376" stop-color="#8CE1B0" stop-opacity="0.2235"/>
<stop offset="0.4842" stop-color="#71DBA3" stop-opacity="0"/>
</linearGradient>
<linearGradient id="paint23_linear_287_17555" x1="151.364" y1="240.686" x2="144.203" y2="139.756" gradientUnits="userSpaceOnUse">
<stop offset="0.5113" stop-color="#313259"/>
<stop offset="0.526" stop-color="#373B63"/>
<stop offset="0.5515" stop-color="#465280"/>
<stop offset="0.5848" stop-color="#5F79AD"/>
<stop offset="0.6186" stop-color="#7CA6E3"/>
<stop offset="0.9762" stop-color="#DBE7DE"/>
</linearGradient>
<linearGradient id="paint24_linear_287_17555" x1="103.579" y1="192.827" x2="190.691" y2="77.3034" gradientUnits="userSpaceOnUse">
<stop offset="0.0099" stop-color="#7CA6E3"/>
<stop offset="0.0596" stop-color="#8AAFE2"/>
<stop offset="0.1868" stop-color="#A7C3E1"/>
<stop offset="0.322" stop-color="#BED3E0"/>
<stop offset="0.467" stop-color="#CEDEDF"/>
<stop offset="0.629" stop-color="#D8E5DE"/>
<stop offset="0.8422" stop-color="#DBE7DE"/>
</linearGradient>
</defs>
</svg>
