<svg width="275" height="220" viewBox="0 0 275 220" fill="none" xmlns="http://www.w3.org/2000/svg">
<path d="M247.069 51.1738H181.649C180.434 51.1738 179.449 52.1588 179.449 53.3738V95.1892C179.449 96.4043 180.434 97.3892 181.649 97.3892H247.069C248.284 97.3892 249.269 96.4043 249.269 95.1892V53.3738C249.269 52.1588 248.284 51.1738 247.069 51.1738Z" fill="url(#paint0_linear_287_17469)"/>
<path d="M217.979 69.1309H185.554C184.947 69.1309 184.454 69.6233 184.454 70.2309V74.1805C184.454 74.788 184.947 75.2805 185.554 75.2805H217.979C218.586 75.2805 219.079 74.788 219.079 74.1805V70.2309C219.079 69.6233 218.586 69.1309 217.979 69.1309Z" stroke="#FFF9E9" stroke-width="1.1" stroke-linecap="round" stroke-linejoin="round"/>
<path d="M218.129 79.5H185.704C185.097 79.5 184.604 79.9925 184.604 80.6V84.5497C184.604 85.1572 185.097 85.6497 185.704 85.6497H218.129C218.736 85.6497 219.229 85.1572 219.229 84.5497V80.6C219.229 79.9925 218.736 79.5 218.129 79.5Z" fill="url(#paint1_linear_287_17469)"/>
<path d="M240.418 60.582H242.528C243.069 60.582 243.507 61.0204 243.507 61.561V63.6707" stroke="#5640FA" stroke-width="1.1" stroke-linecap="round" stroke-linejoin="round"/>
<path d="M237.698 60.582H235.589C235.048 60.582 234.61 61.0204 234.61 61.561V63.6707" stroke="#5640FA" stroke-width="1.1" stroke-linecap="round" stroke-linejoin="round"/>
<path d="M243.507 66.3906V68.5003C243.507 69.041 243.069 69.4793 242.528 69.4793H240.419" stroke="#5640FA" stroke-width="1.1" stroke-linecap="round" stroke-linejoin="round"/>
<path d="M237.698 69.4793H235.589C235.048 69.4793 234.61 69.041 234.61 68.5003V66.3906" stroke="#5640FA" stroke-width="1.1" stroke-linecap="round" stroke-linejoin="round"/>
<path d="M218.129 58.4609H185.705C185.097 58.4609 184.605 58.9534 184.605 59.5609V63.5106C184.605 64.1181 185.097 64.6106 185.705 64.6106H218.129C218.736 64.6106 219.229 64.1181 219.229 63.5106V59.5609C219.229 58.9534 218.736 58.4609 218.129 58.4609Z" fill="#FFF9E9"/>
<path d="M196.578 58.4609H191.791C190.092 58.4609 188.716 59.8376 188.716 61.5358C188.716 63.2339 190.092 64.6106 191.791 64.6106H196.578C198.276 64.6106 199.653 63.2339 199.653 61.5358C199.653 59.8376 198.276 58.4609 196.578 58.4609Z" fill="url(#paint2_linear_287_17469)"/>
<path d="M108.145 71.6311L143.761 76.4931C143.677 77.0937 143.578 77.691 143.463 78.2839C140.799 92.1032 130.095 103.765 115.556 106.827C96.2478 110.891 77.0154 98.3479 72.9498 79.0407C68.8853 59.7324 81.4286 40.5 100.736 36.4355L108.145 71.6311Z" fill="url(#paint3_linear_287_17469)"/>
<path d="M108.146 71.6313L100.736 36.4355C81.4282 40.5005 68.8853 59.7333 72.9502 79.0411C73.9017 83.5606 75.6846 87.7095 78.1047 91.3615L108.146 71.6313H108.146Z" fill="url(#paint4_linear_287_17469)"/>
<path d="M115.556 106.826C120.979 105.685 125.869 103.346 130.007 100.145L108.146 71.6309L78.1046 91.3611C86.0234 103.311 100.767 109.94 115.556 106.826Z" fill="url(#paint5_linear_287_17469)"/>
<path d="M143.341 64.2215C142.159 58.6052 139.649 53.3527 136.023 48.9043L108.146 71.6314L143.574 77.6735C144.334 73.3256 144.3 68.7758 143.341 64.2216L143.341 64.2215Z" fill="url(#paint6_linear_287_17469)"/>
<path d="M168.825 38.3945H145.213C144.605 38.3945 144.113 38.887 144.113 39.4945V42.6056C144.113 43.2131 144.605 43.7056 145.213 43.7056H168.825C169.433 43.7056 169.925 43.2131 169.925 42.6056V39.4945C169.925 38.887 169.433 38.3945 168.825 38.3945Z" fill="url(#paint7_linear_287_17469)"/>
<path d="M140.842 41.0508H125.48L118.297 48.2339" stroke="#94BDED" stroke-width="1.1" stroke-linecap="round" stroke-linejoin="round"/>
<path d="M89.9698 132.744H76.1434C75.5359 132.744 75.0434 133.237 75.0434 133.844V147.67C75.0434 148.278 75.5359 148.77 76.1434 148.77H89.9698C90.5773 148.77 91.0698 148.278 91.0698 147.67V133.844C91.0698 133.237 90.5773 132.744 89.9698 132.744Z" fill="url(#paint8_linear_287_17469)"/>
<path d="M82.8883 139.162H69.062C68.4544 139.162 67.962 139.655 67.962 140.262V154.088C67.962 154.696 68.4544 155.188 69.062 155.188H82.8883C83.4958 155.188 83.9883 154.696 83.9883 154.088V140.262C83.9883 139.655 83.4958 139.162 82.8883 139.162Z" fill="#FFF9E9"/>
<path d="M75.8069 145.578H61.9806C61.3731 145.578 60.8806 146.071 60.8806 146.678V160.504C60.8806 161.112 61.3731 161.604 61.9806 161.604H75.8069C76.4144 161.604 76.9069 161.112 76.9069 160.504V146.678C76.9069 146.071 76.4144 145.578 75.8069 145.578Z" stroke="#94BDED" stroke-width="1.1" stroke-linecap="round" stroke-linejoin="round"/>
<path d="M94.2093 57.0312H28.2612C27.0462 57.0312 26.0612 58.0162 26.0612 59.2313V102.347C26.0612 103.562 27.0462 104.547 28.2612 104.547H94.2093C95.4243 104.547 96.4093 103.562 96.4093 102.347V59.2313C96.4093 58.0162 95.4243 57.0312 94.2093 57.0312Z" fill="url(#paint9_linear_287_17469)"/>
<path d="M30.4094 61.7922C31.1185 61.7922 31.6932 61.2174 31.6932 60.5084C31.6932 59.7994 31.1185 59.2246 30.4094 59.2246C29.7004 59.2246 29.1256 59.7994 29.1256 60.5084C29.1256 61.2174 29.7004 61.7922 30.4094 61.7922Z" fill="#FF593B"/>
<path d="M34.4832 61.7922C35.1922 61.7922 35.767 61.2174 35.767 60.5084C35.767 59.7994 35.1922 59.2246 34.4832 59.2246C33.7742 59.2246 33.1994 59.7994 33.1994 60.5084C33.1994 61.2174 33.7742 61.7922 34.4832 61.7922Z" fill="#F4D240"/>
<path d="M38.5569 61.7922C39.266 61.7922 39.8408 61.2174 39.8408 60.5084C39.8408 59.7994 39.266 59.2246 38.5569 59.2246C37.8479 59.2246 37.2731 59.7994 37.2731 60.5084C37.2731 61.2174 37.8479 61.7922 38.5569 61.7922Z" fill="#1C7E8E"/>
<path d="M36.9939 95.9412C38.0574 95.9412 38.9195 95.079 38.9195 94.0155C38.9195 92.952 38.0574 92.0898 36.9939 92.0898C35.9303 92.0898 35.0682 92.952 35.0682 94.0155C35.0682 95.079 35.9303 95.9412 36.9939 95.9412Z" stroke="#94BDED" stroke-width="1.1" stroke-linecap="round" stroke-linejoin="round"/>
<path d="M41.7147 92.7793H65.5354V95.2516H41.7147V92.7793Z" stroke="#94BDED" stroke-width="1.1" stroke-linecap="round" stroke-linejoin="round"/>
<path d="M36.9939 101.433C38.0574 101.433 38.9195 100.571 38.9195 99.5077C38.9195 98.4442 38.0574 97.582 36.9939 97.582C35.9303 97.582 35.0682 98.4442 35.0682 99.5077C35.0682 100.571 35.9303 101.433 36.9939 101.433Z" stroke="#94BDED" stroke-width="1.1" stroke-linecap="round" stroke-linejoin="round"/>
<path d="M41.7147 98.2715H65.5354V100.744H41.7147V98.2715Z" stroke="#94BDED" stroke-width="1.1" stroke-linecap="round" stroke-linejoin="round"/>
<path d="M87.3453 82.7461H36.0259C34.8109 82.7461 33.8259 83.7311 33.8259 84.9461V87.3791C33.8259 88.5941 34.8109 89.5791 36.0259 89.5791H87.3453C88.5603 89.5791 89.5453 88.5941 89.5453 87.3791V84.9461C89.5453 83.7311 88.5603 82.7461 87.3453 82.7461Z" fill="#94BDED"/>
<path d="M33.8259 80.2307C33.8259 80.2307 35.824 79.8993 37.2733 73.1182C38.9195 65.4157 44.2617 64.2354 46.4357 73.9257C48.3804 82.5933 52.3517 77.8082 53.6252 73.6148C54.8462 69.5938 58.7972 66.9989 60.9092 74.7954C62.7821 81.7094 68.2472 79.3299 69.6677 72.1244C71.0802 64.9596 77.0597 64.3597 79.0785 72.6834C80.8869 80.1397 89.6696 79.3921 89.5454 72.4039" stroke="#1C7E8E" stroke-width="0.66" stroke-linecap="round" stroke-linejoin="round"/>
<path d="M74.2105 68.9609C75.185 68.9609 75.9751 68.1708 75.9751 67.1963C75.9751 66.2217 75.185 65.4316 74.2105 65.4316C73.2359 65.4316 72.4458 66.2217 72.4458 67.1963C72.4458 68.1708 73.2359 68.9609 74.2105 68.9609Z" fill="#5640FA"/>
<path d="M238.271 78.3385C239.006 77.9937 240.766 78.3812 240.683 80.6324C240.6 82.8835 236.124 84.5073 233.437 85.0914C230.75 85.6754 229.528 82.442 238.271 78.3386V78.3385Z" fill="#FFABA0"/>
<path d="M238.048 73.7474C238.747 73.3346 240.536 73.5542 240.666 75.803C240.796 78.052 236.493 80.0914 233.874 80.9266C231.254 81.7618 229.732 78.6582 238.048 73.7474Z" fill="#FFABA0"/>
<path d="M237.036 69.1574C237.788 68.6983 239.719 68.9507 239.868 71.4666C240.017 73.9825 235.382 76.2473 232.559 77.1715C229.735 78.0958 228.081 74.6188 237.036 69.1574Z" fill="#FFABA0"/>
<path d="M236.82 63.3357L227.809 70.3193C226.801 71.1008 226.617 72.5518 227.399 73.5602C228.18 74.5686 229.631 74.7525 230.639 73.971L239.65 66.9874C240.659 66.2059 240.843 64.7549 240.061 63.7465C239.28 62.7381 237.829 62.5542 236.82 63.3357Z" fill="#FFABA0"/>
<path d="M232.975 68.8027C232.907 67.1934 231.436 65.0222 226.956 66.5125C223.342 67.7146 219.884 71.0755 218.941 73.1461C217.998 75.2166 233.238 75.1275 232.975 68.8027Z" fill="#FFABA0"/>
<path d="M227.414 69.1504C222.154 69.1504 218.066 73.9566 215.054 76.9706C213.083 78.942 210.857 81.1698 210.857 84.1226C210.857 87.9384 213.951 91.0318 217.767 91.0318C218.576 91.0318 219.353 90.8912 220.075 90.6354C220.075 90.6354 232.99 85.9591 235.943 84.1229C238.897 82.2867 235.048 69.1504 227.414 69.1504Z" fill="#FFABA0"/>
<path d="M232.179 66.9316L227.281 70.625" stroke="#313259" stroke-width="0.55" stroke-linecap="round" stroke-linejoin="round"/>
<path d="M237.036 69.1562L232.978 72.3519" stroke="#313259" stroke-width="0.55" stroke-linecap="round" stroke-linejoin="round"/>
<path d="M238.939 73.5781L235.259 76.5358" stroke="#313259" stroke-width="0.55" stroke-linecap="round" stroke-linejoin="round"/>
<path d="M239.176 78.2637L235.687 80.5516" stroke="#313259" stroke-width="0.55" stroke-linecap="round" stroke-linejoin="round"/>
<path d="M228.143 69.9746H226.204" stroke="#313259" stroke-width="0.55" stroke-linecap="round" stroke-linejoin="round"/>
<path d="M218.21 98.1008L210.164 78.4844C210.164 78.4844 162.978 88.0037 157.264 89.1721C150.879 90.4777 145.744 93.6917 143.544 98.6391C143.25 99.2999 142.233 101.519 142.384 104.306C142.787 111.767 151.131 116.725 154.174 118.534C165.744 125.411 190.819 116.609 218.21 98.1009L218.21 98.1008Z" fill="#75D0AD"/>
<path d="M208.904 78.1306L217.11 98.8503C217.333 99.4152 217.973 99.6917 218.537 99.468L223.288 97.5868C223.852 97.3631 224.129 96.7239 223.905 96.1591L215.7 75.4393C215.476 74.8745 214.837 74.5979 214.272 74.8216L209.522 76.7028C208.957 76.9265 208.68 77.5657 208.904 78.1306Z" fill="#FFF9E9"/>
<path d="M215.002 93.6907L222.016 91.1855" stroke="#313259" stroke-width="0.55" stroke-linecap="round" stroke-linejoin="round"/>
<path d="M68.8491 94.7924L60.7878 86.7311C59.8856 85.829 58.423 85.829 57.5209 86.7311C56.6188 87.6332 56.6188 89.0958 57.5209 89.9979L65.5822 98.0592C66.4843 98.9613 67.9469 98.9613 68.8491 98.0592C69.7512 97.1571 69.7512 95.6945 68.8491 94.7924Z" fill="#FFABA0"/>
<path d="M65.0148 96.6712L56.5743 89.0079C55.6297 88.1503 54.1688 88.2208 53.3112 89.1653C52.4536 90.1099 52.5241 91.5708 53.4687 92.4284L61.9092 100.092C62.8538 100.949 64.3147 100.879 65.1723 99.9342C66.0298 98.9897 65.9593 97.5288 65.0148 96.6712Z" fill="#FFABA0"/>
<path d="M62.2433 99.6702L53.7738 94.1311C52.7824 93.4827 51.453 93.7608 50.8046 94.7522L50.6842 94.9363C50.0358 95.9278 50.3139 97.2571 51.3053 97.9055L59.7748 103.445C60.7662 104.093 62.0956 103.815 62.744 102.824L62.8644 102.639C63.5128 101.648 63.2348 100.319 62.2433 99.6702Z" fill="#FFABA0"/>
<path d="M60.19 103.106L52.8547 98.8712C51.8551 98.294 50.5769 98.6365 49.9997 99.6362L49.9447 99.7314C49.3676 100.731 49.7101 102.009 50.7097 102.586L58.045 106.821C59.0446 107.399 60.3228 107.056 60.8999 106.056L60.9549 105.961C61.5321 104.962 61.1896 103.683 60.19 103.106Z" fill="#FFABA0"/>
<path d="M67.7629 88.8372L67.8626 88.7909C68.9094 88.3044 69.9944 88.6561 70.6388 89.8054C71.3642 91.099 72.9809 93.0187 74.1931 95.1057C74.7083 95.9926 75.5982 99.3795 73.1943 100.263L73.0946 100.309C72.0478 100.795 70.8049 100.341 70.3184 99.2944L66.7484 91.6134C66.2619 90.5667 66.7161 89.3238 67.7629 88.8372Z" fill="#FFABA0"/>
<path d="M57.9811 106.836C61.1988 110.522 63.9031 113.103 68.3374 114.025C72.7717 114.947 75.9698 108.448 76.5644 105.35C76.7818 104.218 76.6709 98.5529 73.8383 94.5943C71.3405 91.1036 63.7395 95.5365 60.4953 99.1282C57.2509 102.72 56.3712 104.992 57.9811 106.836Z" fill="#FFABA0"/>
<path d="M67.7557 93.7812L68.6427 95.0777" stroke="#313259" stroke-width="0.55" stroke-linecap="round" stroke-linejoin="round"/>
<path d="M57.1724 89.5508L63.797 95.7154" stroke="#313259" stroke-width="0.55" stroke-linecap="round" stroke-linejoin="round"/>
<path d="M53.1487 99.0449L58.1838 102.034" stroke="#313259" stroke-width="0.55" stroke-linecap="round" stroke-linejoin="round"/>
<path d="M99.8568 115.172C95.6565 112.172 82.6754 103.23 82.6754 103.23L68.247 119.651C82.8781 136.709 94.5898 140.509 99.2122 140.79C105.859 141.194 109.154 137.985 109.154 131.074C109.154 124.163 104.391 118.41 99.8568 115.172Z" fill="#75D0AD"/>
<path d="M123.476 91.2657C120.729 89.3269 112.408 91.4655 106.989 97.8223C100.785 105.099 97.0304 109.811 93.7355 116.519C87.9558 128.286 86.9081 136.487 92.9299 139.123C98.9518 141.759 110.844 143.396 118.772 129.566C121.616 124.603 131.442 96.8893 123.476 91.2657Z" fill="#75D0AD"/>
<path d="M78.5555 98.983L63.5752 115.482C63.1668 115.932 63.2004 116.628 63.6502 117.036L67.4328 120.471C67.8826 120.879 68.5782 120.845 68.9866 120.396L83.9669 103.896C84.3752 103.446 84.3417 102.751 83.8919 102.342L80.1093 98.908C79.6595 98.4996 78.9638 98.5332 78.5555 98.983Z" fill="#FFF9E9"/>
<path d="M67.2752 111.314L72.6161 116.506" stroke="#313259" stroke-width="0.55" stroke-linecap="round" stroke-linejoin="round"/>
<path d="M158.863 128.884C164.118 136.011 164.152 141.539 168.565 160.893C170.792 170.658 172.899 178.532 174.303 183.565H145.431L140.314 153.373L137.119 153.3L136.243 183.564H109.154C109.508 175.801 110.045 168.941 110.528 163.983C111.807 150.849 113.117 144.653 113.79 141.704C115.361 134.826 116.147 131.387 117.906 128.518C118.384 127.738 125.883 115.915 138.155 115.918C149.307 115.92 156.506 125.686 158.863 128.884L158.863 128.884Z" fill="#313259"/>
<path d="M142.925 153.437L134.718 153.244" stroke="#FFF9E9" stroke-width="0.55" stroke-linecap="round" stroke-linejoin="round"/>
<path d="M161.053 130.072C163.602 126.172 163.997 121.82 163.542 113.223C162.993 102.834 160.705 94.4536 158.777 88.8672C153.904 89.2568 148.989 89.2555 144.153 89.9709C139.179 90.7067 122.656 87.4706 115.319 91.7644C113.809 99.3812 110.049 125.891 116.066 132.261C119.249 135.632 155.546 138.495 161.053 130.072L161.053 130.072Z" fill="#78D7B3"/>
<path d="M146.418 70.0839C146.418 70.0839 150.642 70.1987 150.913 75.8562C151.184 81.5137 150.974 85.6574 146.844 85.9106C142.713 86.1637 137.033 81.3067 137.239 75.525C137.445 69.7433 146.418 70.0839 146.418 70.0839Z" fill="#FFB4A5"/>
<path d="M148.665 82.7644C148.665 82.7644 147.426 82.6131 146.442 81.6289" stroke="#313259" stroke-width="0.55" stroke-linecap="round" stroke-linejoin="round"/>
<path d="M141.284 75.6901C141.284 75.6901 146.371 76.9058 148.894 73.5588C151.417 70.2119 151.879 66.5901 149.228 65.7703C146.379 64.8894 144.658 67.5556 142.518 67.5556C139.045 67.5556 135.598 66.8034 132.67 68.7915C129.131 71.1939 127.531 75.7238 128.452 78.6204C130.017 83.5452 130.653 85.5745 127.055 87.4435C123.458 89.3126 117.395 88.8273 116.975 93.3966C116.554 97.966 120.238 103.796 125.819 103.242C131.4 102.688 133.226 98.7822 138.117 100.775C143.007 102.768 149.713 98.6302 148.448 93.5898C147.182 88.5494 142.658 84.5659 142.37 82.0433C142.083 79.5208 140.798 78.7188 140.798 78.7188L141.284 75.6899L141.284 75.6901Z" fill="url(#paint10_linear_287_17469)"/>
<mask id="mask0_287_17469" style="mask-type:luminance" maskUnits="userSpaceOnUse" x="116" y="65" width="36" height="39">
<path d="M141.284 75.6901C141.284 75.6901 146.371 76.9058 148.894 73.5588C151.417 70.2119 151.878 66.5901 149.227 65.7703C146.378 64.8894 144.658 67.5556 142.518 67.5556C139.045 67.5556 135.598 66.8034 132.669 68.7915C129.13 71.1939 127.531 75.7238 128.451 78.6204C130.016 83.5452 130.652 85.5745 127.055 87.4435C123.458 89.3126 117.395 88.8273 116.974 93.3966C116.554 97.966 120.238 103.796 125.819 103.242C131.4 102.688 133.226 98.7822 138.116 100.775C143.007 102.768 149.713 98.6302 148.447 93.5898C147.182 88.5494 142.657 84.5659 142.37 82.0433C142.083 79.5208 140.797 78.7188 140.797 78.7188L141.284 75.6899L141.284 75.6901Z" fill="white"/>
</mask>
<g mask="url(#mask0_287_17469)">
<path d="M145.707 66.1895C145.707 66.1895 147.056 73.3146 141.275 72.1894" stroke="#1C7E8E" stroke-width="0.55" stroke-linecap="round" stroke-linejoin="round"/>
<path d="M148.69 65.5586C148.69 65.5586 150.081 69.2124 147.548 71.7461C145.014 74.2798 141.122 73.5359 141.122 73.5359" stroke="#1C7E8E" stroke-width="0.55" stroke-linecap="round" stroke-linejoin="round"/>
<path d="M137.747 69.5469C137.747 69.5469 134.423 69.7255 132.855 72.4105C130.312 76.7641 133.28 79.0701 133.918 81.6531C134.82 85.308 133.538 88.2494 126.126 87.6455" stroke="#1C7E8E" stroke-width="0.55" stroke-linecap="round" stroke-linejoin="round"/>
<path d="M138.154 71.5195C138.154 71.5195 134.305 72.635 136.32 78.9124C138.336 85.1898 137.777 90.4037 133.588 92.0698C129.399 93.736 123.155 92.4974 120.9 96.037C118.645 99.5767 121.142 102.624 121.142 102.624" stroke="#1C7E8E" stroke-width="0.55" stroke-linecap="round" stroke-linejoin="round"/>
<path d="M139.951 80.1016C139.951 80.1016 142.685 87.6465 138.461 91.2623C134.238 94.8781 130.254 95.3215 129.449 98.5874C128.649 101.829 133.11 101.341 133.11 101.341" stroke="#1C7E8E" stroke-width="0.55" stroke-linecap="round" stroke-linejoin="round"/>
<path d="M141.688 80.1016C141.688 80.1016 146.326 90.7669 143.279 94.8389C139.064 100.471 135.445 100.678 135.445 100.678" stroke="#1C7E8E" stroke-width="0.55" stroke-linecap="round" stroke-linejoin="round"/>
</g>
<path d="M151.189 77.8867H148.582C147.849 77.8867 147.256 78.4803 147.256 79.2124C147.256 79.9446 147.849 80.5382 148.582 80.5382H151.189C151.922 80.5382 152.515 79.9446 152.515 79.2124C152.515 78.4803 151.922 77.8867 151.189 77.8867Z" fill="#FFB4A5"/>
<path d="M141.111 77.4109C141.603 75.7561 142.305 72.0476 140.654 67.5017C140.601 67.3561 140.462 67.2598 140.307 67.2598H136.811C136.549 67.2598 136.37 67.5261 136.469 67.7693L140.414 77.4436C140.546 77.7666 141.011 77.7453 141.111 77.4109H141.111Z" fill="#5640FA"/>
<path d="M140.403 81.1252C141.991 81.1252 143.279 79.8375 143.279 78.2491C143.279 76.6607 141.991 75.373 140.403 75.373C138.814 75.373 137.527 76.6607 137.527 78.2491C137.527 79.8375 138.814 81.1252 140.403 81.1252Z" fill="#FFB4A5"/>
<path d="M139.606 76.9883L141.969 78.9781L139.952 80.1016L139.606 76.9883Z" fill="url(#paint11_linear_287_17469)"/>
<path d="M212.513 178.16H143.9C143.063 178.16 142.384 178.839 142.384 179.676V182.049C142.384 182.886 143.063 183.565 143.9 183.565H212.513C213.35 183.565 214.029 182.886 214.029 182.049V179.676C214.029 178.839 213.35 178.16 212.513 178.16Z" fill="#7CA6E3"/>
<path d="M171.861 183.564H176.168C177.067 183.564 177.867 182.993 178.159 182.143L190.749 145.543C191.219 144.175 190.204 142.752 188.758 142.752H184.451C183.552 142.752 182.752 143.323 182.46 144.173L169.87 180.773C169.399 182.14 170.415 183.564 171.861 183.564Z" fill="#7CA6E3"/>
<path d="M173.217 183.564H212.526C213.425 183.564 214.225 182.993 214.517 182.143L227.107 145.543C227.578 144.175 226.562 142.752 225.116 142.752H188.758C187.859 142.752 187.059 143.323 186.767 144.173L173.217 183.564Z" fill="url(#paint12_linear_287_17469)"/>
<path d="M248.939 183.564H26.0612" stroke="#313259" stroke-width="1.1" stroke-linecap="round" stroke-linejoin="round"/>
<defs>
<linearGradient id="paint0_linear_287_17469" x1="231.942" y1="50.6303" x2="178.049" y2="123.123" gradientUnits="userSpaceOnUse">
<stop offset="0.03" stop-color="#FFF9E9"/>
<stop offset="0.184" stop-color="#F7F4E9"/>
<stop offset="0.416" stop-color="#E2E8EA"/>
<stop offset="0.699" stop-color="#C0D5EB"/>
<stop offset="1" stop-color="#94BDED"/>
</linearGradient>
<linearGradient id="paint1_linear_287_17469" x1="188.884" y1="70.2469" x2="220.526" y2="100.179" gradientUnits="userSpaceOnUse">
<stop offset="0.064" stop-color="#94BDED"/>
<stop offset="0.183" stop-color="#91BBEA"/>
<stop offset="0.269" stop-color="#87B6E3"/>
<stop offset="0.346" stop-color="#77AED6"/>
<stop offset="0.416" stop-color="#61A2C4"/>
<stop offset="0.483" stop-color="#4493AD"/>
<stop offset="0.546" stop-color="#218092"/>
<stop offset="0.554" stop-color="#1C7E8E"/>
</linearGradient>
<linearGradient id="paint2_linear_287_17469" x1="195.286" y1="50.4128" x2="192.448" y2="79.0713" gradientUnits="userSpaceOnUse">
<stop offset="0.223" stop-color="#1C7E8E"/>
<stop offset="0.234" stop-color="#368CA3"/>
<stop offset="0.249" stop-color="#539BBA"/>
<stop offset="0.265" stop-color="#6BA7CC"/>
<stop offset="0.284" stop-color="#7DB1DB"/>
<stop offset="0.306" stop-color="#8AB7E5"/>
<stop offset="0.336" stop-color="#91BBEB"/>
<stop offset="0.399" stop-color="#94BDED"/>
<stop offset="0.433" stop-color="#91BBEA"/>
<stop offset="0.459" stop-color="#87B6E3"/>
<stop offset="0.481" stop-color="#77AED6"/>
<stop offset="0.502" stop-color="#60A2C4"/>
<stop offset="0.522" stop-color="#4392AD"/>
<stop offset="0.54" stop-color="#208091"/>
<stop offset="0.543" stop-color="#1C7E8E"/>
</linearGradient>
<linearGradient id="paint3_linear_287_17469" x1="79.8228" y1="59.8038" x2="140.797" y2="97.947" gradientUnits="userSpaceOnUse">
<stop offset="0.659" stop-color="#1C7E8E"/>
<stop offset="0.723" stop-color="#1F7285"/>
<stop offset="0.837" stop-color="#275370"/>
<stop offset="0.941" stop-color="#313259"/>
</linearGradient>
<linearGradient id="paint4_linear_287_17469" x1="120.352" y1="39.3585" x2="52.9518" y2="91.8399" gradientUnits="userSpaceOnUse">
<stop offset="0.331" stop-color="#94BDED"/>
<stop offset="0.383" stop-color="#90BAE9"/>
<stop offset="0.433" stop-color="#84B4E0"/>
<stop offset="0.483" stop-color="#70AAD1"/>
<stop offset="0.532" stop-color="#559CBB"/>
<stop offset="0.581" stop-color="#3289A0"/>
<stop offset="0.607" stop-color="#1C7E8E"/>
</linearGradient>
<linearGradient id="paint5_linear_287_17469" x1="136.901" y1="84.8071" x2="62.766" y2="97.9205" gradientUnits="userSpaceOnUse">
<stop offset="0.254" stop-color="#FFF9E9"/>
<stop offset="0.357" stop-color="#FFF6E6"/>
<stop offset="0.429" stop-color="#FFEEDD"/>
<stop offset="0.491" stop-color="#FFDFCD"/>
<stop offset="0.548" stop-color="#FFCBB7"/>
<stop offset="0.601" stop-color="#FFB19B"/>
<stop offset="0.651" stop-color="#FF9178"/>
<stop offset="0.698" stop-color="#FF6C50"/>
<stop offset="0.72" stop-color="#FF593B"/>
</linearGradient>
<linearGradient id="paint6_linear_287_17469" x1="107.095" y1="32.9279" x2="141.672" y2="94.7159" gradientUnits="userSpaceOnUse">
<stop offset="0.527" stop-color="#FFF9E9"/>
<stop offset="0.569" stop-color="#FFF6E6"/>
<stop offset="0.599" stop-color="#FFEEDD"/>
<stop offset="0.625" stop-color="#FFDFCD"/>
<stop offset="0.649" stop-color="#FFCBB7"/>
<stop offset="0.671" stop-color="#FFB19B"/>
<stop offset="0.692" stop-color="#FF9178"/>
<stop offset="0.711" stop-color="#FF6C50"/>
<stop offset="0.72" stop-color="#FF593B"/>
</linearGradient>
<linearGradient id="paint7_linear_287_17469" x1="145.729" y1="28.6476" x2="179.769" y2="66.0421" gradientUnits="userSpaceOnUse">
<stop stop-color="#FFF9E9"/>
<stop offset="0.162" stop-color="#D7E2EA"/>
<stop offset="0.338" stop-color="#B2CEEB"/>
<stop offset="0.48" stop-color="#9CC1EC"/>
<stop offset="0.571" stop-color="#94BDED"/>
</linearGradient>
<linearGradient id="paint8_linear_287_17469" x1="113.166" y1="116.613" x2="63.1498" y2="156.72" gradientUnits="userSpaceOnUse">
<stop offset="0.438" stop-color="#FFF9E9"/>
<stop offset="0.477" stop-color="#FFF0DF"/>
<stop offset="0.541" stop-color="#FFD9C7"/>
<stop offset="0.623" stop-color="#FFB49E"/>
<stop offset="0.718" stop-color="#FF8167"/>
<stop offset="0.786" stop-color="#FF593B"/>
</linearGradient>
<linearGradient id="paint9_linear_287_17469" x1="55.8381" y1="58.9877" x2="72.7431" y2="127.274" gradientUnits="userSpaceOnUse">
<stop offset="0.127" stop-color="#FFF9E9"/>
<stop offset="0.367" stop-color="#FCF7E9"/>
<stop offset="0.514" stop-color="#F3F2E9"/>
<stop offset="0.636" stop-color="#E5EAE9"/>
<stop offset="0.745" stop-color="#D1DFEA"/>
<stop offset="0.843" stop-color="#B6D0EB"/>
<stop offset="0.935" stop-color="#96BEEC"/>
<stop offset="0.942" stop-color="#94BDED"/>
</linearGradient>
<linearGradient id="paint10_linear_287_17469" x1="108.198" y1="113.801" x2="156.372" y2="67.8554" gradientUnits="userSpaceOnUse">
<stop offset="0.282" stop-color="#71DBA3"/>
<stop offset="0.327" stop-color="#73CDB3"/>
<stop offset="0.414" stop-color="#78B7CD"/>
<stop offset="0.492" stop-color="#7BAADD"/>
<stop offset="0.553" stop-color="#7CA6E3"/>
<stop offset="0.661" stop-color="#77BBC8"/>
<stop offset="0.777" stop-color="#73CDB3"/>
<stop offset="0.891" stop-color="#71D7A7"/>
<stop offset="1" stop-color="#71DBA3"/>
</linearGradient>
<linearGradient id="paint11_linear_287_17469" x1="137.309" y1="80.3378" x2="144.668" y2="75.3573" gradientUnits="userSpaceOnUse">
<stop offset="0.355" stop-color="#FFB4A5"/>
<stop offset="0.413" stop-color="#FCB2A4"/>
<stop offset="0.441" stop-color="#F5ADA1"/>
<stop offset="0.463" stop-color="#E8A59C"/>
<stop offset="0.481" stop-color="#D59995"/>
<stop offset="0.497" stop-color="#BD8A8C"/>
<stop offset="0.512" stop-color="#A07881"/>
<stop offset="0.526" stop-color="#7C6174"/>
<stop offset="0.538" stop-color="#554866"/>
<stop offset="0.547" stop-color="#313259"/>
</linearGradient>
<linearGradient id="paint12_linear_287_17469" x1="225.218" y1="143.391" x2="165.762" y2="191.213" gradientUnits="userSpaceOnUse">
<stop offset="0.297" stop-color="#FFF9E9"/>
<stop offset="0.439" stop-color="#FBF6E9"/>
<stop offset="0.574" stop-color="#EFF0E9"/>
<stop offset="0.706" stop-color="#DCE5EA"/>
<stop offset="0.835" stop-color="#C1D6EB"/>
<stop offset="0.962" stop-color="#9FC3EC"/>
<stop offset="1" stop-color="#94BDED"/>
</linearGradient>
</defs>
</svg>
