<svg width="248" height="220" viewBox="0 0 248 220" fill="none" xmlns="http://www.w3.org/2000/svg">
<g clip-path="url(#clip0_287_17370)">
<path d="M75.3408 47.2823H63.8173C63.209 47.2823 62.716 46.7893 62.716 46.1812V34.6597C62.716 34.0516 63.209 33.5586 63.8173 33.5586H75.3408C75.949 33.5586 76.442 34.0516 76.442 34.6597V46.1812C76.442 46.7893 75.949 47.2823 75.3408 47.2823Z" fill="url(#paint0_linear_287_17370)"/>
<path d="M84.5058 55.7599H69.5841C68.9759 55.7599 68.4828 55.2669 68.4828 54.6588V39.7398C68.4828 39.1316 68.9759 38.6387 69.5841 38.6387H84.5058C85.114 38.6387 85.607 39.1316 85.607 39.7398V54.6588C85.607 55.2669 85.114 55.7599 84.5058 55.7599Z" fill="#FFF9E9"/>
<path d="M89.7812 61.2858H78.2577C77.3469 61.2858 76.6058 60.5449 76.6058 59.6342V48.1126C76.6058 47.2019 77.3469 46.4609 78.2577 46.4609H89.7812C90.6921 46.4609 91.4332 47.2019 91.4332 48.1126V59.6341C91.4332 60.5449 90.6921 61.2858 89.7812 61.2858ZM78.2577 47.562C77.9541 47.562 77.7071 47.809 77.7071 48.1126V59.6341C77.7071 59.9376 77.9541 60.1846 78.2577 60.1846H89.7812C90.0849 60.1846 90.3319 59.9376 90.3319 59.6341V48.1126C90.3319 47.809 90.0849 47.562 89.7812 47.562H78.2577Z" fill="#C7E2CD"/>
</g>
<g clip-path="url(#clip1_287_17370)">
<path d="M191.062 86.9227H115.585C113.913 86.9227 112.558 85.5662 112.558 83.8928V28.5573C112.558 26.8838 113.913 25.5273 115.585 25.5273H191.062C192.734 25.5273 194.089 26.8838 194.089 28.5573V83.8928C194.089 85.566 192.734 86.9227 191.062 86.9227Z" fill="url(#paint1_linear_287_17370)"/>
<path d="M117.598 31.3044C118.42 31.3044 119.086 30.646 119.086 29.8339C119.086 29.0217 118.42 28.3633 117.598 28.3633C116.776 28.3633 116.11 29.0217 116.11 29.8339C116.11 30.646 116.776 31.3044 117.598 31.3044Z" fill="#FF593B"/>
<path d="M122.319 31.3044C123.141 31.3044 123.807 30.646 123.807 29.8339C123.807 29.0217 123.141 28.3633 122.319 28.3633C121.498 28.3633 120.831 29.0217 120.831 29.8339C120.831 30.646 121.498 31.3044 122.319 31.3044Z" fill="#F9E79B"/>
<path d="M127.041 31.3044C127.862 31.3044 128.528 30.646 128.528 29.8339C128.528 29.0217 127.862 28.3633 127.041 28.3633C126.219 28.3633 125.553 29.0217 125.553 29.8339C125.553 30.646 126.219 31.3044 127.041 31.3044Z" fill="#1C7E8E"/>
<path d="M174.22 75.9851H125.974C125.138 75.9851 124.461 75.3068 124.461 74.4701V57.6094C124.461 56.7727 125.138 56.0944 125.974 56.0944H174.22C175.056 56.0944 175.734 56.7727 175.734 57.6094V74.4701C175.734 75.3067 175.056 75.9851 174.22 75.9851ZM182.969 49.6192H125.804C125.448 49.6192 125.106 49.7608 124.854 50.0131C124.602 50.2653 124.461 50.6073 124.461 50.964C124.461 51.3207 124.602 51.6627 124.854 51.9149C125.106 52.1671 125.448 52.3088 125.804 52.3088H182.969C183.326 52.3088 183.667 52.1671 183.919 51.9149C184.171 51.6627 184.313 51.3207 184.313 50.964C184.313 50.6073 184.171 50.2653 183.919 50.0131C183.667 49.7608 183.326 49.6192 182.969 49.6192ZM182.969 44.0663H125.804C125.448 44.0663 125.106 44.208 124.854 44.4602C124.602 44.7124 124.461 45.0545 124.461 45.4112C124.461 45.7679 124.602 46.1099 124.854 46.3621C125.106 46.6143 125.448 46.756 125.804 46.756H182.969C183.326 46.756 183.667 46.6143 183.919 46.3621C184.171 46.1099 184.313 45.7679 184.313 45.4112C184.313 45.0545 184.171 44.7124 183.919 44.4602C183.667 44.208 183.326 44.0663 182.969 44.0663ZM182.969 38.5137H125.804C125.448 38.5137 125.106 38.6554 124.854 38.9076C124.602 39.1598 124.461 39.5018 124.461 39.8585C124.461 40.2152 124.602 40.5572 124.854 40.8095C125.106 41.0617 125.448 41.2033 125.804 41.2033H182.969C183.326 41.2033 183.667 41.0617 183.919 40.8095C184.171 40.5572 184.313 40.2152 184.313 39.8585C184.313 39.5018 184.171 39.1598 183.919 38.9076C183.667 38.6554 183.326 38.5137 182.969 38.5137Z" fill="#FFF9E9"/>
<path d="M112.558 68.4181V48.5303L136.485 25.5273H160.553L112.558 68.4181Z" fill="url(#paint2_linear_287_17370)"/>
</g>
<g clip-path="url(#clip2_287_17370)">
<path d="M147.863 57.3858C153.708 57.3858 158.446 52.643 158.446 46.7925C158.446 40.942 153.708 36.1992 147.863 36.1992C142.018 36.1992 137.28 40.942 137.28 46.7925C137.28 52.643 142.018 57.3858 147.863 57.3858Z" fill="#313259"/>
<path d="M147.144 58.1591C153.058 58.1591 157.853 53.36 157.853 47.4399C157.853 41.5199 153.058 36.7207 147.144 36.7207C141.23 36.7207 136.435 41.5199 136.435 47.4399C136.435 53.36 141.23 58.1591 147.144 58.1591Z" fill="#1C7E8E" fill-opacity="0.93"/>
<path d="M172.148 66.6121C171.716 67.1765 170.908 67.2834 170.344 66.8507L145.934 48.1204C145.37 47.6878 145.263 46.8794 145.695 46.3149C146.128 45.7505 146.935 45.6437 147.499 46.0763L171.91 64.8065C172.473 65.2394 172.58 66.0477 172.148 66.6121Z" fill="#1C7E8E" fill-opacity="0.93"/>
<path d="M155.012 51.51C154.771 51.9752 154.49 52.418 154.171 52.8333C153.65 53.516 153.032 54.119 152.337 54.6235C151.617 55.1451 150.822 55.5545 149.979 55.8375C148.468 56.3478 146.847 56.4416 145.287 56.109C144.042 55.843 142.834 55.3022 141.756 54.4745C139.171 52.4912 137.983 49.3623 138.355 46.3448C138.542 44.8317 139.122 43.3462 140.115 42.0471C140.128 42.0306 140.141 42.014 140.155 41.9975C140.699 41.2943 141.347 40.678 142.076 40.1698C143.226 39.3641 144.538 38.8586 145.894 38.6655C148.168 38.341 150.565 38.8962 152.532 40.4049C155.991 43.0592 156.95 47.7664 155.012 51.51Z" fill="#C7E2CD" fill-opacity="0.94"/>
<path d="M155.012 51.5086C154.771 51.9737 154.49 52.4166 154.171 52.8319C153.65 53.5145 153.032 54.1176 152.337 54.6221L142.076 40.1684C143.226 39.3627 144.538 38.8572 145.894 38.6641L155.012 51.5086Z" fill="url(#paint3_linear_287_17370)"/>
<path d="M149.979 55.8361C148.468 56.3464 146.847 56.4402 145.287 56.1077L138.355 46.3435C138.542 44.8303 139.122 43.3448 140.115 42.0458C140.129 42.0292 140.141 42.0126 140.155 41.9961L149.979 55.8361Z" fill="url(#paint4_linear_287_17370)"/>
</g>
<g clip-path="url(#clip3_287_17370)">
<path d="M124.661 97.0322V115.761C124.661 117.152 123.533 118.28 122.142 118.28H39.8206C38.428 118.28 37.2996 117.152 37.2996 115.761V97.0322C37.2996 95.6415 38.428 94.5137 39.8206 94.5137H122.142C123.533 94.5137 124.661 95.6415 124.661 97.0322Z" fill="url(#paint5_linear_287_17370)"/>
<path d="M56.6083 114.34H43.4681C42.7072 114.34 42.0905 113.724 42.0905 112.963V99.83C42.0905 99.0695 42.7073 98.4531 43.4681 98.4531H56.6083C57.3693 98.4531 57.986 99.0696 57.986 99.83V112.963C57.9861 113.724 57.3693 114.34 56.6083 114.34Z" fill="url(#paint6_linear_287_17370)"/>
<path d="M118.436 114.34H63.5136C62.721 114.34 62.0785 113.698 62.0785 112.906V99.8874C62.0785 99.0952 62.721 98.4531 63.5136 98.4531H118.436C119.228 98.4531 119.871 99.0952 119.871 99.8874V112.906C119.871 113.698 119.228 114.34 118.436 114.34Z" fill="url(#paint7_linear_287_17370)"/>
<path d="M51.9845 109.102C51.8597 109.102 51.7344 109.096 51.6086 109.084C50.5379 108.986 49.5696 108.477 48.8822 107.65C47.4631 105.945 47.6971 103.403 49.4037 101.985C51.1104 100.566 53.6534 100.8 55.0726 102.506C56.4917 104.212 56.2578 106.753 54.5511 108.172C53.8214 108.778 52.9218 109.102 51.9845 109.102ZM51.9749 102.156C51.2927 102.156 50.6318 102.394 50.1076 102.831C48.8677 103.861 48.6977 105.708 49.7287 106.947C50.2282 107.547 50.9316 107.917 51.7095 107.989C52.4873 108.061 53.2465 107.825 53.8472 107.326C55.0871 106.295 55.2571 104.449 54.2261 103.209C53.6486 102.515 52.8146 102.156 51.9749 102.156Z" fill="#FF593B"/>
<path d="M44.6244 111.739C44.5112 111.739 44.4007 111.704 44.308 111.64C44.2153 111.575 44.145 111.483 44.1065 111.376C44.068 111.27 44.0632 111.154 44.0929 111.045C44.1225 110.936 44.1852 110.838 44.2722 110.766L48.6886 107.096C48.8008 107.003 48.9456 106.958 49.091 106.971C49.2363 106.984 49.3704 107.055 49.4638 107.167C49.5571 107.279 49.602 107.424 49.5886 107.569C49.5752 107.715 49.5046 107.849 49.3924 107.942L44.976 111.612C44.8773 111.694 44.7529 111.739 44.6244 111.739Z" fill="#FF593B"/>
<path d="M73.0317 94.5137L58.127 118.28H44.1988L59.1035 94.5137H73.0317Z" fill="url(#paint8_linear_287_17370)"/>
<path d="M105.863 94.5137L90.9582 118.28H74.1237L89.0284 94.5137H105.863Z" fill="url(#paint9_linear_287_17370)"/>
</g>
<g clip-path="url(#clip4_287_17370)">
<path d="M163.111 54.7506C161.73 54.1189 158.856 55.2114 157.648 57.0227C156.441 58.8341 154.831 63.7217 155.003 65.0729C154.06 66.6038 152.33 69.0692 152.33 69.0692L162.65 74.3593L164.95 70.938C164.95 70.938 166.33 69.0477 167.451 67.3515C168.572 65.6552 170.125 62.7155 170.125 62.7155L162.708 56.0165L163.111 54.7506Z" fill="#FFABA0"/>
<path d="M92.7508 56.4844C87.1147 56.4844 82.2359 58.4798 77.833 62.3169C76.0111 63.9047 68.4123 70.2219 61.0027 76.1096C56.9763 79.309 56.7221 85.3343 60.464 88.8624C63.074 91.3233 66.954 91.866 70.1389 90.2156L86.8129 80.6201L92.7508 56.4844Z" fill="#72D2AF"/>
<path d="M88.1233 94.5836C85.2421 98.7395 82.2356 102.501 79.1133 105.899L60.4063 89.2283C56.9942 86.1876 56.7185 80.9469 59.7927 77.5648C63.0047 74.0313 68.5415 73.9704 71.8304 77.4325L88.1233 94.5836ZM123.82 58.8203C128.296 59.4379 133.212 61.7236 136.619 66.4674C138.029 68.4305 143.978 76.3207 149.842 83.7495C153.028 87.7864 151.895 93.7097 147.445 96.2865C144.34 98.084 140.439 97.7231 137.717 95.3869L124.07 83.6747L123.82 58.8203Z" fill="#72D2AF"/>
<path d="M152.524 65.7695C156.985 68.1494 161.07 70.6996 164.807 73.4069L150.42 93.9232C147.796 97.6653 142.623 98.5471 138.908 95.8856C135.026 93.1049 134.323 87.6121 137.38 83.9435L152.524 65.7695Z" fill="#72D2AF"/>
<path d="M155.003 65.0728C154.838 62.3272 155.851 57.0946 156.671 55.0676C157.707 52.5045 159.729 50.9632 160.88 51.6933C161.759 52.25 161.864 53.6875 161.103 54.712C159.679 56.6294 160.092 61.5939 160.092 61.5939C160.092 61.5939 155.096 66.6112 155.003 65.0728Z" fill="#FFABA0"/>
<path d="M162.086 54.6224C162.628 54.4123 163.478 54.6458 163.892 55.1252C164.307 55.6046 164.329 56.3427 164.27 56.8935C164.21 57.4443 163.964 57.9374 163.676 58.3919C163.201 59.1417 162.363 60.2388 161.661 60.8072C161.314 61.0882 160.927 61.3504 160.449 61.4257C159.971 61.501 159.383 61.346 159.055 60.9484C158.649 60.4554 159.019 59.3947 159.211 58.8825C159.832 57.2288 160.401 55.2762 162.086 54.6224Z" fill="#FFABA0"/>
<path d="M164.838 55.9933C165.517 55.8293 166.367 56.2102 166.836 56.8102C168.137 58.4731 165.035 62.7813 163.374 63.3642C162.277 63.7496 160.875 62.8008 161.686 60.5377C162.404 58.5345 162.756 56.4963 164.838 55.9933Z" fill="#FFABA0"/>
<path d="M167.171 58.2147C167.814 58.0609 168.609 58.3782 169.043 58.8924C170.246 60.3179 167.365 64.0306 165.687 64.6523C164.806 64.9785 163.194 63.9485 164.135 62.2209C165.166 60.3298 165.201 58.6868 167.171 58.2147Z" fill="#FFABA0"/>
<path d="M168.92 60.3926C169.439 60.2172 170.121 60.4263 170.52 60.827C171.625 61.9374 169.945 64.9404 168.197 65.9054C167.257 66.4244 166.186 65.5357 166.725 63.9753C167.245 62.4697 167.329 60.9309 168.92 60.3926Z" fill="#FFABA0"/>
<path d="M160.212 61.7195C159.74 61.7195 159.191 61.547 158.843 61.124C158.412 60.6014 158.464 59.7201 158.985 58.7062C159.223 58.2437 159.362 57.7533 159.509 57.234C159.779 56.2778 160.059 55.289 160.991 54.4876C161.018 54.4633 161.05 54.4447 161.084 54.4328C161.119 54.421 161.156 54.4161 161.192 54.4186C161.229 54.421 161.264 54.4307 161.297 54.4471C161.33 54.4634 161.359 54.4861 161.383 54.5139C161.406 54.5416 161.425 54.5738 161.436 54.6086C161.447 54.6434 161.451 54.6801 161.448 54.7166C161.445 54.753 161.435 54.7885 161.418 54.8209C161.401 54.8533 161.378 54.8821 161.35 54.9055C160.544 55.5987 160.298 56.4659 160.039 57.384C159.891 57.9065 159.738 58.4469 159.475 58.9582C159.065 59.7553 158.988 60.434 159.268 60.7737C159.548 61.1141 160.054 61.2096 160.406 61.1541C160.831 61.0872 161.177 60.8451 161.487 60.5938C162.147 60.0593 162.964 59.0017 163.443 58.2451C163.779 57.7153 163.949 57.2894 163.996 56.8643C164.033 56.5221 164.043 56.0304 163.879 55.6313C163.852 55.5637 163.852 55.4878 163.88 55.4204C163.908 55.353 163.962 55.2996 164.03 55.2719C164.097 55.2442 164.173 55.2445 164.241 55.2727C164.308 55.301 164.362 55.3548 164.389 55.4225C164.556 55.8287 164.607 56.3338 164.543 56.9239C164.472 57.5815 164.167 58.133 163.909 58.5401C163.389 59.3601 162.546 60.4454 161.834 61.022C161.482 61.3075 161.047 61.6112 160.492 61.6986C160.403 61.7122 160.309 61.7195 160.212 61.7195Z" fill="#313259"/>
<path d="M162.887 63.7243C162.474 63.7243 162.072 63.5749 161.764 63.2918C161.434 62.989 160.934 62.2742 161.29 60.8876C161.299 60.8526 161.315 60.8197 161.337 60.7907C161.359 60.7618 161.386 60.7375 161.417 60.7191C161.448 60.7006 161.483 60.6886 161.518 60.6835C161.554 60.6784 161.591 60.6804 161.626 60.6894C161.661 60.6984 161.694 60.7142 161.723 60.736C161.752 60.7577 161.776 60.7849 161.794 60.8161C161.813 60.8472 161.825 60.8817 161.83 60.9175C161.835 60.9533 161.833 60.9898 161.824 61.0248C161.613 61.8462 161.724 62.5072 162.136 62.8857C162.439 63.1631 162.878 63.2473 163.283 63.1052C164.528 62.6681 166.621 59.9786 166.851 58.1417C166.855 58.1058 166.867 58.0711 166.884 58.0396C166.902 58.0082 166.926 57.9805 166.955 57.9583C166.983 57.9361 167.016 57.9197 167.051 57.9102C167.086 57.9006 167.122 57.898 167.158 57.9026C167.231 57.9117 167.297 57.9492 167.341 58.0068C167.386 58.0645 167.406 58.1377 167.397 58.2102C167.278 59.1606 166.721 60.3603 165.867 61.5016C165.054 62.5888 164.156 63.3826 163.465 63.6252C163.28 63.6906 163.084 63.7241 162.887 63.7243Z" fill="#313259"/>
<path d="M165.332 64.9871C164.978 64.9871 164.599 64.8609 164.283 64.6254C163.797 64.2637 163.54 63.71 163.578 63.1061C163.584 63.0347 163.619 62.9686 163.673 62.922C163.728 62.8753 163.798 62.8517 163.87 62.8563C163.941 62.8608 164.008 62.8931 164.057 62.9462C164.105 62.9994 164.13 63.0693 164.128 63.141C164.092 63.708 164.416 64.0374 164.612 64.1833C164.919 64.4121 165.313 64.4966 165.591 64.3935C166.853 63.9259 168.85 61.5669 169.039 59.985C169.048 59.9125 169.085 59.8464 169.142 59.8013C169.2 59.7562 169.273 59.7356 169.345 59.7441C169.381 59.7484 169.416 59.7597 169.447 59.7774C169.479 59.7951 169.507 59.8189 169.529 59.8473C169.551 59.8757 169.568 59.9083 169.578 59.9431C169.588 59.978 169.59 60.0144 169.586 60.0503C169.372 61.8416 167.192 64.3879 165.782 64.9102C165.643 64.962 165.49 64.9871 165.332 64.9871Z" fill="#313259"/>
<path d="M167.615 66.3382C167.311 66.3382 167.019 66.2355 166.778 66.0331C166.256 65.594 166.122 64.8179 166.42 63.9571C166.431 63.9227 166.449 63.8909 166.473 63.8635C166.497 63.8362 166.526 63.8138 166.559 63.7978C166.592 63.7817 166.627 63.7723 166.664 63.7701C166.7 63.7678 166.736 63.7728 166.771 63.7846C166.805 63.7965 166.837 63.815 166.864 63.8392C166.891 63.8634 166.913 63.8927 166.929 63.9255C166.945 63.9582 166.954 63.9938 166.956 64.0301C166.958 64.0664 166.952 64.1027 166.94 64.137C166.72 64.7738 166.792 65.325 167.133 65.6115C167.384 65.8226 167.741 65.8427 168.064 65.6643C168.096 65.6468 168.131 65.6357 168.166 65.6317C168.202 65.6277 168.239 65.6307 168.274 65.6408C168.308 65.6508 168.341 65.6676 168.369 65.6902C168.397 65.7127 168.421 65.7406 168.438 65.7723C168.456 65.804 168.467 65.8388 168.471 65.8748C168.475 65.9107 168.472 65.9471 168.462 65.9819C168.452 66.0166 168.435 66.0491 168.413 66.0774C168.39 66.1056 168.362 66.1292 168.33 66.1467C168.098 66.2749 167.853 66.3382 167.615 66.3382Z" fill="#313259"/>
<path d="M79.9309 103.809C80.3612 105.259 81.1988 106.622 82.3659 107.584C83.5786 108.583 84.2593 108.232 84.7259 108.27C85.3235 108.318 85.8066 107.752 86.0991 107.229C87.8116 104.163 87.3422 100.853 88.1945 97.4464C88.2998 97.0257 88.4056 96.5867 88.3138 96.1627C88.222 95.7387 87.8678 95.3378 87.4342 95.3458C87.1009 95.352 86.8204 95.5852 86.5746 95.8102C84.1062 98.0688 81.5245 101.088 79.9309 103.809ZM86.2095 174.756H103.285V200.545H86.2095V174.756Z" fill="#FFABA0"/>
<path d="M86.2095 174.756H103.285V200.545H86.2095V174.756Z" fill="url(#paint10_linear_287_17370)"/>
<path d="M86.2095 186.918H103.285V200.546H86.2095V186.918Z" fill="#AAAEC4"/>
<path d="M150.275 200.114H133.199L129.923 186.918L126.903 174.756H143.979L146.998 186.918L150.275 200.114Z" fill="#FFABA0"/>
<path d="M150.275 200.114H133.199L129.923 186.918L126.903 174.756H143.979L146.998 186.918L150.275 200.114Z" fill="url(#paint11_linear_287_17370)"/>
<path d="M150.275 200.115H133.199L129.923 186.918H146.998L150.275 200.115Z" fill="#AAAEC4"/>
<path d="M102.902 103.426L124.631 181.225H147.658C147.658 181.225 136.305 130.372 130.193 108.773C128.954 104.395 125.502 94.4854 121.656 91.1613C119.451 89.2559 104.191 91.9664 104.191 91.9664L102.902 103.426Z" fill="#31325C"/>
<path d="M109.236 93.5654C109.236 93.5654 91.3244 90.3366 89.3091 93.0564C87.0506 96.1044 83.9486 103.609 83.6898 116.666C83.2607 138.324 83.8806 181.225 83.8806 181.225H106.908L109.474 103.944L109.236 93.5654Z" fill="#31325C"/>
<path d="M129.274 89.9042C128.492 94.2443 124.512 97.2585 120.124 96.8223C109.184 95.7348 89.7295 93.7141 89.3091 93.0567C80.2583 78.9022 92.1888 56.4841 92.1888 56.4841C104.15 55.9448 115.794 56.8835 127.069 59.5351C130.224 70.5305 131.047 80.0583 129.274 89.9042Z" fill="#72D2AF"/>
<path d="M109.373 49.3418L115.21 50.3209L113.287 61.7895L107.45 60.8105L109.373 49.3418Z" fill="#FFABA0"/>
<path d="M113.289 61.7899L107.451 60.8109L109.375 49.3418L115.212 50.3208L113.289 61.7899Z" fill="url(#paint12_linear_287_17370)"/>
<path d="M120.276 47.8472C120.58 52.093 118.676 53.6096 114.191 53.2082C110.125 52.8443 105.844 49.5191 107.052 44.6315C108.259 39.744 113.089 37.9615 115.676 39.6289C118.263 41.2964 119.996 43.9554 120.276 47.8472Z" fill="#FFABA0"/>
<path d="M109.925 46.6936C109.925 46.6936 110.96 45.0069 110.086 42.6623C110.01 42.4591 110.127 42.237 110.336 42.18C111.33 41.9089 111.813 41.4336 112.025 41.1467C112.072 41.0821 112.139 41.0349 112.216 41.0123C112.293 40.9896 112.375 40.9929 112.45 41.0215C113.127 41.2794 115.046 41.9166 118.429 42.3448C118.978 43.0231 119.136 43.4507 119.136 43.4507C119.136 43.4507 121.425 42.59 121.109 40.7212C120.218 41.5704 119.298 41.6125 119.298 41.6125C119.298 41.6125 121.454 39.5137 120.793 36.6387C119.24 37.9513 117.861 37.8175 114.928 37.1275C111.885 36.4113 109.006 37.0298 108.259 39.0193C105.729 39.9738 103.947 42.0926 103.947 45.5139C103.947 49.426 105.233 52.3438 108.802 52.7585C108.971 51.8574 109.239 50.2305 109.2 50.1228C108.872 49.2145 109.925 46.6936 109.925 46.6936Z" fill="#313259"/>
<path d="M108.705 50.3305C109.848 50.3305 110.775 49.4039 110.775 48.2609C110.775 47.118 109.848 46.1914 108.705 46.1914C107.562 46.1914 106.636 47.118 106.636 48.2609C106.636 49.4039 107.562 50.3305 108.705 50.3305Z" fill="#FFABA0"/>
<path d="M121.014 46.3981L120.1 46.8229C119.495 47.1041 118.776 46.8414 118.495 46.2363C118.214 45.6311 118.477 44.9125 119.082 44.6314L119.996 44.2065C120.601 43.9254 121.32 44.188 121.601 44.7932C121.882 45.3985 121.619 46.1169 121.014 46.3981Z" fill="#FFABA0"/>
<path d="M109.949 48.1577L107.713 47.3203L108.705 49.046L109.949 48.1577Z" fill="url(#paint13_linear_287_17370)"/>
<path d="M118.059 48.9713C117.593 48.9713 117.036 48.8389 116.468 48.4015C116.439 48.3796 116.414 48.3521 116.396 48.3207C116.378 48.2892 116.366 48.2545 116.361 48.2184C116.356 48.1824 116.358 48.1457 116.368 48.1106C116.377 48.0754 116.394 48.0425 116.416 48.0136C116.438 47.9848 116.466 47.9607 116.497 47.9426C116.529 47.9245 116.564 47.9129 116.6 47.9084C116.636 47.9039 116.672 47.9065 116.708 47.9162C116.743 47.926 116.775 47.9425 116.804 47.965C117.604 48.5809 118.368 48.4364 118.753 48.2955C118.821 48.2715 118.896 48.2753 118.961 48.3062C119.027 48.3371 119.078 48.3926 119.103 48.4606C119.128 48.5286 119.125 48.6037 119.095 48.6696C119.065 48.7355 119.01 48.787 118.942 48.8128C118.659 48.9167 118.36 48.9703 118.059 48.9713Z" fill="#313259"/>
<path d="M108.517 54.4576L108.115 56.8525C108.115 56.8525 109.934 58.9848 110.968 61.3136C112.068 59.3945 114.077 57.0918 114.077 57.0918L114.429 54.9902C114.429 54.9902 118.536 55.2544 118.838 57.3892C119.243 60.2547 110.774 64.16 110.774 64.16C110.774 64.16 104.737 60.9255 104.09 57.152C103.771 55.2854 105.44 54.2162 108.517 54.4576Z" fill="url(#paint14_linear_287_17370)"/>
<path d="M107.626 67.2752C107.553 67.2752 107.483 67.2462 107.432 67.1945C107.38 67.1428 107.351 67.0727 107.351 66.9997V61.422C107.351 61.3489 107.38 61.2789 107.432 61.2272C107.483 61.1755 107.553 61.1465 107.626 61.1465C107.7 61.1465 107.77 61.1755 107.821 61.2272C107.873 61.2789 107.902 61.3489 107.902 61.422V66.9997C107.902 67.0727 107.873 67.1428 107.821 67.1945C107.77 67.2462 107.7 67.2752 107.626 67.2752ZM114.9 70.1503C114.827 70.1503 114.757 70.1212 114.705 70.0696C114.653 70.0179 114.624 69.9478 114.624 69.8747V61.422C114.624 61.3489 114.653 61.2789 114.705 61.2272C114.757 61.1755 114.827 61.1465 114.9 61.1465C114.973 61.1465 115.043 61.1755 115.095 61.2272C115.146 61.2789 115.175 61.3489 115.175 61.422V69.8747C115.175 69.9478 115.146 70.0179 115.095 70.0696C115.043 70.1212 114.973 70.1503 114.9 70.1503Z" fill="#313259"/>
<path d="M107.627 69.2712C107.415 69.2712 107.212 69.1872 107.062 69.0375C106.913 68.8879 106.829 68.685 106.829 68.4734V67.7978C106.829 67.5862 106.913 67.3833 107.062 67.2337C107.212 67.0841 107.415 67 107.627 67C107.838 67 108.041 67.0841 108.191 67.2337C108.34 67.3833 108.424 67.5862 108.424 67.7978V68.4734C108.424 68.685 108.34 68.8879 108.191 69.0375C108.041 69.1872 107.838 69.2712 107.627 69.2712ZM114.9 71.7941C114.688 71.7941 114.485 71.71 114.336 71.5604C114.186 71.4108 114.102 71.2078 114.102 70.9962V70.3206C114.102 70.1091 114.186 69.9061 114.336 69.7565C114.485 69.6069 114.688 69.5228 114.9 69.5228C115.111 69.5228 115.314 69.6069 115.464 69.7565C115.613 69.9061 115.698 70.1091 115.698 70.3206V70.9962C115.698 71.2078 115.613 71.4108 115.464 71.5604C115.314 71.71 115.111 71.7941 114.9 71.7941Z" fill="#313259"/>
<path d="M131.89 212.023H165.407C165.407 212.023 166.104 202.445 164.598 199.49C163.091 196.535 155.722 195.607 151.601 196.432C151.601 196.432 155.592 192.993 152.635 191.709C149.678 190.425 143.505 195.217 143.505 195.217L131.405 192.891C130.951 207.739 131.89 212.023 131.89 212.023Z" fill="url(#paint15_linear_287_17370)"/>
<path d="M165.568 208.175H131.479C131.392 208.175 131.307 208.14 131.245 208.078C131.183 208.016 131.149 207.932 131.149 207.844C131.149 207.757 131.183 207.673 131.245 207.611C131.307 207.549 131.392 207.514 131.479 207.514H165.568C165.656 207.514 165.74 207.549 165.802 207.611C165.864 207.673 165.899 207.757 165.899 207.844C165.899 207.932 165.864 208.016 165.802 208.078C165.74 208.14 165.656 208.175 165.568 208.175Z" fill="#1C7E8E"/>
<path d="M154.916 212.352C154.828 212.352 154.744 212.317 154.682 212.255C154.62 212.193 154.585 212.109 154.585 212.021V196.362C154.585 196.274 154.62 196.19 154.682 196.128C154.744 196.066 154.828 196.031 154.916 196.031C155.003 196.031 155.088 196.066 155.15 196.128C155.212 196.19 155.246 196.274 155.246 196.362V212.021C155.246 212.109 155.212 212.193 155.15 212.255C155.088 212.317 155.003 212.352 154.916 212.352Z" fill="#1C7E8E"/>
<path d="M85.7831 195.962C85.7831 195.962 84.9967 207.056 84.9967 212.023H108.762C108.762 212.023 108.354 204.404 108.354 202.667C108.354 199.114 104.882 197.21 103.701 197.29C103.701 197.29 105.111 191.49 99.6227 191.49C94.4198 191.49 94.1359 196.241 94.1359 196.241C94.1359 196.241 90.4547 196.413 88.716 197.881L85.7831 195.962Z" fill="url(#paint16_linear_287_17370)"/>
<path d="M108.123 208.069H85.1063C85.0186 208.069 84.9345 208.035 84.8725 207.973C84.8105 207.911 84.7757 207.827 84.7757 207.739C84.7757 207.651 84.8105 207.567 84.8725 207.505C84.9345 207.443 85.0186 207.408 85.1063 207.408H108.123C108.167 207.408 108.21 207.417 108.25 207.433C108.29 207.45 108.326 207.474 108.357 207.505C108.388 207.536 108.412 207.572 108.429 207.612C108.445 207.652 108.454 207.695 108.454 207.739C108.454 207.782 108.445 207.825 108.429 207.865C108.412 207.906 108.388 207.942 108.357 207.973C108.326 208.003 108.29 208.028 108.25 208.044C108.209 208.061 108.166 208.069 108.123 208.069Z" fill="#1C7E8E"/>
<path d="M108.504 212.352C108.459 212.352 108.414 212.343 108.373 212.325C108.332 212.307 108.295 212.282 108.264 212.249C108.233 212.217 108.209 212.178 108.193 212.136C108.178 212.094 108.171 212.05 108.173 212.005C108.177 211.926 108.55 204.092 107.806 201.599C107.095 199.213 105.812 197.984 103.646 197.615C98.1204 196.672 93.4379 198.817 93.3913 198.838C93.3118 198.876 93.2209 198.88 93.1385 198.85C93.0561 198.82 92.9889 198.758 92.9517 198.679C92.9146 198.6 92.9105 198.509 92.9404 198.426C92.9703 198.344 93.0317 198.277 93.1111 198.239C93.3088 198.147 98.0204 195.984 103.757 196.963C106.17 197.375 107.658 198.788 108.44 201.41C109.215 204.011 108.849 211.711 108.833 212.037C108.829 212.122 108.793 212.202 108.731 212.26C108.67 212.319 108.588 212.352 108.504 212.352Z" fill="#1C7E8E"/>
<path d="M83.9037 95.561C83.6759 94.9563 83.9525 94.2346 84.4643 93.8402C84.9762 93.4457 85.672 93.3471 86.3084 93.4594C86.9447 93.5716 87.5316 93.8748 88.0784 94.2193C88.9813 94.7886 89.8019 95.4791 90.5174 96.2713C90.8705 96.6624 91.2059 97.0946 91.3351 97.6055C91.4644 98.1164 91.3399 98.7234 90.9139 99.0337C90.3858 99.4185 89.6468 99.2236 89.0426 98.9749C87.0924 98.172 84.6025 97.4159 83.9037 95.561Z" fill="#FFABA0"/>
<path d="M81.4397 98.0499C81.1661 97.3277 81.4964 96.4534 82.1261 95.9901C83.8713 94.7061 89.6824 98.6457 90.0846 99.9608C90.4019 100.998 89.4984 102.58 87.0526 101.594C84.6924 100.642 82.279 100.265 81.4397 98.0499Z" fill="#FFABA0"/>
<path d="M80.6818 100.982C80.4308 100.297 80.7025 99.4785 81.2423 99.0532C82.7383 97.8743 87.8664 101.692 88.2399 102.938C88.5347 103.922 87.7768 105.397 85.6304 104.423C83.5592 103.483 81.4519 103.085 80.6818 100.982Z" fill="#FFABA0"/>
<path d="M79.9309 103.809C79.7204 103.231 79.9439 102.542 80.3911 102.186C81.6305 101.197 85.9016 104.426 86.2154 105.477C86.4631 106.306 85.8375 107.546 84.0517 106.72C82.3283 105.923 80.5767 105.582 79.9309 103.809Z" fill="#FFABA0"/>
<path d="M85.1771 104.5C85.1394 104.5 85.1022 104.492 85.0676 104.477C85.033 104.462 85.0019 104.44 84.9762 104.413C83.5921 102.938 81.1344 102.193 81.1097 102.185C81.0417 102.163 80.9851 102.115 80.952 102.051C80.9188 101.987 80.9117 101.914 80.9321 101.845C80.9526 101.776 80.999 101.718 81.0614 101.683C81.1239 101.648 81.1976 101.639 81.2668 101.657C81.3733 101.689 83.8904 102.451 85.3779 104.036C85.4147 104.075 85.4392 104.124 85.4484 104.177C85.4576 104.23 85.4512 104.284 85.4299 104.334C85.4085 104.383 85.3732 104.425 85.3283 104.455C85.2834 104.484 85.2308 104.5 85.1771 104.5ZM87.0523 101.868C86.9848 101.868 86.9196 101.843 86.8692 101.798C84.7378 99.9019 81.9377 99.0577 81.9096 99.0494C81.8409 99.0276 81.7834 98.9797 81.7496 98.916C81.7158 98.8523 81.7083 98.7779 81.7287 98.7087C81.7491 98.6395 81.7959 98.5811 81.8589 98.546C81.922 98.511 81.9962 98.502 82.0658 98.5211C82.1849 98.5562 85.0094 99.4062 87.2353 101.386C87.277 101.424 87.3064 101.472 87.3196 101.527C87.3328 101.581 87.3293 101.638 87.3095 101.69C87.2896 101.742 87.2544 101.787 87.2085 101.819C87.1625 101.851 87.1081 101.868 87.0523 101.868ZM89.73 99.3788C89.6598 99.3789 89.5921 99.3521 89.541 99.3038C87.1227 97.0227 83.9826 95.9834 83.9512 95.9731C83.8817 95.9505 83.8241 95.9012 83.7909 95.8361C83.7578 95.771 83.7518 95.6953 83.7745 95.6258C83.7971 95.5563 83.8463 95.4987 83.9115 95.4655C83.9766 95.4324 84.0522 95.4265 84.1217 95.4491C84.2548 95.4925 87.4116 96.5377 89.919 98.9028C89.9592 98.9407 89.987 98.9897 89.999 99.0436C90.011 99.0975 90.0065 99.1537 89.9861 99.205C89.9657 99.2563 89.9304 99.3003 89.8848 99.3313C89.8391 99.3623 89.7852 99.3788 89.73 99.3788ZM84.5201 107.194C84.4841 107.194 84.4476 107.187 84.4123 107.172L81.6433 105.994C81.5772 105.964 81.5253 105.91 81.4988 105.843C81.4723 105.776 81.4734 105.701 81.5017 105.634C81.53 105.568 81.5833 105.515 81.6502 105.487C81.7171 105.46 81.7921 105.46 81.8591 105.487L84.6281 106.665C84.6865 106.69 84.7345 106.735 84.764 106.791C84.7935 106.847 84.8027 106.912 84.79 106.974C84.7773 107.036 84.7435 107.092 84.6943 107.132C84.6451 107.172 84.5836 107.194 84.5201 107.194ZM79.2137 85.479C79.1526 85.479 79.0932 85.4587 79.0448 85.4213C78.9965 85.3839 78.962 85.3314 78.9467 85.2722C78.9315 85.213 78.9363 85.1505 78.9605 85.0943C78.9847 85.0382 79.0269 84.9917 79.0804 84.9622C82.2018 83.2415 89.931 78.8211 90.0087 78.7766C90.0401 78.7586 90.0748 78.747 90.1107 78.7425C90.1465 78.7379 90.183 78.7404 90.2179 78.7499C90.2528 78.7594 90.2855 78.7757 90.3141 78.7979C90.3427 78.82 90.3667 78.8476 90.3846 78.879C90.4026 78.9104 90.4142 78.945 90.4188 78.9809C90.4234 79.0168 90.4208 79.0533 90.4113 79.0882C90.4018 79.1231 90.3855 79.1558 90.3634 79.1844C90.3412 79.213 90.3137 79.237 90.2823 79.2549C90.2045 79.2995 82.4714 83.722 79.3464 85.4448C79.3043 85.4679 79.2586 85.479 79.2137 85.479Z" fill="#313259"/>
<path d="M79.2136 85.4798C79.1762 85.4799 79.1392 85.4723 79.1048 85.4576C79.0705 85.4428 79.0395 85.4212 79.0138 85.3941C77.6212 83.9282 75.3705 81.663 75.3481 81.6402C75.2966 81.5884 75.2678 81.5182 75.268 81.4451C75.2682 81.372 75.2975 81.3021 75.3493 81.2505C75.4012 81.199 75.4713 81.1702 75.5444 81.1705C75.6175 81.1707 75.6874 81.2 75.7389 81.2518C75.7615 81.2745 78.0165 83.5441 79.4134 85.0145C79.4505 85.0536 79.4753 85.1027 79.4848 85.1558C79.4943 85.2088 79.4881 85.2635 79.4668 85.313C79.4455 85.3625 79.4102 85.4047 79.3652 85.4344C79.3202 85.464 79.2675 85.4798 79.2136 85.4798ZM129.404 89.4293C129.364 89.4294 129.325 89.4209 129.289 89.4046C129.253 89.3882 129.221 89.3644 129.195 89.3346C129.17 89.3048 129.15 89.2698 129.139 89.232C129.128 89.1941 129.125 89.1543 129.131 89.1152C129.491 86.5585 130.242 81.2384 129.787 75.7649C129.783 75.7285 129.787 75.6917 129.797 75.6567C129.808 75.6216 129.825 75.5891 129.849 75.561C129.872 75.5328 129.901 75.5096 129.933 75.4927C129.966 75.4758 130.001 75.4655 130.038 75.4625C130.074 75.4594 130.111 75.4637 130.146 75.475C130.181 75.4863 130.213 75.5045 130.241 75.5284C130.268 75.5523 130.291 75.5815 130.307 75.6143C130.324 75.647 130.333 75.6827 130.336 75.7192C130.796 81.2542 130.04 86.6157 129.676 89.1923C129.667 89.258 129.634 89.3181 129.584 89.3616C129.534 89.4052 129.47 89.4292 129.404 89.4293ZM147.658 81.2428C147.616 81.2429 147.574 81.2332 147.536 81.2146C147.499 81.1961 147.466 81.169 147.44 81.1355C147.408 81.0937 144.194 76.9275 143.144 75.5847C143.122 75.5562 143.105 75.5235 143.095 75.4885C143.084 75.4534 143.081 75.4167 143.086 75.3805C143.09 75.3442 143.101 75.3092 143.119 75.2774C143.137 75.2456 143.161 75.2176 143.19 75.1952C143.218 75.1727 143.251 75.1562 143.286 75.1465C143.322 75.1369 143.358 75.1343 143.395 75.139C143.431 75.1436 143.466 75.1555 143.497 75.1737C143.529 75.192 143.556 75.2163 143.579 75.2453C144.629 76.5896 147.844 80.7571 147.876 80.799C147.907 80.8397 147.927 80.8884 147.932 80.9396C147.937 80.9909 147.928 81.0425 147.905 81.0887C147.882 81.1349 147.847 81.1738 147.804 81.201C147.76 81.2283 147.71 81.2427 147.658 81.2428ZM108.798 124.814H108.794C108.721 124.813 108.651 124.783 108.601 124.731C108.55 124.678 108.522 124.608 108.523 124.535L108.626 117.535C108.627 117.461 108.658 117.391 108.711 117.34L111.967 114.249C111.993 114.224 112.024 114.204 112.058 114.191C112.092 114.177 112.128 114.171 112.165 114.171C112.201 114.172 112.237 114.18 112.271 114.195C112.304 114.209 112.334 114.231 112.359 114.257C112.384 114.284 112.404 114.315 112.417 114.349C112.43 114.383 112.436 114.419 112.435 114.456C112.434 114.492 112.425 114.528 112.41 114.561C112.395 114.595 112.373 114.624 112.346 114.649L109.175 117.659L109.074 124.543C109.072 124.615 109.043 124.684 108.992 124.735C108.94 124.786 108.871 124.814 108.798 124.814Z" fill="#313259"/>
</g>
<g clip-path="url(#clip5_287_17370)">
<path d="M205.202 24.3031V42.8144C205.202 45.359 203.138 47.4222 200.594 47.4222H182.083C179.538 47.4222 177.475 45.359 177.475 42.8144V24.3031C177.475 21.7584 179.538 19.6953 182.083 19.6953H200.594C203.138 19.6953 205.202 21.7584 205.202 24.3031Z" fill="#7967FF"/>
<path d="M196.026 29.3301C196.026 30.5501 195.665 31.6315 194.941 32.5736C194.848 32.683 194.159 33.3731 192.871 34.6434C192.097 35.3923 191.677 36.1283 191.609 36.852C191.592 37.0371 191.576 37.2224 191.559 37.4073C191.525 37.5505 191.403 37.6597 191.193 37.7354C190.949 37.8195 190.759 37.8616 190.625 37.8616C190.196 37.8616 189.943 37.849 189.868 37.8237C189.666 37.748 189.565 37.5461 189.565 37.218C189.565 36.2084 189.737 35.405 190.082 34.8074C190.637 34.0839 191.188 33.356 191.736 32.6241C192.392 31.7491 192.72 30.912 192.72 30.1126C192.72 29.3301 192.495 28.6991 192.045 28.2195C191.595 27.7399 190.982 27.5001 190.208 27.5001C189.586 27.5001 188.894 27.7191 188.132 28.1565C187.371 28.594 187.007 28.8128 187.041 28.8128C186.78 28.8128 186.649 28.0051 186.649 26.3896C186.649 26.2719 186.776 26.1246 187.028 25.9479C188.349 25.031 189.737 24.5723 191.193 24.5723C192.615 24.5723 193.776 25.0098 194.676 25.8848C195.576 26.7598 196.026 27.9083 196.026 29.3301ZM192.429 40.777C192.429 41.2483 192.274 41.6604 191.963 42.0138C191.651 42.3672 191.264 42.5438 190.801 42.5438C190.347 42.5438 189.966 42.3672 189.659 42.0138C189.352 41.6604 189.199 41.2483 189.199 40.777C189.199 40.3058 189.35 39.8998 189.653 39.5592C189.956 39.2183 190.339 39.0479 190.801 39.0479C191.273 39.0479 191.662 39.2183 191.969 39.5592C192.276 39.8998 192.429 40.3058 192.429 40.777Z" fill="white"/>
<path d="M198.464 19.6953L177.475 42.3205V30.0362L187.067 19.6953H198.464Z" fill="url(#paint17_linear_287_17370)"/>
<path d="M205.202 26.6973V31.0206L189.985 47.4229H185.974L205.202 26.6973Z" fill="url(#paint18_linear_287_17370)"/>
</g>
<g clip-path="url(#clip6_287_17370)">
<path d="M152.073 118.361H156.642C157.865 118.361 158.856 117.37 158.856 116.147V111.58C158.856 110.358 157.865 109.367 156.642 109.367H152.073C150.85 109.367 149.859 110.358 149.859 111.58V116.147C149.859 117.37 150.85 118.361 152.073 118.361ZM185.727 112.482H162.494C162.348 112.482 162.208 112.424 162.105 112.321C162.002 112.217 161.944 112.077 161.944 111.932C161.944 111.786 162.002 111.646 162.105 111.542C162.208 111.439 162.348 111.381 162.494 111.381H185.727C185.873 111.381 186.013 111.439 186.117 111.542C186.22 111.646 186.278 111.786 186.278 111.932C186.278 112.077 186.22 112.217 186.117 112.321C186.013 112.424 185.873 112.482 185.727 112.482ZM179.002 116.347H162.494C162.348 116.347 162.208 116.289 162.105 116.186C162.002 116.082 161.944 115.942 161.944 115.796C161.944 115.651 162.002 115.511 162.105 115.407C162.208 115.304 162.348 115.246 162.494 115.246H179.002C179.148 115.246 179.288 115.304 179.391 115.407C179.494 115.511 179.552 115.651 179.552 115.796C179.552 115.942 179.494 116.082 179.391 116.186C179.288 116.289 179.148 116.347 179.002 116.347Z" fill="#E6EFE8"/>
<path d="M152.073 130.589H156.642C157.865 130.589 158.856 129.598 158.856 128.376V123.809C158.856 122.587 157.865 121.596 156.642 121.596H152.073C150.85 121.596 149.858 122.587 149.858 123.809V128.376C149.858 129.598 150.85 130.589 152.073 130.589ZM183.454 124.71H162.494C162.348 124.71 162.208 124.652 162.104 124.549C162.001 124.446 161.943 124.306 161.943 124.16C161.943 124.014 162.001 123.874 162.104 123.771C162.208 123.668 162.348 123.61 162.494 123.61H183.454C183.6 123.61 183.74 123.668 183.844 123.771C183.947 123.874 184.005 124.014 184.005 124.16C184.005 124.306 183.947 124.446 183.844 124.549C183.74 124.652 183.6 124.71 183.454 124.71ZM183.454 128.575H162.494C162.348 128.575 162.208 128.517 162.104 128.414C162.001 128.311 161.943 128.171 161.943 128.025C161.943 127.879 162.001 127.739 162.104 127.636C162.208 127.533 162.348 127.475 162.494 127.475H183.454C183.6 127.475 183.74 127.533 183.844 127.636C183.947 127.739 184.005 127.879 184.005 128.025C184.005 128.171 183.947 128.311 183.844 128.414C183.74 128.517 183.6 128.575 183.454 128.575Z" fill="#DBE7DE"/>
<path d="M152.073 142.816H156.642C157.865 142.816 158.856 141.825 158.856 140.603V136.036C158.856 134.813 157.865 133.822 156.642 133.822H152.073C150.85 133.822 149.858 134.813 149.858 136.036V140.603C149.858 141.825 150.85 142.816 152.073 142.816ZM180.683 136.937H162.494C162.348 136.937 162.208 136.879 162.104 136.776C162.001 136.673 161.943 136.533 161.943 136.387C161.943 136.241 162.001 136.101 162.104 135.998C162.208 135.894 162.348 135.836 162.494 135.836H180.683C180.829 135.836 180.969 135.894 181.072 135.998C181.175 136.101 181.233 136.241 181.233 136.387C181.233 136.533 181.175 136.673 181.072 136.776C180.969 136.879 180.829 136.937 180.683 136.937ZM184.351 140.802H162.494C162.348 140.802 162.208 140.744 162.104 140.641C162.001 140.537 161.943 140.397 161.943 140.252C161.943 140.106 162.001 139.966 162.104 139.862C162.208 139.759 162.348 139.701 162.494 139.701H184.351C184.497 139.701 184.637 139.759 184.741 139.862C184.844 139.966 184.902 140.106 184.902 140.252C184.902 140.397 184.844 140.537 184.741 140.641C184.637 140.744 184.497 140.802 184.351 140.802Z" fill="#C7E2CD"/>
</g>
<g clip-path="url(#clip7_287_17370)">
<path d="M214.091 212.464H44.5821C44.4305 212.464 44.2851 212.406 44.1778 212.302C44.0706 212.199 44.0104 212.059 44.0104 211.913C44.0104 211.768 44.0706 211.628 44.1778 211.524C44.2851 211.421 44.4305 211.363 44.5821 211.363H214.091C214.243 211.363 214.388 211.421 214.496 211.524C214.603 211.628 214.663 211.768 214.663 211.913C214.663 212.059 214.603 212.199 214.496 212.302C214.388 212.406 214.243 212.464 214.091 212.464Z" fill="#313259"/>
</g>
<defs>
<linearGradient id="paint0_linear_287_17370" x1="62.4761" y1="34.7258" x2="80.842" y2="49.4556" gradientUnits="userSpaceOnUse">
<stop offset="0.019" stop-color="#E6EFE8"/>
<stop offset="1" stop-color="#94BDED"/>
</linearGradient>
<linearGradient id="paint1_linear_287_17370" x1="144.648" y1="32.0229" x2="174.494" y2="115.097" gradientUnits="userSpaceOnUse">
<stop offset="0.019" stop-color="#E6EFE8"/>
<stop offset="0.545" stop-color="#B8D3EB"/>
<stop offset="1" stop-color="#94BDED"/>
</linearGradient>
<linearGradient id="paint2_linear_287_17370" x1="137.675" y1="17.2645" x2="133.809" y2="85.3894" gradientUnits="userSpaceOnUse">
<stop stop-color="#FFF9E9"/>
<stop offset="0.16" stop-color="#F6F4E6" stop-opacity="0.769"/>
<stop offset="0.691" stop-color="#DBE7DE" stop-opacity="0"/>
</linearGradient>
<linearGradient id="paint3_linear_287_17370" x1="141.149" y1="36.6431" x2="154.221" y2="53.0203" gradientUnits="userSpaceOnUse">
<stop stop-color="#FFF9E9" stop-opacity="0.95"/>
<stop offset="0.99" stop-color="#C7E2CD" stop-opacity="0"/>
</linearGradient>
<linearGradient id="paint4_linear_287_17370" x1="138.084" y1="42.3313" x2="147.193" y2="55.4206" gradientUnits="userSpaceOnUse">
<stop stop-color="#FFF9E9" stop-opacity="0.95"/>
<stop offset="1" stop-color="#C7E2CD" stop-opacity="0"/>
</linearGradient>
<linearGradient id="paint5_linear_287_17370" x1="68.1987" y1="78.9389" x2="100.538" y2="148.485" gradientUnits="userSpaceOnUse">
<stop offset="0.024" stop-color="#E6EFE8"/>
<stop offset="0.451" stop-color="#1C7E8E"/>
<stop offset="0.895" stop-color="#313259"/>
</linearGradient>
<linearGradient id="paint6_linear_287_17370" x1="43.9582" y1="97.8228" x2="63.3426" y2="125.187" gradientUnits="userSpaceOnUse">
<stop offset="0.21" stop-color="#FFF9E9"/>
<stop offset="0.895" stop-color="#C7E2CD"/>
</linearGradient>
<linearGradient id="paint7_linear_287_17370" x1="67.3437" y1="93.834" x2="133.909" y2="129.259" gradientUnits="userSpaceOnUse">
<stop offset="0.071" stop-color="#FFF9E9"/>
<stop offset="0.895" stop-color="#C7E2CD"/>
</linearGradient>
<linearGradient id="paint8_linear_287_17370" x1="70.184" y1="87.058" x2="45.3449" y2="128.625" gradientUnits="userSpaceOnUse">
<stop stop-color="white"/>
<stop offset="0.672" stop-color="#C7E2CD" stop-opacity="0"/>
</linearGradient>
<linearGradient id="paint9_linear_287_17370" x1="101.729" y1="81.9886" x2="78.6316" y2="130.079" gradientUnits="userSpaceOnUse">
<stop stop-color="white"/>
<stop offset="0.824" stop-color="#C7E2CD" stop-opacity="0"/>
</linearGradient>
<linearGradient id="paint10_linear_287_17370" x1="94.7217" y1="188.211" x2="95.4991" y2="171.151" gradientUnits="userSpaceOnUse">
<stop stop-color="#FFABA0" stop-opacity="0"/>
<stop offset="0.913" stop-color="#313259"/>
</linearGradient>
<linearGradient id="paint11_linear_287_17370" x1="139.347" y1="190.155" x2="133.072" y2="167.639" gradientUnits="userSpaceOnUse">
<stop stop-color="#FFABA0" stop-opacity="0"/>
<stop offset="0.913" stop-color="#313259"/>
</linearGradient>
<linearGradient id="paint12_linear_287_17370" x1="109.827" y1="57.2917" x2="115.979" y2="50.2355" gradientUnits="userSpaceOnUse">
<stop offset="0.376" stop-color="#FFABA0" stop-opacity="0"/>
<stop offset="0.807" stop-color="#313259"/>
</linearGradient>
<linearGradient id="paint13_linear_287_17370" x1="107.302" y1="48.776" x2="110.577" y2="46.6352" gradientUnits="userSpaceOnUse">
<stop offset="0.277" stop-color="#FFABA0" stop-opacity="0"/>
<stop offset="0.753" stop-color="#313259"/>
</linearGradient>
<linearGradient id="paint14_linear_287_17370" x1="116.451" y1="63.9649" x2="107.334" y2="52.3044" gradientUnits="userSpaceOnUse">
<stop offset="0.024" stop-color="#C7E2CD"/>
<stop offset="1" stop-color="#E6EFE8"/>
</linearGradient>
<linearGradient id="paint15_linear_287_17370" x1="156.895" y1="198.216" x2="98.4808" y2="227.392" gradientUnits="userSpaceOnUse">
<stop offset="0.215" stop-color="#FFF9E9"/>
<stop offset="0.731" stop-color="#1C7E8E"/>
</linearGradient>
<linearGradient id="paint16_linear_287_17370" x1="109.462" y1="192.154" x2="60.6184" y2="239.582" gradientUnits="userSpaceOnUse">
<stop offset="0.259" stop-color="#FFF9E9"/>
<stop offset="0.679" stop-color="#1C7E8E"/>
</linearGradient>
<linearGradient id="paint17_linear_287_17370" x1="192.465" y1="4.12536" x2="185.351" y2="36.9464" gradientUnits="userSpaceOnUse">
<stop stop-color="white"/>
<stop offset="1" stop-color="#91A8F9" stop-opacity="0"/>
</linearGradient>
<linearGradient id="paint18_linear_287_17370" x1="196.166" y1="20.8506" x2="195.561" y2="40.0683" gradientUnits="userSpaceOnUse">
<stop stop-color="white"/>
<stop offset="1" stop-color="#9391F9" stop-opacity="0"/>
</linearGradient>
<clipPath id="clip0_287_17370">
<rect width="28.7172" height="27.7269" fill="white" transform="translate(62.716 33.5586)"/>
</clipPath>
<clipPath id="clip1_287_17370">
<rect width="81.5304" height="61.3953" fill="white" transform="translate(112.558 25.5273)"/>
</clipPath>
<clipPath id="clip2_287_17370">
<rect width="35.979" height="30.9177" fill="white" transform="translate(136.434 36.1992)"/>
</clipPath>
<clipPath id="clip3_287_17370">
<rect width="87.3618" height="23.7659" fill="white" transform="translate(37.2996 94.5137)"/>
</clipPath>
<clipPath id="clip4_287_17370">
<rect width="113.218" height="175.714" fill="white" transform="translate(57.6552 36.6387)"/>
</clipPath>
<clipPath id="clip5_287_17370">
<rect width="27.7269" height="27.7269" fill="white" transform="translate(177.475 19.6953)"/>
</clipPath>
<clipPath id="clip6_287_17370">
<rect width="36.4191" height="33.4484" fill="white" transform="translate(149.858 109.367)"/>
</clipPath>
<clipPath id="clip7_287_17370">
<rect width="170.653" height="1.10028" fill="white" transform="translate(44.0108 211.363)"/>
</clipPath>
</defs>
</svg>
