<svg width="152" height="152" viewBox="0 0 152 152" fill="none" xmlns="http://www.w3.org/2000/svg">
<path d="M76 152C117.974 152 152 117.974 152 76C152 34.0264 117.974 0 76 0C34.0264 0 0 34.0264 0 76C0 117.974 34.0264 152 76 152Z" fill="url(#paint0_linear_413_19082)"/>
<path d="M70.1773 110.586C67.6038 110.586 65.1659 109.432 63.5338 107.442L32.5648 69.6647C29.5565 65.995 30.0925 60.5833 33.7622 57.575C37.4302 54.5685 42.8437 55.1028 45.8519 58.7725L70.1773 88.4461L106.156 44.5559C109.164 40.8879 114.576 40.3519 118.246 43.3584C121.915 46.365 122.452 51.7784 119.443 55.4481L76.8209 107.442C75.1888 109.432 72.7509 110.586 70.1773 110.586Z" fill="white"/>
<defs>
<linearGradient id="paint0_linear_413_19082" x1="16.3899" y1="156.458" x2="133.1" y2="-1.0686" gradientUnits="userSpaceOnUse">
<stop offset="0.015" stop-color="#71DBA3"/>
<stop offset="0.151" stop-color="#7EDCAA"/>
<stop offset="0.721" stop-color="#B3E0C3"/>
<stop offset="1" stop-color="#C7E2CD"/>
</linearGradient>
</defs>
</svg>
