<svg width="159" height="158" viewBox="0 0 159 158" fill="none" xmlns="http://www.w3.org/2000/svg">
<path d="M80.1476 154.991C122.126 154.991 156.157 120.939 156.157 78.9325C156.157 36.9263 122.126 2.87354 80.1476 2.87354C38.169 2.87354 4.13867 36.9263 4.13867 78.9325C4.13867 120.939 38.169 154.991 80.1476 154.991Z" fill="url(#paint0_linear_36_27759)"/>
<path d="M110.131 105.383C96.3167 105.417 91.432 102.298 86.3214 88.8315C84.7796 84.7701 81.9794 77.3917 81.9794 77.3917L85.3397 77.0326L90.6806 62.2315C90.6806 62.2315 82.7395 59.7626 74.0826 63.0526C65.4257 66.3426 60.5205 73.6939 60.5205 73.6939L70.8791 80.5963L77.8796 79.1433C77.8796 79.1433 80.3998 85.9169 82.161 90.5581C87.0955 103.56 85.5721 109.694 75.5616 118.296C75.3465 118.477 73.195 120.978 73.195 120.978L85.064 127.855L110.47 119.745L114.349 105.628C114.349 105.628 117.172 105.057 110.129 105.384L110.131 105.383Z" fill="#36CE9F"/>
<path d="M78.8318 132.543C77.8111 132.543 76.7862 132.185 75.9602 131.457C57.2334 114.95 60.9926 94.6249 67.1703 82.9061C58.7394 78.9897 43.4756 68.4663 42.1923 43.3138C42.0701 40.9142 43.9145 38.8706 46.3115 38.7483C48.716 38.6326 50.7518 40.4718 50.874 42.8703C52.3011 70.8573 73.7103 76.2526 74.6206 76.4689C76.0402 76.8054 77.2079 77.8353 77.7095 79.2061C78.2122 80.5768 78.0047 82.1109 77.1397 83.2858C76.4662 84.2119 60.7104 106.423 81.7066 124.93C83.5089 126.519 83.6819 129.267 82.0947 131.069C81.2363 132.045 80.0362 132.543 78.8318 132.543Z" fill="#FFF9E9"/>
<path d="M113.748 119.276C113.527 119.276 113.302 119.259 113.076 119.225C110.704 118.856 109.079 116.632 109.448 114.259C113.795 86.2393 86.4535 80.461 85.2869 80.2295C83.8944 79.9525 82.7191 79.0102 82.1483 77.7098C81.5785 76.4083 81.6726 74.9099 82.4121 73.6971C82.904 72.8771 94.4573 53.0312 78.0507 32.5438C76.5489 30.6689 76.8517 27.9317 78.7242 26.4301C80.5968 24.9285 83.3332 25.2292 84.8339 27.1041C99.7193 45.6907 95.5439 64.3746 92.1988 73.1162C105.033 77.5486 121.982 90.1816 118.037 115.595C117.704 117.741 115.855 119.276 113.748 119.276Z" fill="#FFF9E9"/>
<path d="M35.5334 51.6225C33.7797 51.6225 32.1288 50.5536 31.4693 48.8161C30.6162 46.5702 31.745 44.0592 33.9895 43.2056L90.9029 21.5767C93.1485 20.7231 95.6568 21.8537 96.5098 24.0986C97.3628 26.3446 96.2341 28.8556 93.9896 29.7092L37.0762 51.338C36.568 51.5306 36.0458 51.6225 35.5334 51.6225Z" fill="#FFF9E9"/>
<path d="M67.7003 136.776C65.9478 136.776 64.2958 135.707 63.6363 133.969C62.7832 131.723 63.912 129.212 66.1564 128.358L123.335 106.628C125.58 105.778 128.089 106.905 128.942 109.15C129.795 111.396 128.666 113.907 126.421 114.762L69.2432 136.491C68.735 136.684 68.2139 136.776 67.7003 136.776Z" fill="#FFF9E9"/>
<defs>
<linearGradient id="paint0_linear_36_27759" x1="216.795" y1="68.6092" x2="-45.9522" y2="91.9286" gradientUnits="userSpaceOnUse">
<stop offset="0.08" stop-color="#36CE9F"/>
<stop offset="0.958333" stop-color="white"/>
</linearGradient>
</defs>
</svg>
