<svg width="49" height="38" viewBox="0 0 49 38" fill="none" xmlns="http://www.w3.org/2000/svg">
<path d="M3.23975 11.8223H24.9793L3.23975 33.5618H22.7785" stroke="#36CE9F" stroke-width="2.68389"/>
<path d="M3.50812 5.48828H37.5935L13.2775 29.8043" stroke="#36CE9F" stroke-width="2.68389"/>
<mask id="path-3-inside-1_1090_6970" fill="white">
<path d="M42.4207 20.3075C42.8518 18.1622 42.7516 15.944 42.1291 13.8462C41.5065 11.7484 40.3804 9.83471 38.8489 8.27181L35.3179 11.7319C36.2853 12.719 36.9965 13.9277 37.3897 15.2527C37.7829 16.5777 37.8462 17.9787 37.5739 19.3337L42.4207 20.3075Z"/>
</mask>
<path d="M42.4207 20.3075C42.8518 18.1622 42.7516 15.944 42.1291 13.8462C41.5065 11.7484 40.3804 9.83471 38.8489 8.27181L35.3179 11.7319C36.2853 12.719 36.9965 13.9277 37.3897 15.2527C37.7829 16.5777 37.8462 17.9787 37.5739 19.3337L42.4207 20.3075Z" stroke="#36CE9F" stroke-width="10.7356" mask="url(#path-3-inside-1_1090_6970)"/>
<mask id="path-4-inside-2_1090_6970" fill="white">
<path d="M19.3563 27.5759C20.79 29.1347 22.5724 30.332 24.5576 31.0699C26.5428 31.8078 28.6745 32.0653 30.7783 31.8214C32.8821 31.5775 34.8983 30.8391 36.6621 29.6666C38.4258 28.4941 39.887 26.9208 40.9261 25.0754L36.4308 22.5442C35.7912 23.6802 34.8917 24.6486 33.806 25.3704C32.7204 26.0921 31.4792 26.5466 30.1842 26.6968C28.8892 26.8469 27.577 26.6884 26.355 26.2342C25.133 25.7799 24.0358 25.0429 23.1532 24.0834L19.3563 27.5759Z"/>
</mask>
<path d="M19.3563 27.5759C20.79 29.1347 22.5724 30.332 24.5576 31.0699C26.5428 31.8078 28.6745 32.0653 30.7783 31.8214C32.8821 31.5775 34.8983 30.8391 36.6621 29.6666C38.4258 28.4941 39.887 26.9208 40.9261 25.0754L36.4308 22.5442C35.7912 23.6802 34.8917 24.6486 33.806 25.3704C32.7204 26.0921 31.4792 26.5466 30.1842 26.6968C28.8892 26.8469 27.577 26.6884 26.355 26.2342C25.133 25.7799 24.0358 25.0429 23.1532 24.0834L19.3563 27.5759Z" stroke="#36CE9F" stroke-width="10.7356" mask="url(#path-4-inside-2_1090_6970)"/>
</svg>
