<svg width="560" height="560" viewBox="0 0 560 560" fill="none" xmlns="http://www.w3.org/2000/svg">
<g clip-path="url(#clip0_179_10498)">
<path d="M522.753 74.2002H400.686C398.827 74.2002 397.319 75.6998 397.319 77.5496V139.171C397.319 141.021 398.827 142.52 400.686 142.52H522.753C524.612 142.52 526.119 141.021 526.119 139.171V77.5496C526.119 75.6998 524.612 74.2002 522.753 74.2002Z" fill="url(#paint0_linear_179_10498)"/>
<path d="M507.565 132.417H457.251C454.653 132.417 452.538 130.314 452.538 127.728V120.926C452.538 118.34 454.653 116.236 457.251 116.236H507.565C510.164 116.236 512.278 118.34 512.278 120.926V127.728C512.278 130.314 510.164 132.417 507.565 132.417ZM457.251 118.916C456.137 118.916 455.232 119.817 455.232 120.926V127.728C455.232 128.836 456.137 129.738 457.251 129.738H507.565C508.679 129.738 509.585 128.836 509.585 127.728V120.926C509.585 119.817 508.679 118.916 507.565 118.916H457.251Z" fill="#FFF9E7"/>
<path d="M507.539 96.6807H457.277C455.404 96.6807 453.885 98.1918 453.885 100.056V104.985C453.885 106.849 455.404 108.361 457.277 108.361H507.539C509.413 108.361 510.931 106.849 510.931 104.985V100.056C510.931 98.1918 509.413 96.6807 507.539 96.6807Z" fill="url(#paint1_linear_179_10498)"/>
<path d="M507.539 85.6426H457.277C455.404 85.6426 453.885 87.1537 453.885 89.0178C453.885 90.8819 455.404 92.3931 457.277 92.3931H507.539C509.413 92.3931 510.931 90.8819 510.931 89.0178C510.931 87.1537 509.413 85.6426 507.539 85.6426Z" fill="url(#paint2_linear_179_10498)"/>
<path d="M444.515 83.3955H405.218C403.359 83.3955 401.852 84.8951 401.852 86.745V129.553C401.852 131.403 403.359 132.902 405.218 132.902H444.515C446.374 132.902 447.881 131.403 447.881 129.553V86.745C447.881 84.8951 446.374 83.3955 444.515 83.3955Z" fill="url(#paint3_linear_179_10498)"/>
</g>
<g clip-path="url(#clip1_179_10498)">
<path d="M298.485 79.7998H203.555C201.702 79.7998 200.2 81.3042 200.2 83.1599V155.12C200.2 156.975 201.702 158.48 203.555 158.48H298.485C300.338 158.48 301.84 156.975 301.84 155.12V83.1599C301.84 81.3042 300.338 79.7998 298.485 79.7998Z" fill="url(#paint4_linear_179_10498)"/>
<path d="M212.24 103.809H223.381C225.189 103.809 226.654 102.341 226.654 100.532C226.654 98.7216 225.189 97.2544 223.381 97.2544H212.24C210.433 97.2544 208.968 98.7216 208.968 100.532C208.968 102.341 210.433 103.809 212.24 103.809Z" fill="url(#paint5_linear_179_10498)"/>
<path d="M231.24 124.097H220.099C217.37 124.097 215.149 121.873 215.149 119.14C215.149 116.406 217.37 114.183 220.099 114.183H231.24C233.97 114.183 236.19 116.406 236.19 119.14C236.19 121.873 233.97 124.097 231.24 124.097ZM220.099 117.543C219.22 117.543 218.504 118.259 218.504 119.14C218.504 120.02 219.22 120.737 220.099 120.737H231.24C232.12 120.737 232.835 120.02 232.835 119.14C232.835 118.259 232.12 117.543 231.24 117.543H220.099Z" fill="#2B10F9"/>
<path d="M212.24 141.025H223.381C225.189 141.025 226.654 139.558 226.654 137.748C226.654 135.938 225.189 134.471 223.381 134.471H212.24C210.433 134.471 208.968 135.938 208.968 137.748C208.968 139.558 210.433 141.025 212.24 141.025Z" fill="url(#paint6_linear_179_10498)"/>
<path d="M243.888 145.448H289.717C291.57 145.448 293.072 143.944 293.072 142.088V96.192C293.072 94.3363 291.57 92.8319 289.717 92.8319H243.888C242.035 92.8319 240.533 94.3363 240.533 96.192V142.088C240.533 143.944 242.035 145.448 243.888 145.448Z" fill="url(#paint7_linear_179_10498)"/>
</g>
<g clip-path="url(#clip2_179_10498)">
<path d="M454.16 16.2402H327.599C325.744 16.2402 324.24 17.7479 324.24 19.6076V99.1128C324.24 100.973 325.744 102.48 327.599 102.48H454.16C456.015 102.48 457.52 100.973 457.52 99.1128V19.6076C457.52 17.7479 456.015 16.2402 454.16 16.2402Z" fill="url(#paint8_linear_179_10498)"/>
<path d="M445.189 74.7725H336.57C334.715 74.7725 333.21 76.2801 333.21 78.1399V90.2309C333.21 92.0907 334.715 93.5983 336.57 93.5983H445.189C447.044 93.5983 448.548 92.0907 448.548 90.2309V78.1399C448.548 76.2801 447.044 74.7725 445.189 74.7725Z" fill="#E7F9FF"/>
<path d="M445.189 60.959H384.459C382.603 60.959 381.099 62.4666 381.099 64.3264V65.9054C381.099 67.7651 382.603 69.2728 384.459 69.2728H445.189C447.044 69.2728 448.548 67.7651 448.548 65.9054V64.3264C448.548 62.4666 447.044 60.959 445.189 60.959Z" fill="#7B6AFF"/>
<path d="M445.189 47.1465H384.459C382.603 47.1465 381.099 48.6541 381.099 50.5139V52.0929C381.099 53.9526 382.603 55.4603 384.459 55.4603H445.189C447.044 55.4603 448.548 53.9526 448.548 52.0929V50.5139C448.548 48.6541 447.044 47.1465 445.189 47.1465Z" fill="#E7F9FF"/>
<path d="M441.431 25.1221H388.216C384.285 25.1221 381.099 28.316 381.099 32.2559V32.2563C381.099 36.1962 384.285 39.3901 388.216 39.3901H441.431C445.362 39.3901 448.548 36.1962 448.548 32.2563V32.2559C448.548 28.316 445.362 25.1221 441.431 25.1221Z" fill="#E7F9FF"/>
<path d="M403.297 25.1221H396.225C392.294 25.1221 389.108 28.316 389.108 32.2559V32.2563C389.108 36.1962 392.294 39.3901 396.225 39.3901H403.297C407.227 39.3901 410.414 36.1962 410.414 32.2563V32.2559C410.414 28.316 407.227 25.1221 403.297 25.1221Z" fill="url(#paint9_linear_179_10498)"/>
<path d="M371.606 25.1221H336.57C334.715 25.1221 333.21 26.6297 333.21 28.4895V65.9064C333.21 67.7662 334.715 69.2738 336.57 69.2738H371.606C373.462 69.2738 374.966 67.7662 374.966 65.9064V28.4895C374.966 26.6297 373.462 25.1221 371.606 25.1221Z" fill="url(#paint10_linear_179_10498)"/>
<path d="M367.526 35.8625H340.65C339.722 35.8625 338.97 35.1089 338.97 34.1788C338.97 33.2487 339.722 32.4951 340.65 32.4951H367.526C368.454 32.4951 369.206 33.2487 369.206 34.1788C369.206 35.1089 368.454 35.8625 367.526 35.8625ZM367.526 44.5417H340.65C339.722 44.5417 338.97 43.7881 338.97 42.858C338.97 41.9279 339.722 41.1743 340.65 41.1743H367.526C368.454 41.1743 369.206 41.9279 369.206 42.858C369.206 43.7881 368.454 44.5417 367.526 44.5417ZM367.526 53.2202H340.65C339.722 53.2202 338.97 52.4665 338.97 51.5365C338.97 50.6064 339.722 49.8528 340.65 49.8528H367.526C368.454 49.8528 369.206 50.6064 369.206 51.5365C369.206 52.4665 368.454 53.2202 367.526 53.2202ZM367.526 61.899H340.65C339.722 61.899 338.97 61.1454 338.97 60.2153C338.97 59.2852 339.722 58.5316 340.65 58.5316H367.526C368.454 58.5316 369.206 59.2852 369.206 60.2153C369.206 61.1454 368.454 61.899 367.526 61.899Z" fill="#E7F9FF"/>
</g>
<g clip-path="url(#clip3_179_10498)">
<path d="M310.231 134.248C312.117 129.899 310.122 124.843 305.777 122.956C301.431 121.069 296.38 123.065 294.494 127.414L289.263 139.48C287.378 143.829 289.372 148.885 293.717 150.772C298.063 152.659 303.114 150.663 305 146.314L310.231 134.248Z" fill="url(#paint11_linear_179_10498)"/>
<path d="M302.943 96.6986C302.943 96.6986 315.422 97.9063 319.836 107.845C324.25 117.783 324.286 128.937 317.981 132.128C313.447 134.422 306.336 133.675 302.998 125.846C299.661 118.016 302.942 96.6982 302.942 96.6982L302.943 96.6986Z" fill="#C96363"/>
<path d="M319.328 124.944C317.112 124.944 316.279 123.994 316.175 123.864L317.49 122.815C317.49 122.815 317.482 122.804 317.465 122.786C317.472 122.794 318.244 123.558 320.677 123.136C320.897 123.098 321.123 123.149 321.305 123.277C321.487 123.406 321.611 123.602 321.649 123.821C321.687 124.041 321.636 124.267 321.508 124.45C321.38 124.632 321.184 124.756 320.964 124.794C320.35 124.9 319.807 124.945 319.329 124.945L319.328 124.944Z" fill="#31325C"/>
<path d="M311.334 99.0371C311.334 99.0371 316.627 104.342 315.254 111.417C313.881 118.493 309.186 118.902 306.447 117.786L307.72 128.177C307.72 128.177 301.993 135.527 295.913 135.908C288.42 136.378 281.039 126.879 280.585 115.583C280.214 106.348 284.423 101.496 290.007 98.3176C296.067 94.8678 306.743 95.6182 311.334 99.0367V99.0371Z" fill="url(#paint12_linear_179_10498)"/>
<path d="M314.193 117.27C313.977 117.27 313.77 117.188 313.614 117.039L306.205 110.011C306.124 109.935 306.058 109.844 306.011 109.743C305.965 109.642 305.94 109.532 305.936 109.421C305.932 109.31 305.951 109.199 305.99 109.095C306.03 108.991 306.089 108.895 306.166 108.815C306.242 108.734 306.334 108.669 306.436 108.624C306.538 108.579 306.647 108.555 306.758 108.552C306.87 108.55 306.98 108.57 307.084 108.61C307.187 108.651 307.282 108.712 307.361 108.79L314.77 115.818C314.892 115.934 314.977 116.083 315.013 116.248C315.049 116.412 315.035 116.583 314.973 116.74C314.911 116.896 314.803 117.03 314.664 117.125C314.525 117.219 314.361 117.27 314.193 117.27V117.27ZM316.542 111.969C316.402 111.969 316.26 111.934 316.13 111.86L308.333 107.453C308.143 107.341 308.003 107.159 307.946 106.946C307.888 106.732 307.916 106.505 308.025 106.312C308.134 106.12 308.314 105.978 308.526 105.917C308.739 105.856 308.966 105.882 309.16 105.988L316.956 110.395C317.118 110.487 317.245 110.629 317.317 110.801C317.39 110.972 317.403 111.163 317.356 111.342C317.309 111.522 317.203 111.681 317.056 111.795C316.909 111.908 316.728 111.97 316.542 111.969H316.542Z" fill="#FF74BA"/>
<path d="M306.442 129.182C309.646 128.769 311.898 125.751 311.473 122.44C311.047 119.13 308.105 116.78 304.901 117.193C301.697 117.605 299.444 120.623 299.87 123.934C300.295 127.245 303.238 129.594 306.442 129.182Z" fill="#C96363"/>
<path d="M303.727 120.765L309.026 124.298L305.258 127.164L303.727 120.765Z" fill="url(#paint13_linear_179_10498)"/>
<path d="M291.74 115.477C295.515 115.477 298.575 111.847 298.575 107.369C298.575 102.892 295.515 99.2617 291.74 99.2617C287.965 99.2617 284.905 102.892 284.905 107.369C284.905 111.847 287.965 115.477 291.74 115.477Z" fill="url(#paint14_linear_179_10498)"/>
<path d="M321.794 113.054L317.259 114.46C315.627 114.966 314.713 116.7 315.219 118.333C315.724 119.967 317.457 120.881 319.089 120.375L323.624 118.969C325.256 118.463 326.17 116.729 325.664 115.096C325.159 113.462 323.426 112.548 321.794 113.054Z" fill="#C96363"/>
<path d="M328.041 319.597C328.041 319.597 315.655 354.724 312.463 363.675C309.271 372.625 293.366 381.402 288.922 396.674C286.115 406.319 352.85 463.763 352.85 463.763C352.85 463.763 365.394 450.547 369.389 444.323C373.384 438.099 367.6 419.994 354.004 401.593C340.407 383.192 384.967 294.575 384.967 294.575L328.041 319.597H328.041Z" fill="url(#paint15_linear_179_10498)"/>
<path d="M288.688 397.152C288.688 397.152 291.341 386.287 304.637 397.152C317.933 408.017 357.286 449.961 354.229 461.234C351.405 471.649 333.994 455.423 321.754 438.941C309.514 422.459 289.246 410.383 288.688 397.152ZM363.657 452.581C363.528 452.581 363.4 452.551 363.285 452.494C363.169 452.437 363.068 452.353 362.989 452.251C362.91 452.148 362.857 452.029 362.832 451.902C362.807 451.775 362.811 451.644 362.845 451.519C364.085 446.947 357.201 435.211 343.958 419.321C333.255 406.479 319.724 392.66 312.484 387.176C303.399 380.295 297.659 383.042 297.419 383.161C297.22 383.261 296.99 383.278 296.779 383.209C296.568 383.14 296.392 382.99 296.291 382.792C296.19 382.594 296.171 382.365 296.239 382.153C296.306 381.942 296.455 381.766 296.652 381.664C296.926 381.522 303.505 378.265 313.499 385.835C320.826 391.384 334.475 405.317 345.249 418.243C355.011 429.957 366.27 445.314 364.468 451.959C364.419 452.137 364.314 452.295 364.167 452.407C364.021 452.519 363.842 452.58 363.657 452.581Z" fill="#31325C"/>
<path d="M418.32 217.524C428.392 220.048 442.197 227.16 446.775 251.684C452.237 280.944 397.842 341.702 387.442 356.517C377.043 371.332 340.71 354.148 353.121 330.408C365.531 306.668 396.277 245.023 403.054 235.314C409.83 225.604 412.31 216.019 418.32 217.524Z" fill="url(#paint16_linear_179_10498)"/>
<path d="M412.396 279.219C393.642 267.109 376.145 280.346 376.145 280.346L347.178 332.898C340.914 335.494 331.672 340.077 327.301 345.932C320.346 355.25 359.726 436.667 359.726 436.667C359.726 436.667 382.887 432.328 390.795 424.414C398.446 416.757 394.489 375.092 391.375 361.133C404.968 342.606 427.758 311.195 427.758 311.195C427.758 311.195 430.181 290.701 412.396 279.218V279.219Z" fill="url(#paint17_linear_179_10498)"/>
<path d="M367.393 369.236C367.242 369.236 367.093 369.194 366.963 369.117C366.833 369.039 366.726 368.927 366.654 368.794C366.582 368.661 366.548 368.51 366.554 368.359C366.561 368.207 366.608 368.06 366.691 367.933L420.24 286.132C420.3 286.039 420.378 285.958 420.469 285.894C420.56 285.831 420.664 285.786 420.772 285.763C420.881 285.74 420.993 285.738 421.103 285.758C421.212 285.779 421.316 285.821 421.409 285.882C421.502 285.943 421.582 286.022 421.644 286.114C421.707 286.206 421.75 286.309 421.772 286.419C421.794 286.528 421.794 286.64 421.773 286.749C421.751 286.858 421.708 286.962 421.646 287.054L368.097 368.855C368.021 368.972 367.916 369.068 367.793 369.135C367.67 369.201 367.533 369.236 367.393 369.236ZM327.301 345.933C330.191 341.062 340.039 340.127 348.746 358.667C358.088 378.561 372.285 428.552 364.741 434.515C357.197 440.478 348.212 432.003 344.051 425.609C339.89 419.215 330.735 388.694 327.665 378.028C324.595 367.363 323.294 352.685 327.301 345.933Z" fill="#31325C"/>
<path d="M377.597 432.609C377.422 432.609 377.251 432.554 377.109 432.453C376.966 432.351 376.859 432.208 376.802 432.042C376.745 431.876 376.741 431.697 376.79 431.529C376.84 431.361 376.94 431.213 377.078 431.105C380.241 428.627 379.451 415.955 374.965 397.208C371.081 380.977 364.876 362.269 359.877 351.713C356.26 344.076 351.613 339.175 346.441 337.539C342.574 336.317 339.717 337.34 339.688 337.35C339.253 337.511 338.771 337.289 338.609 336.855C338.446 336.421 338.665 335.938 339.098 335.775C339.232 335.725 342.435 334.549 346.825 335.897C350.786 337.113 356.53 340.719 361.395 350.992C366.439 361.641 372.692 380.485 376.6 396.816C379.983 410.954 382.991 428.608 378.115 432.43C377.961 432.55 377.778 432.609 377.597 432.609Z" fill="#31325C"/>
<path d="M367.03 309.664C367.03 309.664 404.998 279.683 415.717 267.402C426.436 255.121 440.052 234.025 425.289 220.774C417.035 213.364 375.74 210.817 341.433 240.242C309.174 267.911 340.212 324.76 367.03 309.664V309.664Z" fill="#C96363"/>
<path d="M238.133 246.75C238.133 246.75 229.495 280.622 246.58 302.789C263.738 325.05 302.536 335.606 338.651 323.529C374.766 311.451 385.12 293.358 385.12 293.358C385.12 293.358 394.73 273.895 382.116 254.563C363.228 225.616 341.831 227.685 341.831 227.685C328.498 226.108 238.133 246.75 238.133 246.75Z" fill="#31325C"/>
<path d="M271.133 147.241C271.133 147.241 274.951 139.77 293.917 139.77C306.527 139.77 311.107 141.062 312.31 146.212C313.714 152.222 273.368 153.065 271.133 147.241V147.241Z" fill="url(#paint18_linear_179_10498)"/>
<path d="M362.528 179.693C362.528 179.693 352.338 138.461 341.488 139.802C321.885 142.224 291.94 147.938 279.231 146.401C276.54 146.076 274.111 145.896 271.892 145.867C268.854 145.358 254.19 143.483 244.838 152.842C234.364 163.326 224.949 196.847 224.304 212.879C223.921 222.407 228.011 231.134 234.655 237.473C234.308 243.942 234.193 248.034 234.193 248.034C234.193 248.034 294.415 285.663 329.698 256.021C364.98 226.379 400.469 243.747 400.469 243.747C407.6 205.52 362.529 179.693 362.529 179.693H362.528Z" fill="url(#paint19_linear_179_10498)"/>
<path d="M362.528 179.693C362.528 179.693 352.338 138.461 341.488 139.802C321.885 142.224 291.94 147.938 279.231 146.401C276.54 146.076 274.111 145.896 271.892 145.867C268.854 145.358 254.19 143.483 244.838 152.842C234.364 163.326 224.949 196.847 224.304 212.879C223.921 222.407 228.011 231.134 234.655 237.473C234.308 243.942 234.193 248.034 234.193 248.034C234.193 248.034 294.415 285.663 329.698 256.021C364.98 226.379 400.469 243.747 400.469 243.747C407.6 205.52 362.529 179.693 362.529 179.693H362.528Z" fill="url(#paint20_linear_179_10498)"/>
<path d="M381.228 86.4287C381.228 86.4287 375.074 73.7926 375.074 66.119C375.074 58.4453 391.673 49.0373 403.039 55.0103C419.49 63.6551 414.015 62.2717 401.258 83.0351C397.75 88.7439 381.228 86.4287 381.228 86.4287Z" fill="#C96363"/>
<path d="M409.031 56.8174C409.937 55.5771 413.208 54.6214 415.114 58.4347C417.02 62.2479 411.069 69.011 407.141 72.4222C403.214 75.833 398.251 71.5745 409.031 56.8174Z" fill="#C96363"/>
<path d="M404.493 49.3981C405.278 48.0777 408.445 46.8171 410.702 50.4329C412.96 54.049 407.673 61.3444 404.085 65.1116C400.497 68.8784 395.155 65.1082 404.493 49.3981Z" fill="#C96363"/>
<path d="M398.646 42.6972C399.478 41.2512 402.91 39.916 405.441 43.9581C407.972 48.0002 402.339 55.972 398.494 60.0716C394.649 64.1716 388.748 59.9013 398.646 42.6972Z" fill="#C96363"/>
<path d="M393.103 32.9997L384.296 53.2355C383.387 55.3243 384.342 57.7551 386.429 58.6649L386.882 58.8621C388.969 59.7719 391.397 58.8162 392.306 56.7274L401.113 36.4916C402.022 34.4028 401.067 31.972 398.98 31.0622L398.528 30.865C396.44 29.9552 394.012 30.9109 393.103 32.9997Z" fill="#C96363"/>
<path d="M389.64 68.7016C391.45 71.5195 375.531 70.4615 375.531 70.4615C375.531 70.4615 372.763 56.9599 372.639 46.1669C372.606 43.2756 375.402 40.6744 378.335 41.2101C383.984 42.2412 383.941 59.8306 389.64 68.7016Z" fill="#C96363"/>
<path d="M394.815 52.5323C394.676 52.5322 394.539 52.4976 394.417 52.4317C394.295 52.3658 394.191 52.2705 394.114 52.1545C394.037 52.0384 393.991 51.9052 393.978 51.7667C393.966 51.6282 393.988 51.4888 394.042 51.3609L397.873 42.3681C397.962 42.1656 398.128 42.0064 398.333 41.9251C398.539 41.8437 398.768 41.8468 398.972 41.9336C399.175 42.0204 399.336 42.184 399.42 42.3889C399.504 42.5937 399.504 42.8234 399.419 43.028L395.589 52.0208C395.524 52.1726 395.416 52.302 395.279 52.3929C395.141 52.4839 394.98 52.5323 394.815 52.5323ZM402.396 57.4049C402.258 57.4048 402.122 57.3706 402 57.3053C401.878 57.24 401.774 57.1457 401.697 57.0306C401.62 56.9156 401.573 56.7833 401.56 56.6456C401.546 56.508 401.567 56.3691 401.62 56.2412L405.041 47.9861C405.128 47.7829 405.292 47.6223 405.497 47.5391C405.702 47.4559 405.931 47.4568 406.135 47.5415C406.339 47.6263 406.502 47.7881 406.588 47.992C406.674 48.1958 406.676 48.4253 406.594 48.6308L403.173 56.886C403.109 57.0397 403.001 57.171 402.863 57.2634C402.725 57.3557 402.562 57.405 402.396 57.4049ZM406.753 63.6851C406.608 63.685 406.465 63.6474 406.339 63.5758C406.213 63.5042 406.107 63.4011 406.033 63.2765C405.958 63.152 405.917 63.0102 405.913 62.865C405.91 62.7198 405.944 62.5762 406.012 62.4481L409.724 55.479C409.83 55.2844 410.009 55.1396 410.221 55.076C410.433 55.0125 410.662 55.0353 410.857 55.1396C411.053 55.2439 411.199 55.4212 411.265 55.633C411.33 55.8447 411.31 56.0739 411.207 56.2705L407.495 63.2395C407.424 63.3743 407.317 63.4869 407.186 63.5655C407.055 63.644 406.905 63.6851 406.753 63.6851Z" fill="#31325C"/>
<path d="M375.756 87.1198L374.189 127.276C374.189 127.276 348.855 136.484 339.432 141.817C330.008 147.151 303.728 172.38 318.827 194.145C323.958 201.542 328.95 208.435 340.728 206.45C348.474 205.145 361.592 197.988 371.018 191.709C385.416 182.119 418.793 159.766 419.97 143.346C421.88 116.681 406.253 83.3964 406.253 83.3964C387.163 74.9508 375.756 87.1198 375.756 87.1198Z" fill="#3ADE9E"/>
<path d="M373.094 128.618C372.897 128.617 372.707 128.548 372.556 128.421C372.405 128.294 372.303 128.118 372.269 127.923C372.234 127.729 372.269 127.529 372.367 127.358C372.465 127.187 372.62 127.055 372.805 126.987L384.831 122.577C385.039 122.504 385.268 122.515 385.468 122.61C385.668 122.704 385.822 122.873 385.898 123.081C385.975 123.289 385.966 123.518 385.874 123.719C385.783 123.92 385.616 124.078 385.409 124.156L373.383 128.566C373.291 128.6 373.193 128.618 373.094 128.618V128.618Z" fill="#31325C"/>
<path d="M296.497 105.188C296.497 105.188 291.275 96.6693 278.924 96.394C265.508 96.0952 255.378 106.44 258.146 113.871C260.474 120.12 263.3 123.797 260.417 125.748C257.999 127.384 239.054 124.243 231.21 129.239C229.99 130.016 230.536 131.881 231.981 131.935C235 132.049 240.007 133.815 247.76 140.695C259.979 151.537 278.475 153.115 286.525 145.82C294.576 138.525 302.542 116.695 296.497 105.188Z" fill="url(#paint21_linear_179_10498)"/>
<path d="M287.783 130.744C283.21 123.391 278.281 105.121 295.456 103.816C295.158 103.468 294.847 103.131 294.524 102.805C288.969 101.865 279.038 101.603 273.728 110.025C266.795 121.022 275.878 126.392 274.405 131.988C272.2 140.366 261.661 147.202 245.345 138.644C246.165 139.31 246.97 139.994 247.76 140.695C258.428 150.161 273.88 152.564 282.988 148.167C286.226 145.044 292.209 137.863 287.783 130.744Z" fill="url(#paint22_linear_179_10498)"/>
</g>
<g clip-path="url(#clip4_179_10498)">
<path d="M163.791 119H118.449C116.588 119 115.08 120.506 115.08 122.363V157.917C115.08 159.774 116.588 161.28 118.449 161.28H163.791C165.652 161.28 167.16 159.774 167.16 157.917V122.363C167.16 120.506 165.652 119 163.791 119Z" fill="url(#paint23_linear_179_10498)"/>
<path d="M134.824 129.151H119.997C119.64 129.151 119.297 129.009 119.045 128.757C118.792 128.504 118.65 128.162 118.65 127.805C118.65 127.449 118.792 127.106 119.045 126.854C119.297 126.602 119.64 126.46 119.997 126.46H134.824C135.181 126.46 135.524 126.602 135.777 126.854C136.029 127.106 136.171 127.449 136.171 127.805C136.171 128.162 136.029 128.504 135.777 128.757C135.524 129.009 135.181 129.151 134.824 129.151ZM134.824 138.304H119.997C119.64 138.304 119.297 138.163 119.045 137.91C118.792 137.658 118.65 137.316 118.65 136.959C118.65 136.602 118.792 136.26 119.045 136.008C119.297 135.755 119.64 135.614 119.997 135.614H134.824C135.181 135.614 135.524 135.755 135.777 136.008C136.029 136.26 136.171 136.602 136.171 136.959C136.171 137.316 136.029 137.658 135.777 137.91C135.524 138.163 135.181 138.304 134.824 138.304ZM134.824 147.458H119.997C119.64 147.458 119.297 147.317 119.045 147.064C118.792 146.812 118.65 146.47 118.65 146.113C118.65 145.756 118.792 145.414 119.045 145.162C119.297 144.909 119.64 144.768 119.997 144.768H134.824C135.181 144.768 135.524 144.909 135.777 145.162C136.029 145.414 136.171 145.756 136.171 146.113C136.171 146.47 136.029 146.812 135.777 147.064C135.524 147.317 135.181 147.458 134.824 147.458Z" fill="#FFF9E7"/>
<path d="M157.897 126.229H146.662C144.801 126.229 143.293 127.734 143.293 129.592V152.959C143.293 154.817 144.801 156.323 146.662 156.323H157.897C159.757 156.323 161.266 154.817 161.266 152.959V129.592C161.266 127.734 159.757 126.229 157.897 126.229Z" fill="url(#paint24_linear_179_10498)"/>
</g>
<g clip-path="url(#clip5_179_10498)">
<path d="M176.798 195.381C169.068 189.973 153.062 190.115 133.454 208.936C113.846 227.756 88.6448 260.188 91.8991 279.654C96.0822 304.676 117.656 320.499 132.682 309.662C147.708 298.826 174.994 262.05 180.965 246.067C186.936 230.084 188.633 203.662 176.797 195.381H176.798Z" fill="url(#paint25_linear_179_10498)"/>
<path d="M168.224 296.361C168.224 296.361 133.646 328.591 109.674 309.852C85.7025 291.112 85.1998 262.116 103.413 247.029C121.626 231.942 161.687 277.965 168.224 296.361Z" fill="url(#paint26_linear_179_10498)"/>
<path d="M124.802 292.873C123.111 292.873 121.318 292.562 119.473 291.935C114.897 290.378 110.522 287.047 107.155 282.552C103.788 278.058 101.818 272.922 101.61 268.09C101.396 263.139 103.047 259.087 106.258 256.679C109.469 254.271 113.819 253.823 118.509 255.417C123.086 256.973 127.461 260.305 130.828 264.799C134.195 269.294 136.164 274.43 136.373 279.261C136.586 284.212 134.936 288.265 131.725 290.673C129.777 292.133 127.41 292.873 124.802 292.873H124.802ZM113.189 256.172C110.942 256.172 108.919 256.796 107.271 258.032C104.521 260.095 103.109 263.641 103.299 268.017C103.493 272.512 105.342 277.313 108.507 281.538C111.672 285.762 115.76 288.886 120.017 290.333C124.162 291.743 127.96 291.382 130.711 289.32C133.462 287.257 134.874 283.71 134.684 279.334C134.49 274.84 132.641 270.038 129.476 265.814C126.311 261.589 122.223 258.465 117.966 257.018C116.302 256.452 114.695 256.172 113.189 256.172V256.172Z" fill="#008090"/>
<path d="M216.111 435.732L241.901 457.062C250.824 464.442 263.402 465.468 273.402 459.631L274.03 459.264C290.814 449.466 292.497 425.849 277.273 413.768L250.854 392.805C239.771 384.011 223.837 385.021 213.953 395.145C202.668 406.702 203.665 425.439 216.111 435.732Z" fill="url(#paint27_linear_179_10498)"/>
<path d="M275.824 412.618C275.824 412.618 287.646 432.154 275.24 448.692L245.668 459.258C245.668 459.258 242.405 488.828 242.405 500.051C242.405 511.275 244.221 526.807 256.875 531.397C267.352 535.197 275.986 534.546 285.814 529.597C295.641 524.648 301.418 509.098 301.986 491.203C302.553 473.308 305.884 441.245 295.966 426.657L275.824 412.619L275.824 412.618Z" fill="url(#paint28_linear_179_10498)"/>
<path d="M248.431 502.717H248.405C248.295 502.713 248.185 502.688 248.084 502.643C247.983 502.597 247.892 502.532 247.815 502.451C247.739 502.371 247.68 502.276 247.64 502.172C247.601 502.068 247.582 501.957 247.586 501.846L248.84 459.455C248.853 458.989 249.227 458.628 249.709 458.635C249.82 458.638 249.929 458.663 250.031 458.709C250.132 458.754 250.223 458.819 250.299 458.9C250.375 458.981 250.435 459.076 250.474 459.18C250.514 459.284 250.532 459.394 250.529 459.505L249.275 501.897C249.269 502.117 249.177 502.325 249.019 502.478C248.862 502.631 248.651 502.717 248.431 502.717V502.717ZM264.832 530.445C260.737 530.445 256.496 529.55 251.629 527.785C251.418 527.708 251.246 527.551 251.151 527.348C251.056 527.145 251.046 526.913 251.122 526.702C251.198 526.491 251.355 526.319 251.558 526.224C251.761 526.129 251.994 526.119 252.204 526.195C262.584 529.959 269.976 529.579 279.482 524.791C288.579 520.21 294.598 505.777 295.189 487.126C295.292 483.906 295.5 480.453 295.722 476.799C296.716 460.379 297.954 439.945 290.202 422.777C290.116 422.574 290.113 422.345 290.193 422.139C290.274 421.934 290.431 421.768 290.633 421.677C290.834 421.586 291.062 421.577 291.27 421.653C291.477 421.728 291.647 421.882 291.743 422.081C299.667 439.63 298.415 460.296 297.409 476.901C297.189 480.544 296.98 483.984 296.879 487.18C296.268 506.451 289.893 521.442 280.242 526.302C274.728 529.08 269.891 530.445 264.832 530.445V530.445Z" fill="#E6EFE8"/>
<path d="M273.987 491.929H273.962C273.851 491.926 273.741 491.901 273.64 491.855C273.539 491.81 273.448 491.745 273.372 491.664C273.295 491.583 273.236 491.488 273.197 491.384C273.157 491.281 273.139 491.17 273.142 491.059L274.395 448.668C274.409 448.201 274.792 447.843 275.265 447.848C275.376 447.851 275.485 447.876 275.586 447.922C275.688 447.967 275.779 448.032 275.855 448.113C275.931 448.194 275.991 448.289 276.03 448.393C276.069 448.496 276.088 448.607 276.085 448.718L274.831 491.109C274.825 491.329 274.733 491.538 274.575 491.691C274.418 491.844 274.207 491.93 273.987 491.93V491.929Z" fill="#E6EFE8"/>
<path d="M301.472 498.287C289.974 492.992 285.888 487.837 258.018 493.185C245.671 495.554 243.471 495.894 242.43 498.22C242.414 498.872 242.405 499.486 242.405 500.052C242.405 511.275 244.221 526.808 256.875 531.397C267.353 535.197 275.987 534.547 285.814 529.597C294.317 525.315 299.785 513.094 301.472 498.287Z" fill="#E6EFE8"/>
<path d="M277.676 448.129C277.676 448.129 261.614 436.231 246.909 445.438C226.957 457.931 245.354 462.184 245.354 462.184L277.676 448.129Z" fill="url(#paint29_linear_179_10498)"/>
<path d="M230.143 460.334C230.143 460.334 139.681 412.594 136.654 383.743C132.665 345.72 145.679 316.828 191.762 344.557C237.845 372.286 266.169 397.888 266.169 397.888C266.169 397.888 272.932 416.631 261.584 435.915C249.701 456.11 230.143 460.334 230.143 460.334V460.334Z" fill="url(#paint30_linear_179_10498)"/>
<path d="M177.932 297.657C177.932 297.657 146.554 330.477 138.797 350.332C131.04 370.185 134.34 393.221 149.678 403.533C161.89 411.744 198.184 406.73 217.244 377.898C236.303 349.066 265.663 283.329 237.075 272.197C208.486 261.065 177.932 297.657 177.932 297.657V297.657Z" fill="url(#paint31_linear_179_10498)"/>
<path d="M310.223 261.214C313.455 291.108 298.343 304.9 280.57 295.171C262.798 285.442 220.98 262.241 222.896 242.583C224.22 228.998 220.562 192.305 220.562 192.305C220.562 192.305 305.32 215.854 310.223 261.214Z" fill="url(#paint32_linear_179_10498)"/>
<path d="M172.138 487.238C181.367 479.402 177.965 460.216 164.538 444.385C151.111 428.553 132.744 422.071 123.514 429.907C114.285 437.743 117.687 456.929 131.114 472.76C144.541 488.592 162.908 495.073 172.138 487.238Z" fill="#31325C"/>
<path d="M139.005 430.376L117.686 456.179C110.31 465.106 109.284 477.69 115.119 487.695L115.486 488.324C125.278 505.116 148.884 506.8 160.959 491.568L181.911 465.136C190.701 454.048 189.692 438.106 179.573 428.216C168.022 416.927 149.294 417.924 139.005 430.376H139.005Z" fill="url(#paint33_linear_179_10498)"/>
<path d="M137.135 475.4C137.135 475.4 149.833 460.021 144.632 444.867C139.431 429.712 123.868 434.806 122.846 445.749C121.823 456.692 137.135 475.4 137.135 475.4Z" fill="url(#paint34_linear_179_10498)"/>
<path d="M78.9908 432.676C78.9908 432.676 97.2747 422.117 107.544 424.605C117.813 427.093 125.927 435.523 131.444 450.772C136.96 466.022 138.358 472.729 138.358 472.729L140.662 470.118L146.328 492.925L158.934 493.857C158.934 493.857 146.616 518.161 137.798 526.983C124.932 539.855 120.06 540.213 113.278 540.606C106.495 540.999 78.9911 432.677 78.9911 432.677L78.9908 432.676Z" fill="url(#paint35_linear_179_10498)"/>
<path d="M132.121 452.66C131.896 452.03 131.671 451.401 131.444 450.772C125.928 435.523 117.813 427.093 107.544 424.605C97.2751 422.117 78.9911 432.676 78.9911 432.676C78.9911 432.676 74.8259 444.414 77.8584 456.673L94.1804 476.458L117.731 471.075C117.731 471.075 128.646 466.905 132.121 452.66Z" fill="#E6EFE8"/>
<path d="M74.1218 437.907C76.8534 431.104 90.6243 423.937 103.433 437.907C116.241 451.876 125.79 495.9 128.535 512.348C131.28 528.797 129.212 539.141 115.758 540.432C102.304 541.723 92.9259 537.569 85.6957 508.438C78.4655 479.308 67.4638 454.488 74.1218 437.907Z" fill="url(#paint36_linear_179_10498)"/>
<path d="M135.482 529.12C135.349 529.12 135.218 529.089 135.099 529.029C134.981 528.968 134.878 528.881 134.799 528.774C134.721 528.666 134.669 528.542 134.647 528.411C134.626 528.28 134.636 528.145 134.676 528.018C136.026 523.758 136.011 517.917 134.629 509.637C133.103 500.495 130.002 485.698 125.874 471.585C120.716 453.949 115.136 441.515 109.738 435.627C97.653 422.448 88.6843 429.216 88.3081 429.511C87.9409 429.799 87.4106 429.736 87.1222 429.37C86.8339 429.004 86.8944 428.475 87.2591 428.185C87.3673 428.099 89.9631 426.073 94.2287 425.869C98.0941 425.683 104.145 427.027 110.983 434.485C123.378 448.003 132.961 489.372 136.296 509.359C137.724 517.913 137.721 524.005 136.287 528.53C136.232 528.701 136.125 528.851 135.98 528.957C135.836 529.063 135.661 529.12 135.481 529.12L135.482 529.12Z" fill="#E6EFE8"/>
<mask id="mask0_179_10498" style="mask-type:luminance" maskUnits="userSpaceOnUse" x="72" y="429" width="58" height="112">
<path d="M74.1218 437.907C76.8534 431.104 90.6243 423.937 103.433 437.907C116.241 451.876 125.79 495.9 128.535 512.348C131.28 528.797 129.212 539.141 115.758 540.432C102.304 541.723 92.9259 537.569 85.6957 508.438C78.4655 479.308 67.4638 454.488 74.1218 437.907Z" fill="white"/>
</mask>
<g mask="url(#mask0_179_10498)">
<path d="M63.0178 453.93C61.4679 453.93 60.0708 452.857 59.721 451.28C59.3167 449.456 60.466 447.65 62.2887 447.246L113.822 435.801C115.645 435.396 117.45 436.546 117.855 438.369C118.259 440.193 117.11 441.999 115.287 442.404L63.7537 453.849C63.5073 453.903 63.2605 453.93 63.0178 453.93ZM67.4254 470.768C65.8756 470.768 64.4785 469.695 64.1286 468.118C63.7243 466.295 64.8736 464.489 66.6963 464.084L118.23 452.639C120.051 452.235 121.857 453.385 122.262 455.208C122.667 457.031 121.517 458.837 119.695 459.242L68.1613 470.687C67.9149 470.742 67.6682 470.768 67.4254 470.768ZM71.8327 487.607C70.2829 487.607 68.8858 486.534 68.5359 484.957C68.1316 483.133 69.2809 481.327 71.1036 480.923L122.637 469.478C124.458 469.073 126.265 470.223 126.67 472.047C127.074 473.87 125.925 475.676 124.102 476.081L72.5686 487.526C72.3222 487.58 72.0754 487.607 71.8327 487.607ZM76.2404 504.445C74.6905 504.445 73.2934 503.372 72.9435 501.795C72.5392 499.972 73.6885 498.166 75.5112 497.76L127.045 486.316C128.868 485.911 130.673 487.061 131.078 488.885C131.482 490.708 130.333 492.514 128.51 492.919L76.9763 504.364C76.7298 504.419 76.4831 504.445 76.2404 504.445ZM80.648 521.283C79.0981 521.283 77.701 520.21 77.3512 518.634C76.9469 516.81 78.0962 515.004 79.9189 514.599L131.453 503.154C133.275 502.748 135.081 503.899 135.485 505.723C135.89 507.546 134.74 509.352 132.918 509.757L81.3839 521.202C81.1375 521.257 80.8907 521.283 80.648 521.283ZM85.0556 538.122C83.5057 538.122 82.1086 537.049 81.7588 535.472C81.3545 533.648 82.5038 531.842 84.3265 531.437L135.86 519.992C137.681 519.587 139.488 520.737 139.893 522.561C140.297 524.385 139.148 526.191 137.325 526.596L85.7915 538.041C85.5451 538.095 85.2983 538.122 85.0556 538.122ZM89.4633 554.96C87.9134 554.96 86.5163 553.887 86.1664 552.31C85.7621 550.487 86.9114 548.681 88.7341 548.276L140.267 536.83C142.088 536.427 143.895 537.576 144.3 539.399C144.704 541.223 143.555 543.029 141.732 543.434L90.1992 554.879C89.9527 554.934 89.706 554.96 89.4633 554.96Z" fill="#E6EFE8"/>
</g>
<path d="M272.96 262.875C272.96 262.875 293.948 286.841 293.948 306.196C293.948 332.111 275.136 360.851 261.048 377.893C242.686 400.105 173.541 485.889 173.541 485.889C173.541 485.889 184.491 464.364 160.311 442.94C138.171 423.324 122.674 430.686 122.674 430.686L209.847 317.337L195.88 317.973L202.151 287.121L272.96 262.875Z" fill="url(#paint37_linear_179_10498)"/>
<path d="M170.544 455.761C170.383 455.761 170.225 455.715 170.09 455.628C169.954 455.542 169.846 455.418 169.778 455.272C169.71 455.126 169.685 454.963 169.707 454.803C169.728 454.644 169.795 454.493 169.899 454.37C170.418 453.755 222.05 392.566 238.297 373.828C260.942 347.709 275.429 321.364 274.347 308.272C272.577 286.859 259.444 267.83 259.312 267.641C259.245 267.55 259.198 267.447 259.172 267.337C259.146 267.228 259.142 267.114 259.16 267.003C259.178 266.892 259.219 266.786 259.279 266.69C259.339 266.595 259.417 266.513 259.509 266.448C259.602 266.384 259.706 266.338 259.816 266.315C259.926 266.291 260.04 266.29 260.15 266.311C260.261 266.331 260.366 266.374 260.46 266.436C260.554 266.498 260.634 266.579 260.697 266.672C260.832 266.865 274.223 286.255 276.03 308.132C276.577 314.743 273.477 324.49 267.067 336.321C260.542 348.363 251.035 361.715 239.573 374.936C223.334 393.665 171.709 454.845 171.189 455.461C171.022 455.659 170.784 455.761 170.543 455.761L170.544 455.761Z" fill="#31325C"/>
<path d="M277.766 263.726L251.817 232.361C251.817 232.361 222.896 230.811 220.561 192.305C219.656 177.367 228.831 164.047 227.95 164.07C211.487 164.517 189.533 182.773 189.533 182.773C160.484 194.768 150.579 190.689 144.488 201.859C132.344 224.13 155.858 293.998 169.019 300.901C180.973 307.172 268.389 284.351 277.766 263.726V263.726Z" fill="#39C695"/>
<path d="M158.179 311.456L231.879 297.953C234.232 297.521 235.405 294.848 234.13 292.823L177.395 202.741C177.035 202.17 176.512 201.719 175.894 201.447C175.276 201.176 174.591 201.096 173.926 201.217L100.227 214.72C97.8734 215.152 96.7004 217.825 97.9758 219.85L154.711 309.932C155.071 310.504 155.593 310.954 156.212 311.226C156.83 311.497 157.515 311.577 158.179 311.456Z" fill="url(#paint38_linear_179_10498)"/>
<path d="M213.839 170.208C221.044 162.374 237.963 159.409 261.981 177.574C285.999 195.739 318.361 230.125 318.361 253.517C318.361 283.586 298.343 304.899 280.57 295.171C262.797 285.443 227.507 247.791 218.384 230.275C209.261 212.758 202.807 182.204 213.839 170.208L213.839 170.208Z" fill="#FFF9E7"/>
<path d="M230.99 242.178C236.042 233.178 236.942 224.087 233 221.873C229.059 219.658 221.768 225.158 216.717 234.158C211.665 243.157 210.765 252.248 214.707 254.463C218.649 256.678 225.939 251.177 230.99 242.178Z" fill="#31325C"/>
<path d="M225.794 255.506C225.794 255.506 214.592 254.939 209.323 247.306C204.053 239.673 202.687 213.961 213.267 213.961C221.162 213.961 227.046 220.568 238.011 228.119C241.579 230.575 234.245 256.307 225.794 255.506Z" fill="#FFB4A5"/>
<path d="M211.34 247.297C211.34 247.297 196.148 252.227 192.079 253.632C188.011 255.036 184.78 250.916 187.192 247.07C189.605 243.225 205.429 234.328 210.936 236.776C216.442 239.224 214.453 243.538 211.34 247.297Z" fill="#FFB4A5"/>
<path d="M212.315 240.847C212.315 240.847 193.445 246.545 188.392 248.169C183.338 249.792 179.326 245.029 182.322 240.584C185.318 236.14 204.973 225.857 211.812 228.686C218.652 231.515 216.181 236.501 212.315 240.847H212.315Z" fill="#FFB4A5"/>
<path d="M213.485 234.937C213.485 234.937 192.993 240.635 187.505 242.258C182.017 243.882 177.659 239.119 180.913 234.674C184.167 230.23 205.513 219.947 212.94 222.776C220.367 225.605 217.684 230.591 213.486 234.937H213.485Z" fill="#FFB4A5"/>
<path d="M216.19 226.607C216.19 226.607 195.697 232.305 190.209 233.928C184.721 235.552 180.364 230.789 183.618 226.344C186.872 221.899 208.217 211.617 215.644 214.446C223.071 217.275 220.388 222.261 216.19 226.607H216.19Z" fill="#FFB4A5"/>
<path d="M186.45 249.754C186.325 249.754 186.202 249.727 186.089 249.673C185.976 249.62 185.877 249.543 185.797 249.447C185.718 249.35 185.661 249.238 185.63 249.117C185.599 248.996 185.596 248.87 185.619 248.747C185.76 248.024 186.089 247.356 186.444 246.679C188.743 242.281 204.788 236.61 206.61 235.978C206.715 235.939 206.827 235.922 206.939 235.927C207.051 235.933 207.161 235.96 207.263 236.008C207.364 236.056 207.455 236.124 207.53 236.208C207.604 236.291 207.662 236.389 207.699 236.495C207.735 236.601 207.751 236.713 207.744 236.825C207.737 236.937 207.707 237.047 207.658 237.147C207.608 237.248 207.539 237.337 207.454 237.411C207.369 237.484 207.271 237.54 207.164 237.575C202.389 239.232 189.626 244.239 187.941 247.463C187.648 248.025 187.375 248.57 187.279 249.069C187.241 249.262 187.138 249.435 186.987 249.56C186.836 249.685 186.646 249.753 186.45 249.754L186.45 249.754ZM181.701 242.578C181.562 242.578 181.425 242.544 181.303 242.478C181.181 242.413 181.076 242.318 180.999 242.203C180.922 242.087 180.874 241.955 180.86 241.816C180.847 241.678 180.867 241.539 180.92 241.41C181.109 240.955 181.344 240.52 181.621 240.111C184.683 235.57 203.485 228.664 205.618 227.891C205.828 227.819 206.057 227.833 206.257 227.929C206.457 228.024 206.611 228.195 206.687 228.403C206.762 228.612 206.753 228.842 206.66 229.043C206.568 229.245 206.4 229.402 206.193 229.481C200.539 231.529 185.353 237.599 183.022 241.057C182.809 241.371 182.628 241.705 182.482 242.055C182.419 242.21 182.31 242.342 182.171 242.435C182.032 242.528 181.868 242.578 181.701 242.578L181.701 242.578ZM183.305 232.837C183.132 232.838 182.962 232.785 182.82 232.685C182.677 232.586 182.569 232.444 182.51 232.281C182.45 232.118 182.443 231.94 182.488 231.772C182.533 231.605 182.629 231.455 182.763 231.344C187.35 227.502 204.872 221.082 205.616 220.81C205.827 220.733 206.059 220.743 206.262 220.838C206.466 220.932 206.623 221.104 206.7 221.315C206.777 221.525 206.767 221.758 206.672 221.961C206.577 222.165 206.406 222.322 206.195 222.399C206.016 222.464 188.209 228.988 183.847 232.641C183.696 232.768 183.504 232.838 183.305 232.838V232.837Z" fill="#31325C"/>
<path d="M315.158 261.742C316.425 268.439 312.864 282.427 305.762 290.831C287.888 311.983 258.469 298.643 247.336 289.422C223.548 269.72 229.403 261.835 229.403 261.835L214.617 254.41C214.617 254.41 224.455 256.915 231.44 240.82C238.074 225.535 233.083 221.919 233.083 221.919L244.791 227.63C244.791 227.63 250.21 220.768 261.817 223.882C273.424 226.996 311.534 242.586 315.158 261.742H315.158Z" fill="#FFF9E7"/>
<path d="M229.402 262.68C229.185 262.681 228.975 262.599 228.817 262.45C228.659 262.301 228.565 262.097 228.553 261.88C228.541 261.663 228.613 261.45 228.755 261.285C228.896 261.12 229.095 261.016 229.311 260.994C229.366 260.987 235.667 260.044 241.058 247.686C246.804 234.514 244.049 228.042 244.021 227.978C243.93 227.774 243.923 227.542 244.002 227.333C244.081 227.124 244.239 226.954 244.442 226.861C244.645 226.769 244.877 226.76 245.086 226.838C245.295 226.915 245.464 227.073 245.558 227.275C245.689 227.56 248.696 234.404 242.607 248.362C236.777 261.728 229.79 262.642 229.495 262.675C229.464 262.678 229.432 262.68 229.402 262.68L229.402 262.68Z" fill="#008090"/>
<path d="M161.383 167.433L160.767 168.043C156.981 171.791 156.949 177.9 160.695 181.687L174.651 195.797C178.397 199.585 184.503 199.617 188.289 195.869L188.905 195.259C192.691 191.511 192.723 185.402 188.977 181.614L175.021 167.504C171.275 163.717 165.169 163.685 161.383 167.433Z" fill="url(#paint39_linear_179_10498)"/>
<path d="M183.129 175.662C183.129 175.662 186.583 164.088 180.999 155.71C174.075 145.321 155.714 147.372 149.484 153.408C145.182 157.575 142.556 166.865 137.751 169.765C137.751 169.765 140.359 175.496 150.262 174.425C160.165 173.354 183.129 175.662 183.129 175.662Z" fill="#313259"/>
<path d="M148.821 160.407C148.821 160.407 143.882 172.408 149.23 183.475C154.578 194.541 162.509 199.824 172.001 195.672C182.469 191.094 182.948 176.33 180.166 169.302C173.846 153.338 148.821 160.407 148.821 160.407Z" fill="#FFB4A5"/>
<path d="M163.883 192.73C163.688 192.73 163.499 192.662 163.348 192.539C163.197 192.416 163.093 192.244 163.054 192.053C163.016 191.862 163.044 191.663 163.135 191.491C163.225 191.318 163.373 191.182 163.552 191.106C167.517 189.422 167.385 185.265 167.377 185.089C167.367 184.866 167.446 184.647 167.597 184.482C167.748 184.316 167.958 184.218 168.182 184.207C168.405 184.197 168.622 184.276 168.788 184.426C168.953 184.576 169.053 184.785 169.065 185.008C169.16 186.902 168.268 190.94 164.212 192.663C164.108 192.707 163.996 192.73 163.882 192.73L163.883 192.73Z" fill="#31325C"/>
<path d="M178.357 163.782C178.357 163.782 162.215 177.028 155.477 165.11C155.477 165.11 148.529 166.548 146.77 173.327C146.77 173.327 143.415 157.265 153.811 152.901C164.208 148.537 178.317 154.052 178.357 163.782Z" fill="#313259"/>
<path d="M182.748 176.166C186.45 175.502 188.816 171.415 188.031 167.037C187.247 162.659 183.61 159.648 179.908 160.312C176.206 160.976 173.841 165.063 174.625 169.441C175.409 173.819 179.046 176.83 182.748 176.166Z" fill="#FFB4A5"/>
<path d="M182.562 164.43L178.038 170.902L183.294 173.155L182.562 164.43Z" fill="url(#paint40_linear_179_10498)"/>
<path d="M129.568 268.141C129.568 268.141 134.731 281.471 127.581 283.929C123.264 285.413 119.061 284.481 112.409 278.813C105.975 273.331 105.167 263.426 104.659 255.452C104.057 245.974 105.913 242.295 113.144 245.578C120.374 248.861 129.568 268.141 129.568 268.141Z" fill="#FFB4A5"/>
<path d="M130.112 272.522C130.112 272.522 132.964 259.543 134.902 255.571C136.84 251.6 132.365 247.63 129.862 249.83C127.297 252.086 122.216 260.084 122.039 265.655C121.861 271.226 128.149 275.331 130.113 272.521L130.112 272.522Z" fill="#FFB4A5"/>
<path d="M123.169 268.879C123.169 268.879 128.352 250.859 130.616 246.021C132.881 241.184 127.243 238.336 124.711 240.345C121.408 242.965 115.372 255.233 115.385 261.907C115.398 268.58 120.823 272.328 123.169 268.879V268.879Z" fill="#FFB4A5"/>
<path d="M118.728 262.659C118.728 262.659 123.405 242.142 125.718 236.543C128.032 230.943 120.946 228.38 118.056 230.872C114.287 234.125 108.065 248.356 108.675 255.751C109.285 263.146 116.193 266.729 118.728 262.659Z" fill="#FFB4A5"/>
<path d="M114.641 260.014C114.641 260.014 116.978 238.802 118.575 232.944C120.172 227.086 113.371 224.939 110.94 227.669C107.769 231.23 103.393 246.14 104.674 253.635C105.954 261.129 112.69 264.327 114.641 260.014H114.641Z" fill="#FFB4A5"/>
<path d="M122.035 268.884L122.008 268.884C121.897 268.88 121.788 268.855 121.687 268.809C121.586 268.764 121.494 268.698 121.418 268.618C121.342 268.537 121.283 268.441 121.244 268.338C121.205 268.234 121.186 268.123 121.19 268.012C121.376 262.171 125.982 252.31 129.284 249.213C129.447 249.06 129.665 248.978 129.889 248.985C130.113 248.992 130.325 249.089 130.479 249.252C130.632 249.416 130.714 249.634 130.707 249.858C130.699 250.082 130.603 250.294 130.44 250.448C127.422 253.277 123.051 262.682 122.879 268.066C122.872 268.286 122.78 268.494 122.623 268.646C122.465 268.799 122.254 268.885 122.035 268.885V268.884ZM115.385 262.751C115.161 262.751 114.946 262.662 114.788 262.504C114.629 262.346 114.54 262.131 114.54 261.908C114.526 254.836 120.803 242.366 124.186 239.682C124.361 239.542 124.585 239.478 124.808 239.504C125.03 239.53 125.234 239.643 125.373 239.819C125.512 239.994 125.576 240.218 125.551 240.441C125.525 240.664 125.412 240.867 125.236 241.007C122.096 243.498 116.217 255.447 116.23 261.904C116.23 262.015 116.209 262.125 116.166 262.228C116.124 262.331 116.062 262.424 115.984 262.503C115.905 262.581 115.812 262.644 115.71 262.687C115.607 262.729 115.498 262.751 115.387 262.752H115.385V262.751ZM108.674 256.596C108.462 256.595 108.258 256.516 108.102 256.372C107.946 256.228 107.85 256.031 107.833 255.82C107.187 247.997 113.657 233.55 117.504 230.232C117.588 230.159 117.686 230.104 117.791 230.069C117.897 230.034 118.008 230.02 118.119 230.029C118.229 230.037 118.337 230.067 118.436 230.117C118.535 230.167 118.624 230.236 118.696 230.32C118.769 230.404 118.824 230.501 118.859 230.607C118.893 230.712 118.907 230.824 118.899 230.934C118.891 231.045 118.861 231.153 118.811 231.252C118.761 231.351 118.692 231.44 118.608 231.512C115.01 234.616 108.925 248.514 109.517 255.681C109.526 255.797 109.511 255.914 109.473 256.025C109.435 256.136 109.375 256.237 109.296 256.323C109.216 256.409 109.12 256.478 109.013 256.524C108.906 256.571 108.79 256.595 108.674 256.595L108.674 256.596Z" fill="#31325C"/>
</g>
<g clip-path="url(#clip6_179_10498)">
<path d="M246.968 45.9199H167.432C165.581 45.9199 164.08 47.4153 164.08 49.2599V96.8999C164.08 98.7446 165.581 100.24 167.432 100.24H246.968C248.819 100.24 250.32 98.7446 250.32 96.8999V49.2599C250.32 47.4153 248.819 45.9199 246.968 45.9199Z" fill="url(#paint41_linear_179_10498)"/>
<path d="M242.074 84.5635H195.299C193.938 84.5635 192.835 85.6624 192.835 87.018V87.0184C192.835 88.374 193.938 89.4729 195.299 89.4729H242.074C243.435 89.4729 244.538 88.374 244.538 87.0184V87.018C244.538 85.6624 243.435 84.5635 242.074 84.5635Z" fill="#FFF9E7"/>
<path d="M219.101 70.625H172.326C170.965 70.625 169.862 71.7239 169.862 73.0795V73.0799C169.862 74.4355 170.965 75.5344 172.326 75.5344H219.101C220.462 75.5344 221.565 74.4355 221.565 73.0799V73.0795C221.565 71.7239 220.462 70.625 219.101 70.625Z" fill="#FFF9E7"/>
<path d="M242.074 56.6865H195.299C193.938 56.6865 192.835 57.7855 192.835 59.1411V59.1414C192.835 60.497 193.938 61.596 195.299 61.596H242.074C243.435 61.596 244.538 60.497 244.538 59.1414V59.1411C244.538 57.7855 243.435 56.6865 242.074 56.6865Z" fill="url(#paint42_linear_179_10498)"/>
</g>
<defs>
<linearGradient id="paint0_linear_179_10498" x1="538.684" y1="157.571" x2="347.312" y2="33.9678" gradientUnits="userSpaceOnUse">
<stop stop-color="#FFF9E7" stop-opacity="0"/>
<stop offset="0.11" stop-color="#EFF0E7" stop-opacity="0.109"/>
<stop offset="0.344" stop-color="#C7D9E7" stop-opacity="0.388"/>
<stop offset="0.682" stop-color="#88B4E7" stop-opacity="0.832"/>
<stop offset="0.804" stop-color="#70A7E8"/>
</linearGradient>
<linearGradient id="paint1_linear_179_10498" x1="453.885" y1="102.52" x2="536.417" y2="102.52" gradientUnits="userSpaceOnUse">
<stop stop-color="#FFF9E7"/>
<stop offset="1" stop-color="#E6EFE8" stop-opacity="0"/>
</linearGradient>
<linearGradient id="paint2_linear_179_10498" x1="453.885" y1="89.0181" x2="510.931" y2="89.0181" gradientUnits="userSpaceOnUse">
<stop stop-color="#F9E79B"/>
<stop offset="1" stop-color="#FFF9E7"/>
</linearGradient>
<linearGradient id="paint3_linear_179_10498" x1="481.142" y1="161.75" x2="385.516" y2="69.7454" gradientUnits="userSpaceOnUse">
<stop offset="0.137" stop-color="#FFF9E7" stop-opacity="0"/>
<stop offset="0.228" stop-color="#EFF0E7" stop-opacity="0.109"/>
<stop offset="0.423" stop-color="#C7D9E7" stop-opacity="0.388"/>
<stop offset="0.703" stop-color="#88B4E7" stop-opacity="0.832"/>
<stop offset="0.804" stop-color="#70A7E8"/>
</linearGradient>
<linearGradient id="paint4_linear_179_10498" x1="306.705" y1="-4.24556" x2="181.816" y2="271.665" gradientUnits="userSpaceOnUse">
<stop offset="0.017" stop-color="#7482FF"/>
<stop offset="0.944" stop-color="#E7FCFF"/>
</linearGradient>
<linearGradient id="paint5_linear_179_10498" x1="190.884" y1="100.191" x2="246.293" y2="100.889" gradientUnits="userSpaceOnUse">
<stop stop-color="#F9E79B"/>
<stop offset="1" stop-color="#FFF9E7"/>
</linearGradient>
<linearGradient id="paint6_linear_179_10498" x1="241.632" y1="137.748" x2="188.99" y2="137.748" gradientUnits="userSpaceOnUse">
<stop stop-color="#F9E79B"/>
<stop offset="1" stop-color="#FFF9E7"/>
</linearGradient>
<linearGradient id="paint7_linear_179_10498" x1="327.972" y1="60.4651" x2="209.723" y2="173.557" gradientUnits="userSpaceOnUse">
<stop stop-color="#FFF9E7"/>
<stop offset="0.755" stop-color="#E6EFE8" stop-opacity="0"/>
</linearGradient>
<linearGradient id="paint8_linear_179_10498" x1="446.965" y1="-65.021" x2="372.795" y2="98.7003" gradientUnits="userSpaceOnUse">
<stop offset="0.118" stop-color="#7493FF"/>
<stop offset="0.944" stop-color="#E7FCFF"/>
</linearGradient>
<linearGradient id="paint9_linear_179_10498" x1="403.102" y1="-1.567" x2="396.673" y2="63.2072" gradientUnits="userSpaceOnUse">
<stop stop-color="#FFF9E7" stop-opacity="0"/>
<stop offset="0.11" stop-color="#EFF0E7" stop-opacity="0.109"/>
<stop offset="0.344" stop-color="#C7D9E7" stop-opacity="0.388"/>
<stop offset="0.682" stop-color="#88B4E7" stop-opacity="0.832"/>
<stop offset="0.804" stop-color="#70A7E8"/>
</linearGradient>
<linearGradient id="paint10_linear_179_10498" x1="390.091" y1="17.8933" x2="333.926" y2="63.3964" gradientUnits="userSpaceOnUse">
<stop stop-color="#FFF9E7"/>
<stop offset="1" stop-color="#E6EFE8" stop-opacity="0"/>
</linearGradient>
<linearGradient id="paint11_linear_179_10498" x1="298.889" y1="137.233" x2="322.378" y2="122.254" gradientUnits="userSpaceOnUse">
<stop offset="0.219" stop-color="#C96363"/>
<stop offset="0.907" stop-color="#31325C"/>
</linearGradient>
<linearGradient id="paint12_linear_179_10498" x1="302.438" y1="112.845" x2="270.847" y2="128.349" gradientUnits="userSpaceOnUse">
<stop stop-color="#FFF9E7"/>
<stop offset="0.21" stop-color="#E5EAE7"/>
<stop offset="0.655" stop-color="#A5C5E7"/>
<stop offset="1" stop-color="#70A7E8"/>
</linearGradient>
<linearGradient id="paint13_linear_179_10498" x1="299.111" y1="127.089" x2="314.796" y2="117.398" gradientUnits="userSpaceOnUse">
<stop offset="0.396" stop-color="#C96363"/>
<stop offset="0.907" stop-color="#31325C"/>
</linearGradient>
<linearGradient id="paint14_linear_179_10498" x1="288.451" y1="101.454" x2="298.692" y2="119.842" gradientUnits="userSpaceOnUse">
<stop stop-color="#FF593B"/>
<stop offset="0.389" stop-color="#FD583B"/>
<stop offset="0.529" stop-color="#F6573C"/>
<stop offset="0.629" stop-color="#EA553E"/>
<stop offset="0.71" stop-color="#D95140"/>
<stop offset="0.779" stop-color="#C34D44"/>
<stop offset="0.84" stop-color="#A84848"/>
<stop offset="0.896" stop-color="#87424E"/>
<stop offset="0.947" stop-color="#623B54"/>
<stop offset="0.992" stop-color="#39335A"/>
<stop offset="1" stop-color="#31325C"/>
</linearGradient>
<linearGradient id="paint15_linear_179_10498" x1="288.836" y1="379.169" x2="384.966" y2="379.169" gradientUnits="userSpaceOnUse">
<stop offset="0.157" stop-color="#7482FF"/>
<stop offset="0.944" stop-color="#E7F9FF"/>
</linearGradient>
<linearGradient id="paint16_linear_179_10498" x1="-782.868" y1="347.148" x2="-709.161" y2="311.099" gradientUnits="userSpaceOnUse">
<stop offset="0.396" stop-color="#C96363"/>
<stop offset="0.907" stop-color="#31325C"/>
</linearGradient>
<linearGradient id="paint17_linear_179_10498" x1="326.477" y1="355.391" x2="427.869" y2="355.391" gradientUnits="userSpaceOnUse">
<stop offset="0.157" stop-color="#749BFF"/>
<stop offset="0.944" stop-color="#E7F9FF"/>
</linearGradient>
<linearGradient id="paint18_linear_179_10498" x1="295.723" y1="145.58" x2="254.532" y2="144.246" gradientUnits="userSpaceOnUse">
<stop stop-color="#3ADE9E"/>
<stop offset="1" stop-color="#31325C"/>
</linearGradient>
<linearGradient id="paint19_linear_179_10498" x1="321.979" y1="199.031" x2="217.694" y2="329.629" gradientUnits="userSpaceOnUse">
<stop stop-color="#3ADE9E"/>
<stop offset="1" stop-color="#31325C"/>
</linearGradient>
<linearGradient id="paint20_linear_179_10498" x1="286.615" y1="206.727" x2="447.583" y2="162.061" gradientUnits="userSpaceOnUse">
<stop offset="0.323" stop-color="#3ADE9E" stop-opacity="0"/>
<stop offset="0.808" stop-color="#31325C"/>
</linearGradient>
<linearGradient id="paint21_linear_179_10498" x1="257.981" y1="108.054" x2="291.131" y2="167.574" gradientUnits="userSpaceOnUse">
<stop stop-color="#FFF9E7"/>
<stop offset="0.169" stop-color="#E5EAE7"/>
<stop offset="0.527" stop-color="#A5C5E7"/>
<stop offset="0.804" stop-color="#70A7E8"/>
</linearGradient>
<linearGradient id="paint22_linear_179_10498" x1="266.79" y1="114.737" x2="292.815" y2="161.463" gradientUnits="userSpaceOnUse">
<stop stop-color="#FFF9E7"/>
<stop offset="0.169" stop-color="#E5EAE7"/>
<stop offset="0.527" stop-color="#A5C5E7"/>
<stop offset="0.804" stop-color="#70A7E8"/>
</linearGradient>
<linearGradient id="paint23_linear_179_10498" x1="95.4315" y1="99.0719" x2="203.135" y2="196.191" gradientUnits="userSpaceOnUse">
<stop stop-color="#FFF9E7" stop-opacity="0"/>
<stop offset="0.11" stop-color="#EFF0E7" stop-opacity="0.109"/>
<stop offset="0.344" stop-color="#C7D9E7" stop-opacity="0.388"/>
<stop offset="0.682" stop-color="#88B4E7" stop-opacity="0.832"/>
<stop offset="0.804" stop-color="#70A7E8"/>
</linearGradient>
<linearGradient id="paint24_linear_179_10498" x1="127.935" y1="158.281" x2="180.055" y2="121.757" gradientUnits="userSpaceOnUse">
<stop stop-color="#FFF9E7" stop-opacity="0"/>
<stop offset="0.132" stop-color="#EFF0E7" stop-opacity="0.109"/>
<stop offset="0.413" stop-color="#C7D9E7" stop-opacity="0.388"/>
<stop offset="0.818" stop-color="#88B4E7" stop-opacity="0.832"/>
<stop offset="0.965" stop-color="#70A7E8"/>
</linearGradient>
<linearGradient id="paint25_linear_179_10498" x1="125.655" y1="228.766" x2="179.941" y2="305.323" gradientUnits="userSpaceOnUse">
<stop offset="0.188" stop-color="#FFF9E7"/>
<stop offset="1" stop-color="#008090"/>
</linearGradient>
<linearGradient id="paint26_linear_179_10498" x1="121.033" y1="280.464" x2="193.563" y2="247.442" gradientUnits="userSpaceOnUse">
<stop offset="0.125" stop-color="#FFF9E7"/>
<stop offset="1" stop-color="#008090"/>
</linearGradient>
<linearGradient id="paint27_linear_179_10498" x1="277.545" y1="424.71" x2="195.921" y2="425.764" gradientUnits="userSpaceOnUse">
<stop offset="0.039" stop-color="#FFB4A5"/>
<stop offset="1" stop-color="#31325C"/>
</linearGradient>
<linearGradient id="paint28_linear_179_10498" x1="156.441" y1="490.727" x2="326.998" y2="465.334" gradientUnits="userSpaceOnUse">
<stop stop-color="#008090"/>
<stop offset="0.772" stop-color="#C7E2CD"/>
</linearGradient>
<linearGradient id="paint29_linear_179_10498" x1="194.38" y1="428.53" x2="264.974" y2="456.03" gradientUnits="userSpaceOnUse">
<stop stop-color="#008090"/>
<stop offset="0.973" stop-color="#C7E2CD"/>
</linearGradient>
<linearGradient id="paint30_linear_179_10498" x1="311.669" y1="365.318" x2="183.975" y2="399.527" gradientUnits="userSpaceOnUse">
<stop offset="0.061" stop-color="#31325C"/>
<stop offset="0.915" stop-color="#70A7E8"/>
</linearGradient>
<linearGradient id="paint31_linear_179_10498" x1="263.026" y1="412.225" x2="185.779" y2="329.044" gradientUnits="userSpaceOnUse">
<stop stop-color="#31325C"/>
<stop offset="1" stop-color="#70A7E8"/>
</linearGradient>
<linearGradient id="paint32_linear_179_10498" x1="277.766" y1="208.987" x2="237.565" y2="297.888" gradientUnits="userSpaceOnUse">
<stop offset="0.085" stop-color="#FFF9E7" stop-opacity="0"/>
<stop offset="0.687" stop-color="#008090"/>
</linearGradient>
<linearGradient id="paint33_linear_179_10498" x1="154.493" y1="461.19" x2="231.024" y2="461.19" gradientUnits="userSpaceOnUse">
<stop offset="0.024" stop-color="#FFB4A5"/>
<stop offset="1" stop-color="#31325C"/>
</linearGradient>
<linearGradient id="paint34_linear_179_10498" x1="106.703" y1="462.024" x2="151.376" y2="451.522" gradientUnits="userSpaceOnUse">
<stop stop-color="#008090"/>
<stop offset="0.899" stop-color="#C7E2CD"/>
</linearGradient>
<linearGradient id="paint35_linear_179_10498" x1="188.363" y1="532.49" x2="118.353" y2="487.023" gradientUnits="userSpaceOnUse">
<stop stop-color="#008090"/>
<stop offset="0.772" stop-color="#C7E2CD"/>
</linearGradient>
<linearGradient id="paint36_linear_179_10498" x1="165.179" y1="576.887" x2="56.5587" y2="425.315" gradientUnits="userSpaceOnUse">
<stop offset="0.288" stop-color="#E6EFE8"/>
<stop offset="0.748" stop-color="#FFF9E7"/>
</linearGradient>
<linearGradient id="paint37_linear_179_10498" x1="431.314" y1="292.421" x2="271.784" y2="354.008" gradientUnits="userSpaceOnUse">
<stop stop-color="#31325C"/>
<stop offset="0.915" stop-color="#70A7E8"/>
</linearGradient>
<linearGradient id="paint38_linear_179_10498" x1="192.147" y1="198.573" x2="131.192" y2="333.372" gradientUnits="userSpaceOnUse">
<stop offset="0.232" stop-color="#D8E7DD"/>
<stop offset="0.945" stop-color="#3ADE9E"/>
</linearGradient>
<linearGradient id="paint39_linear_179_10498" x1="182.935" y1="183.162" x2="138.66" y2="174.909" gradientUnits="userSpaceOnUse">
<stop stop-color="#FFB4A5"/>
<stop offset="0.78" stop-color="#31325C"/>
</linearGradient>
<linearGradient id="paint40_linear_179_10498" x1="185.385" y1="169.264" x2="163.792" y2="165.21" gradientUnits="userSpaceOnUse">
<stop offset="0.165" stop-color="#FFB4A5"/>
<stop offset="0.547" stop-color="#31325C"/>
</linearGradient>
<linearGradient id="paint41_linear_179_10498" x1="137.66" y1="10.7062" x2="301.274" y2="158.558" gradientUnits="userSpaceOnUse">
<stop offset="0.232" stop-color="#D8E7DD"/>
<stop offset="0.945" stop-color="#3ADE9E"/>
</linearGradient>
<linearGradient id="paint42_linear_179_10498" x1="247.657" y1="44.5992" x2="173.826" y2="81.9377" gradientUnits="userSpaceOnUse">
<stop stop-color="#F9E79B"/>
<stop offset="1" stop-color="#FFF9E7"/>
</linearGradient>
<clipPath id="clip0_179_10498">
<rect width="128.8" height="68.32" fill="white" transform="translate(397.32 74.2002)"/>
</clipPath>
<clipPath id="clip1_179_10498">
<rect width="101.64" height="78.68" fill="white" transform="translate(200.2 79.7998)"/>
</clipPath>
<clipPath id="clip2_179_10498">
<rect width="133.28" height="86.24" fill="white" transform="translate(324.24 16.2402)"/>
</clipPath>
<clipPath id="clip3_179_10498">
<rect width="222.88" height="434" fill="white" transform="translate(224.28 30.5205)"/>
</clipPath>
<clipPath id="clip4_179_10498">
<rect width="52.08" height="42.28" fill="white" transform="translate(115.08 119)"/>
</clipPath>
<clipPath id="clip5_179_10498">
<rect width="258.72" height="406.56" fill="white" transform="translate(59.6404 148.399)"/>
</clipPath>
<clipPath id="clip6_179_10498">
<rect width="86.24" height="54.32" fill="white" transform="translate(164.08 45.9199)"/>
</clipPath>
</defs>
</svg>
