<svg width="226" height="160" viewBox="0 0 226 160" fill="none" xmlns="http://www.w3.org/2000/svg">
<g clip-path="url(#clip0_287_14245)">
<path d="M182.947 141.9H7.05305C3.15765 141.9 0 138.767 0 134.902V7.09762C0 3.23262 3.15765 0.0996094 7.05305 0.0996094H182.947C186.842 0.0996094 190 3.23262 190 7.09762V134.902C190 138.766 186.842 141.9 182.947 141.9Z" fill="url(#paint0_linear_287_14245)"/>
<path d="M11.7436 13.4434C13.6586 13.4434 15.2109 11.9227 15.2109 10.0469C15.2109 8.17105 13.6586 6.65039 11.7436 6.65039C9.82872 6.65039 8.27637 8.17105 8.27637 10.0469C8.27637 11.9227 9.82872 13.4434 11.7436 13.4434Z" fill="#FF593B"/>
<path d="M22.7466 13.4434C24.6615 13.4434 26.2139 11.9227 26.2139 10.0469C26.2139 8.17105 24.6615 6.65039 22.7466 6.65039C20.8317 6.65039 19.2793 8.17105 19.2793 10.0469C19.2793 11.9227 20.8317 13.4434 22.7466 13.4434Z" fill="#F9E79B"/>
<path d="M33.7495 13.4434C35.6644 13.4434 37.2168 11.9227 37.2168 10.0469C37.2168 8.17105 35.6644 6.65039 33.7495 6.65039C31.8346 6.65039 30.2822 8.17105 30.2822 10.0469C30.2822 11.9227 31.8346 13.4434 33.7495 13.4434Z" fill="#1C7E8E"/>
<path d="M143.7 116.641H31.2658C29.3181 116.641 27.7393 115.075 27.7393 113.142V74.2002C27.7393 72.2677 29.3181 70.7012 31.2658 70.7012H143.7C145.647 70.7012 147.226 72.2677 147.226 74.2002V113.142C147.226 115.074 145.647 116.641 143.7 116.641Z" fill="#FFF9E9"/>
<path d="M164.089 55.7461H30.8698C29.1407 55.7461 27.7393 57.1366 27.7393 58.8522C27.7393 60.5677 29.1407 61.9582 30.8698 61.9582H164.089C165.818 61.9582 167.219 60.5677 167.219 58.8522C167.219 57.1366 165.818 55.7461 164.089 55.7461Z" fill="#FFF9E9"/>
<path d="M164.089 42.9199H30.8698C29.1407 42.9199 27.7393 44.3104 27.7393 46.026C27.7393 47.7415 29.1407 49.1321 30.8698 49.1321H164.089C165.818 49.1321 167.219 47.7415 167.219 46.026C167.219 44.3108 165.818 42.9199 164.089 42.9199Z" fill="#FFF9E9"/>
<path d="M164.089 30.0957H30.8698C29.1407 30.0957 27.7393 31.4862 27.7393 33.2018C27.7393 34.9173 29.1407 36.3078 30.8698 36.3078H164.089C165.818 36.3078 167.219 34.9173 167.219 33.2018C167.219 31.4862 165.818 30.0957 164.089 30.0957Z" fill="#FFF9E9"/>
<path d="M0 99.161V53.2278L55.7582 0.0996094H111.848L0 99.161Z" fill="url(#paint1_linear_287_14245)"/>
</g>
<g clip-path="url(#clip1_287_14245)">
<path d="M142.752 127.249C162.571 127.249 178.638 111.311 178.638 91.6499C178.638 71.9891 162.571 56.0508 142.752 56.0508C122.933 56.0508 106.866 71.9891 106.866 91.6499C106.866 111.311 122.933 127.249 142.752 127.249Z" fill="#4A4A5E"/>
<path d="M140.315 129.845C160.369 129.845 176.627 113.718 176.627 93.8231C176.627 73.9285 160.369 57.8008 140.315 57.8008C120.26 57.8008 104.002 73.9285 104.002 93.8231C104.002 113.718 120.26 129.845 140.315 129.845Z" fill="#228B6B"/>
<path d="M225.1 158.256C223.634 160.153 220.896 160.512 218.983 159.058L136.212 96.114C134.3 94.6601 133.938 91.9436 135.403 90.0465C136.869 88.1498 139.607 87.7907 141.52 89.2447L224.292 152.188C226.204 153.643 226.566 156.359 225.1 158.256Z" fill="#228B6B"/>
<path d="M166.993 107.5C166.193 109.035 165.243 110.526 164.144 111.947C162.327 114.298 160.226 116.309 157.923 117.963C155.455 119.736 152.756 121.101 149.929 122.043C144.829 123.749 139.322 124.079 134.017 122.955C129.795 122.061 125.701 120.244 122.045 117.462C113.281 110.797 109.251 100.282 110.514 90.1421C111.146 85.0571 113.113 80.0649 116.481 75.6995C116.526 75.6439 116.567 75.5882 116.616 75.5326C118.512 73.1069 120.718 71.0559 123.129 69.3906C127.029 66.6831 131.478 64.9844 136.077 64.3353C143.786 63.2449 151.914 65.1105 158.584 70.1806C170.313 79.1006 173.566 94.9192 166.993 107.5Z" fill="#C7E2CD"/>
<path d="M166.993 107.501C166.193 109.036 165.243 110.527 164.144 111.948C162.327 114.299 160.226 116.309 157.922 117.963L123.129 69.3912C127.028 66.6837 131.478 64.985 136.076 64.3359L166.993 107.501Z" fill="url(#paint2_linear_287_14245)"/>
<path d="M149.928 122.043C144.829 123.749 139.321 124.08 134.016 122.956L110.514 90.1427C111.146 85.0578 113.112 80.0655 116.481 75.7001C116.526 75.6445 116.567 75.5888 116.615 75.5332L149.928 122.043Z" fill="url(#paint3_linear_287_14245)"/>
</g>
<defs>
<linearGradient id="paint0_linear_287_14245" x1="74.783" y1="15.1019" x2="143.238" y2="207.361" gradientUnits="userSpaceOnUse">
<stop offset="0.0186" stop-color="#E6E8EF"/>
<stop offset="0.5448" stop-color="#B1CBFC"/>
<stop offset="1" stop-color="#94B2ED"/>
</linearGradient>
<linearGradient id="paint1_linear_287_14245" x1="58.5317" y1="-18.9844" x2="49.6824" y2="138.367" gradientUnits="userSpaceOnUse">
<stop stop-color="#FFF9E9"/>
<stop offset="0.1598" stop-color="#F6F4E6" stop-opacity="0.7686"/>
<stop offset="0.6907" stop-color="#DBE7DE" stop-opacity="0"/>
</linearGradient>
<linearGradient id="paint2_linear_287_14245" x1="119.987" y1="57.5445" x2="163.825" y2="112.965" gradientUnits="userSpaceOnUse">
<stop stop-color="#FFF9E9"/>
<stop offset="0.9899" stop-color="#C7E2CD" stop-opacity="0"/>
</linearGradient>
<linearGradient id="paint3_linear_287_14245" x1="109.594" y1="76.6596" x2="140.107" y2="120.904" gradientUnits="userSpaceOnUse">
<stop stop-color="#FFF9E9"/>
<stop offset="1" stop-color="#C7E2CD" stop-opacity="0"/>
</linearGradient>
<clipPath id="clip0_287_14245">
<rect width="190" height="142" fill="white"/>
</clipPath>
<clipPath id="clip1_287_14245">
<rect width="122" height="104" fill="white" transform="translate(104 56)"/>
</clipPath>
</defs>
</svg>
